<?xml version="1.0" encoding="utf-8"?>
<!-- Generator: Adobe Illustrator 17.1.0, SVG Export Plug-In . SVG Version: 6.00 Build 0)  -->
<!DOCTYPE svg PUBLIC "-//W3C//DTD SVG 1.1//EN" "http://www.w3.org/Graphics/SVG/1.1/DTD/svg11.dtd">
<svg version="1.1" id="Слой_1" xmlns="http://www.w3.org/2000/svg" xmlns:xlink="http://www.w3.org/1999/xlink" x="0px" y="0px"
	 viewBox="0 0 376 376" enable-background="new 0 0 376 376" xml:space="preserve">
<g>
	<path fill="#0681FA" d="M162,324.707v-96.168c0-3.312-2.688-6-6-6h-40c-3.312,0-6,2.688-6,6c0,3.316,2.688,6,6,6h34v90.168
		c-11.453,2.715-20,13.023-20,25.293c0,14.336,11.664,26,26,26c14.336,0,26-11.664,26-26C182,337.73,173.453,327.422,162,324.707
		L162,324.707z M156,364c-7.719,0-14-6.281-14-14c0-7.719,6.281-14,14-14s14,6.281,14,14C170,357.719,163.719,364,156,364L156,364z
		 M156,364"/>
	<path fill="#0681FA" d="M226,324.707v-96.168c0-3.312-2.688-6-6-6h-40c-3.312,0-6,2.688-6,6c0,3.316,2.688,6,6,6h34v90.168
		c-11.453,2.715-20,13.023-20,25.293c0,14.336,11.664,26,26,26c14.336,0,26-11.664,26-26C246,337.73,237.453,327.422,226,324.707
		L226,324.707z M220,364c-7.719,0-14-6.281-14-14c0-7.719,6.281-14,14-14s14,6.281,14,14C234,357.719,227.719,364,220,364L220,364z
		 M220,364"/>
	<path fill="#0681FA" d="M328,284c-12.27,0-22.578,8.547-25.293,20H290v-75.461c0-3.312-2.688-6-6-6h-40c-3.312,0-6,2.688-6,6
		c0,3.316,2.688,6,6,6h34V310c0,3.312,2.688,6,6,6h18.707c2.715,11.453,13.023,20,25.293,20c14.336,0,26-11.664,26-26
		C354,295.664,342.336,284,328,284L328,284z M328,324c-7.719,0-14-6.281-14-14s6.281-14,14-14s14,6.281,14,14S335.719,324,328,324
		L328,324z M328,324"/>
	<path fill="#0681FA" d="M361.711,129.246c-8.086-10.039-19.066-17.48-31.289-21.273c-1.375-28.403-13.16-54.903-33.473-75.047
		C275.539,11.695,247.137,0,216.98,0c-39.601,0-76.246,20.648-96.851,54.23c-5.012-1.582-10.223-2.378-15.547-2.378
		c-24.512,0-45.586,17.3-50.672,40.882C22.434,100.902,0,129.59,0,162.48c0,39.735,32.324,72.059,72.059,72.059H86V304H73.293
		C70.578,292.547,60.27,284,48,284c-14.336,0-26,11.664-26,26c0,14.336,11.664,26,26,26c12.27,0,22.578-8.547,25.293-20H92
		c3.312,0,6-2.688,6-6v-81.461c0-3.312-2.688-6-6-6H72.059C38.941,222.539,12,195.598,12,162.48
		c0-28.578,20.316-53.351,48.305-58.902c2.527-0.5,4.449-2.555,4.785-5.105c2.582-19.739,19.558-34.621,39.492-34.621
		c5.48,0,10.801,1.101,15.805,3.265c2.836,1.227,6.14,0.102,7.633-2.605C145.926,32.121,180.016,12,216.98,12
		c55.508,0,101.075,45.152,101.575,100.648c0.023,2.774,1.945,5.168,4.644,5.793C347.223,124,364,145.121,364,169.805
		c0,29.078-23.656,52.734-52.734,52.734H308c-3.312,0-6,2.688-6,6c0,3.316,2.688,6,6,6h3.266c35.695,0,64.734-29.039,64.734-64.734
		C376,155.086,370.926,140.684,361.711,129.246L361.711,129.246z M48,324c-7.719,0-14-6.281-14-14s6.281-14,14-14
		c7.719,0,14,6.281,14,14S55.719,324,48,324L48,324z M48,324"/>
	<path fill="#0681FA" d="M292.555,118.883h0.054c3.313-0.028,5.977-2.738,5.946-6.055c-0.09-9.883-1.957-19.555-5.547-28.742
		c-1.203-3.086-4.684-4.613-7.77-3.406c-3.086,1.203-4.613,4.683-3.406,7.769c3.059,7.828,4.645,16.067,4.723,24.489
		C286.586,116.234,289.266,118.883,292.555,118.883L292.555,118.883z M292.555,118.883"/>
	<path fill="#0681FA" d="M270.621,69.406c1.188,1.434,2.902,2.18,4.629,2.18c1.348,0,2.703-0.453,3.82-1.375
		c2.555-2.113,2.914-5.895,0.805-8.449C264.25,42.848,241.324,32,216.98,32c-3.312,0-6,2.688-6,6s2.688,6,6,6
		C237.734,44,257.285,53.258,270.621,69.406L270.621,69.406z M270.621,69.406"/>
</g>
</svg>
