<?xml version="1.0" encoding="utf-8"?>
<!-- Generator: Adobe Illustrator 18.0.0, SVG Export Plug-In . SVG Version: 6.00 Build 0)  -->
<!DOCTYPE svg PUBLIC "-//W3C//DTD SVG 1.1//EN" "http://www.w3.org/Graphics/SVG/1.1/DTD/svg11.dtd">
<svg version="1.1" id="Слой_1" xmlns="http://www.w3.org/2000/svg" xmlns:xlink="http://www.w3.org/1999/xlink" x="0px" y="0px"
	 viewBox="0.219 6.203 8.875 9.594" enable-background="new 0.219 6.203 8.875 9.594" xml:space="preserve">
<g>
	<path fill="none" stroke="#000000" stroke-width="8" stroke-miterlimit="10" d="M6.953,12.644"/>
</g>
<g>
	<g>
		<g>
			<g>
				<path d="M7.334,6.504C7.321,6.55,7.316,6.576,7.306,6.6c-0.086,0.222-0.17,0.445-0.259,0.665C7.021,7.33,7.031,7.36,7.097,7.392
					C7.174,7.43,7.251,7.48,7.309,7.543C7.45,7.695,7.524,7.885,7.57,8.084c0.058,0.249,0.138,0.488,0.264,0.711
					C7.848,8.82,7.845,8.873,7.828,8.894c-0.05,0.059-0.111,0.109-0.17,0.16C7.455,9.23,7.229,9.329,6.972,9.329
					c-0.056,0-0.114-0.005-0.173-0.015c-0.05-0.008-0.1-0.017-0.153-0.025C6.713,9.523,6.78,9.747,6.842,9.972
					c0.142,0.519,0.162,1.03,0.023,1.53c-0.008,0.03-0.017,0.059-0.026,0.089L7.06,11.61c0.009-0.03,0.017-0.06,0.025-0.09
					c0.132-0.506,0.121-1.044-0.033-1.605C7.018,9.791,6.984,9.671,6.948,9.547c0.008,0,0.016,0,0.025,0
					c0.299,0,0.578-0.111,0.829-0.329l0.024-0.021c0.053-0.046,0.114-0.099,0.168-0.161c0.076-0.089,0.09-0.242,0.03-0.347
					C7.919,8.503,7.843,8.296,7.782,8.035C7.72,7.765,7.617,7.556,7.47,7.395C7.421,7.342,7.36,7.294,7.288,7.249
					c0.058-0.146,0.115-0.293,0.17-0.436c0.017-0.045,0.035-0.09,0.052-0.135c0.01-0.027,0.017-0.051,0.023-0.076
					c0.003-0.011,0.006-0.024,0.01-0.039c0.02-0.072,0.002-0.15-0.048-0.205C7.454,6.312,7.395,6.286,7.334,6.286l0,0
					c-0.012,0-0.025,0.001-0.037,0.003C7.254,6.297,7.212,6.304,7.172,6.31C7.082,6.325,6.997,6.339,6.91,6.357
					C6.37,6.467,5.958,6.631,5.611,6.872C5.309,7.081,5.079,7.338,4.927,7.634C4.776,7.927,4.7,8.261,4.701,8.627
					c0.001,0.451-0.063,0.84-0.196,1.188c-0.141,0.369-0.353,0.733-0.629,1.08c-0.144,0.181-0.292,0.363-0.438,0.541l0.151,0.159
					c0.153-0.187,0.307-0.375,0.457-0.564c0.276-0.346,0.504-0.723,0.663-1.138c0.155-0.407,0.211-0.83,0.21-1.267
					C4.917,7.965,5.186,7.432,5.735,7.051c0.368-0.256,0.784-0.392,1.218-0.48C7.075,6.546,7.199,6.528,7.334,6.504 M6.529,12.426
					c-0.013,0.05-0.024,0.1-0.033,0.15c-0.054,0.282-0.062,0.571-0.017,0.871c0.026,0.174,0.058,0.347,0.099,0.516l0.22-0.019
					c-0.041-0.168-0.075-0.343-0.103-0.529c-0.042-0.285-0.034-0.562,0.024-0.839c0.01-0.046,0.021-0.092,0.034-0.139"/>
			</g>
		</g>
		<g>
			<path d="M6.708,14.461c-0.18,0-0.327-0.147-0.327-0.327s0.147-0.327,0.327-0.327s0.327,0.147,0.327,0.327
				S6.889,14.461,6.708,14.461z M6.708,13.971c-0.09,0-0.163,0.073-0.163,0.163c0,0.09,0.073,0.163,0.163,0.163
				s0.163-0.073,0.163-0.163C6.872,14.044,6.798,13.971,6.708,13.971z"/>
		</g>
		<g>
			<path d="M2.515,10.258c-0.18,0-0.327-0.147-0.327-0.327c0-0.18,0.147-0.327,0.327-0.327s0.327,0.147,0.327,0.327
				C2.842,10.112,2.695,10.258,2.515,10.258z M2.515,9.768c-0.09,0-0.163,0.073-0.163,0.163c0,0.09,0.073,0.163,0.163,0.163
				c0.09,0,0.163-0.073,0.163-0.163C2.678,9.841,2.605,9.768,2.515,9.768z"/>
		</g>
		<g>
			<path d="M2.376,13.696c-0.18,0-0.327-0.147-0.327-0.327c0-0.18,0.147-0.327,0.327-0.327s0.327,0.147,0.327,0.327
				C2.703,13.549,2.556,13.696,2.376,13.696z M2.376,13.206c-0.09,0-0.163,0.073-0.163,0.163c0,0.09,0.073,0.163,0.163,0.163
				c0.09,0,0.163-0.073,0.163-0.163C2.539,13.279,2.466,13.206,2.376,13.206z"/>
		</g>
		<g>
			<path d="M4.758,14.388c-0.18,0-0.327-0.147-0.327-0.327c0-0.18,0.147-0.327,0.327-0.327s0.327,0.147,0.327,0.327
				C5.084,14.242,4.938,14.388,4.758,14.388z M4.758,13.898c-0.09,0-0.163,0.073-0.163,0.163c0,0.09,0.073,0.163,0.163,0.163
				c0.09,0,0.163-0.073,0.163-0.163C4.921,13.971,4.848,13.898,4.758,13.898z"/>
		</g>
		<g>
			<path d="M1.916,12.176c-0.18,0-0.327-0.147-0.327-0.327c0-0.18,0.147-0.327,0.327-0.327s0.327,0.147,0.327,0.327
				C2.243,12.029,2.096,12.176,1.916,12.176z M1.916,11.686c-0.09,0-0.163,0.073-0.163,0.163s0.073,0.163,0.163,0.163
				c0.09,0,0.163-0.073,0.163-0.163C2.079,11.759,2.006,11.686,1.916,11.686z"/>
		</g>
		<g>
			<path d="M6.999,15.013c-0.114,0-0.207-0.093-0.207-0.207s0.093-0.207,0.207-0.207s0.207,0.093,0.207,0.207
				S7.113,15.013,6.999,15.013z M6.999,14.735c-0.039,0-0.071,0.032-0.071,0.071s0.032,0.071,0.071,0.071s0.071-0.032,0.071-0.071
				S7.038,14.735,6.999,14.735z"/>
		</g>
		<g>
			<path d="M5.864,14.932c-0.114,0-0.207-0.093-0.207-0.207c0-0.114,0.093-0.207,0.207-0.207c0.114,0,0.207,0.093,0.207,0.207
				C6.071,14.84,5.978,14.932,5.864,14.932z M5.864,14.655c-0.039,0-0.071,0.032-0.071,0.071s0.032,0.071,0.071,0.071
				s0.071-0.032,0.071-0.071S5.903,14.655,5.864,14.655z"/>
		</g>
		<g>
			<path d="M7.208,15.589c-0.131,0-0.238-0.107-0.238-0.238c0-0.131,0.107-0.238,0.238-0.238s0.238,0.107,0.238,0.238
				C7.446,15.482,7.339,15.589,7.208,15.589z M7.208,15.249c-0.056,0-0.102,0.046-0.102,0.102s0.046,0.102,0.102,0.102
				s0.102-0.046,0.102-0.102S7.264,15.249,7.208,15.249z"/>
		</g>
		<g>
			<path d="M1.009,9.114c-0.131,0-0.238-0.107-0.238-0.238s0.107-0.238,0.238-0.238c0.131,0,0.238,0.107,0.238,0.238
				S1.14,9.114,1.009,9.114z M1.009,8.774c-0.056,0-0.102,0.046-0.102,0.102c0,0.056,0.046,0.102,0.102,0.102
				s0.102-0.046,0.102-0.102C1.111,8.82,1.065,8.774,1.009,8.774z"/>
		</g>
		<g>
			<path d="M2.654,11.881c-0.131,0-0.238-0.107-0.238-0.238c0-0.131,0.107-0.238,0.238-0.238c0.131,0,0.238,0.107,0.238,0.238
				C2.892,11.774,2.785,11.881,2.654,11.881z M2.654,11.541c-0.056,0-0.102,0.046-0.102,0.102c0,0.056,0.046,0.102,0.102,0.102
				s0.102-0.046,0.102-0.102S2.71,11.541,2.654,11.541z"/>
		</g>
		<g>
			<path d="M2.823,12.755c-0.131,0-0.238-0.107-0.238-0.238c0-0.131,0.107-0.238,0.238-0.238c0.131,0,0.238,0.107,0.238,0.238
				C3.062,12.648,2.955,12.755,2.823,12.755z M2.823,12.415c-0.056,0-0.102,0.046-0.102,0.102s0.046,0.102,0.102,0.102
				s0.102-0.046,0.102-0.102S2.88,12.415,2.823,12.415z"/>
		</g>
		<g>
			<path d="M3.105,8.509c-0.131,0-0.238-0.107-0.238-0.238s0.107-0.238,0.238-0.238S3.343,8.14,3.343,8.271S3.236,8.509,3.105,8.509
				z M3.105,8.169c-0.056,0-0.102,0.046-0.102,0.102s0.046,0.102,0.102,0.102s0.102-0.046,0.102-0.102S3.161,8.169,3.105,8.169z"/>
		</g>
		<g>
			<path d="M1.702,8.371c-0.131,0-0.238-0.107-0.238-0.238c0-0.131,0.107-0.238,0.238-0.238c0.131,0,0.238,0.107,0.238,0.238
				C1.94,8.265,1.834,8.371,1.702,8.371z M1.702,8.031C1.646,8.031,1.6,8.077,1.6,8.133s0.046,0.102,0.102,0.102
				c0.056,0,0.102-0.046,0.102-0.102C1.804,8.077,1.759,8.031,1.702,8.031z"/>
		</g>
		<g>
			<path d="M5.764,15.589c-0.131,0-0.238-0.107-0.238-0.238c0-0.131,0.107-0.238,0.238-0.238s0.238,0.107,0.238,0.238
				C6.002,15.482,5.896,15.589,5.764,15.589z M5.764,15.249c-0.056,0-0.102,0.046-0.102,0.102s0.046,0.102,0.102,0.102
				c0.056,0,0.102-0.046,0.102-0.102S5.821,15.249,5.764,15.249z"/>
		</g>
		<g>
			<path d="M5.807,14.022c-0.131,0-0.238-0.107-0.238-0.238c0-0.131,0.107-0.238,0.238-0.238c0.131,0,0.238,0.107,0.238,0.238
				C6.045,13.915,5.938,14.022,5.807,14.022z M5.807,13.682c-0.056,0-0.102,0.046-0.102,0.102c0,0.056,0.046,0.102,0.102,0.102
				s0.102-0.046,0.102-0.102C5.909,13.728,5.863,13.682,5.807,13.682z"/>
		</g>
		<g>
			<path d="M3.314,13.852c-0.131,0-0.238-0.107-0.238-0.238c0-0.131,0.107-0.238,0.238-0.238s0.238,0.107,0.238,0.238
				C3.552,13.745,3.445,13.852,3.314,13.852z M3.314,13.512c-0.056,0-0.102,0.046-0.102,0.102s0.046,0.102,0.102,0.102
				c0.056,0,0.102-0.046,0.102-0.102S3.37,13.512,3.314,13.512z"/>
		</g>
		<g>
			<path d="M6.481,15.539c-0.089,0-0.161-0.072-0.161-0.161c0-0.089,0.072-0.161,0.161-0.161c0.089,0,0.161,0.072,0.161,0.161
				C6.642,15.467,6.57,15.539,6.481,15.539z M6.481,15.326c-0.029,0-0.052,0.023-0.052,0.052c0,0.029,0.023,0.052,0.052,0.052
				s0.052-0.023,0.052-0.052C6.533,15.349,6.51,15.326,6.481,15.326z"/>
		</g>
		<g>
			<path d="M4.92,15.539c-0.089,0-0.161-0.072-0.161-0.161c0-0.089,0.072-0.161,0.161-0.161s0.161,0.072,0.161,0.161
				C5.081,15.467,5.009,15.539,4.92,15.539z M4.92,15.326c-0.029,0-0.052,0.023-0.052,0.052c0,0.029,0.023,0.052,0.052,0.052
				c0.029,0,0.052-0.023,0.052-0.052S4.949,15.326,4.92,15.326z"/>
		</g>
		<g>
			<path d="M3.068,15.539c-0.089,0-0.161-0.072-0.161-0.161c0-0.089,0.072-0.161,0.161-0.161s0.161,0.072,0.161,0.161
				C3.229,15.467,3.157,15.539,3.068,15.539z M3.068,15.326c-0.029,0-0.052,0.023-0.052,0.052c0,0.029,0.023,0.052,0.052,0.052
				c0.029,0,0.052-0.023,0.052-0.052C3.12,15.349,3.097,15.326,3.068,15.326z"/>
		</g>
		<g>
			<path d="M1.285,12.144c-0.089,0-0.161-0.072-0.161-0.161c0-0.089,0.072-0.161,0.161-0.161s0.161,0.072,0.161,0.161
				C1.446,12.072,1.374,12.144,1.285,12.144z M1.285,11.931c-0.029,0-0.052,0.023-0.052,0.052c0,0.029,0.023,0.052,0.052,0.052
				c0.029,0,0.052-0.023,0.052-0.052C1.337,11.954,1.314,11.931,1.285,11.931z"/>
		</g>
		<g>
			<path d="M1.702,13.194c-0.089,0-0.161-0.072-0.161-0.161c0-0.089,0.072-0.161,0.161-0.161s0.161,0.072,0.161,0.161
				C1.863,13.122,1.791,13.194,1.702,13.194z M1.702,12.981c-0.029,0-0.052,0.023-0.052,0.052c0,0.029,0.023,0.052,0.052,0.052
				c0.029,0,0.052-0.023,0.052-0.052C1.754,13.004,1.731,12.981,1.702,12.981z"/>
		</g>
		<g>
			<path d="M3.456,11.725c-0.089,0-0.161-0.072-0.161-0.161c0-0.089,0.072-0.161,0.161-0.161s0.161,0.072,0.161,0.161
				C3.617,11.653,3.545,11.725,3.456,11.725z M3.456,11.512c-0.029,0-0.052,0.023-0.052,0.052c0,0.029,0.023,0.052,0.052,0.052
				c0.029,0,0.052-0.023,0.052-0.052C3.508,11.535,3.485,11.512,3.456,11.512z"/>
		</g>
		<g>
			<path d="M3.574,9.484c-0.089,0-0.161-0.072-0.161-0.161c0-0.089,0.072-0.161,0.161-0.161s0.161,0.072,0.161,0.161
				C3.735,9.412,3.663,9.484,3.574,9.484z M3.574,9.271c-0.029,0-0.052,0.023-0.052,0.052c0,0.029,0.023,0.052,0.052,0.052
				c0.029,0,0.052-0.023,0.052-0.052C3.626,9.295,3.603,9.271,3.574,9.271z"/>
		</g>
		<g>
			<path d="M1.777,8.804c-0.089,0-0.161-0.072-0.161-0.161c0-0.089,0.072-0.161,0.161-0.161s0.161,0.072,0.161,0.161
				C1.938,8.731,1.866,8.804,1.777,8.804z M1.777,8.591c-0.029,0-0.052,0.023-0.052,0.052c0,0.029,0.023,0.052,0.052,0.052
				c0.029,0,0.052-0.023,0.052-0.052C1.829,8.614,1.806,8.591,1.777,8.591z"/>
		</g>
		<g>
			<path d="M1.253,7.859c-0.089,0-0.161-0.072-0.161-0.161s0.072-0.161,0.161-0.161s0.161,0.072,0.161,0.161
				S1.342,7.859,1.253,7.859z M1.253,7.646c-0.029,0-0.052,0.023-0.052,0.052c0,0.029,0.023,0.052,0.052,0.052
				c0.029,0,0.052-0.023,0.052-0.052C1.305,7.669,1.282,7.646,1.253,7.646z"/>
		</g>
		<g>
			<path d="M2.742,15.21c-0.114,0-0.207-0.093-0.207-0.207c0-0.114,0.093-0.207,0.207-0.207c0.114,0,0.207,0.093,0.207,0.207
				C2.948,15.117,2.856,15.21,2.742,15.21z M2.742,14.932c-0.039,0-0.071,0.032-0.071,0.071s0.032,0.071,0.071,0.071
				s0.071-0.032,0.071-0.071S2.781,14.932,2.742,14.932z"/>
		</g>
		<g>
			<path d="M1.253,13.551c-0.114,0-0.207-0.093-0.207-0.207c0-0.114,0.093-0.207,0.207-0.207s0.207,0.093,0.207,0.207
				C1.46,13.459,1.367,13.551,1.253,13.551z M1.253,13.274c-0.039,0-0.071,0.032-0.071,0.071s0.032,0.071,0.071,0.071
				c0.039,0,0.071-0.032,0.071-0.071S1.292,13.274,1.253,13.274z"/>
		</g>
		<g>
			<path d="M4.105,13.207c-0.114,0-0.207-0.093-0.207-0.207c0-0.114,0.093-0.207,0.207-0.207c0.114,0,0.207,0.093,0.207,0.207
				C4.312,13.115,4.219,13.207,4.105,13.207z M4.105,12.93c-0.039,0-0.071,0.032-0.071,0.071s0.032,0.071,0.071,0.071
				s0.071-0.032,0.071-0.071S4.144,12.93,4.105,12.93z"/>
		</g>
		<g>
			<path d="M3.354,14.66c-0.114,0-0.207-0.093-0.207-0.207c0-0.114,0.093-0.207,0.207-0.207s0.207,0.093,0.207,0.207
				C3.561,14.568,3.468,14.66,3.354,14.66z M3.354,14.383c-0.039,0-0.071,0.032-0.071,0.071s0.032,0.071,0.071,0.071
				c0.039,0,0.071-0.032,0.071-0.071S3.393,14.383,3.354,14.383z"/>
		</g>
		<g>
			<path d="M2.131,12.893c-0.114,0-0.207-0.093-0.207-0.207c0-0.114,0.093-0.207,0.207-0.207c0.114,0,0.207,0.093,0.207,0.207
				C2.338,12.801,2.245,12.893,2.131,12.893z M2.131,12.616c-0.039,0-0.071,0.032-0.071,0.071c0,0.039,0.032,0.071,0.071,0.071
				s0.071-0.032,0.071-0.071C2.202,12.648,2.17,12.616,2.131,12.616z"/>
		</g>
		<g>
			<path d="M2.515,9.222c-0.114,0-0.207-0.093-0.207-0.207c0-0.114,0.093-0.207,0.207-0.207c0.114,0,0.207,0.093,0.207,0.207
				C2.722,9.129,2.629,9.222,2.515,9.222z M2.515,8.944c-0.039,0-0.071,0.032-0.071,0.071s0.032,0.071,0.071,0.071
				s0.071-0.032,0.071-0.071S2.554,8.944,2.515,8.944z"/>
		</g>
		<g>
			<path d="M2.376,7.937c-0.114,0-0.207-0.093-0.207-0.207c0-0.114,0.093-0.207,0.207-0.207c0.114,0,0.207,0.093,0.207,0.207
				C2.583,7.844,2.49,7.937,2.376,7.937z M2.376,7.66c-0.039,0-0.071,0.032-0.071,0.071c0,0.039,0.032,0.071,0.071,0.071
				S2.447,7.769,2.447,7.73C2.447,7.691,2.415,7.66,2.376,7.66z"/>
		</g>
		<g>
			<path d="M3.275,10.962c-0.114,0-0.207-0.093-0.207-0.207s0.093-0.207,0.207-0.207s0.207,0.093,0.207,0.207
				S3.389,10.962,3.275,10.962z M3.275,10.685c-0.039,0-0.071,0.032-0.071,0.071s0.032,0.071,0.071,0.071
				c0.039,0,0.071-0.032,0.071-0.071S3.314,10.685,3.275,10.685z"/>
		</g>
		<g>
			<path d="M1.916,11.101c-0.114,0-0.207-0.093-0.207-0.207s0.093-0.207,0.207-0.207s0.207,0.093,0.207,0.207
				S2.03,11.101,1.916,11.101z M1.916,10.824c-0.039,0-0.071,0.032-0.071,0.071s0.032,0.071,0.071,0.071s0.071-0.032,0.071-0.071
				C1.986,10.855,1.955,10.824,1.916,10.824z"/>
		</g>
		<g>
			<path d="M2.601,10.977c-0.114,0-0.207-0.093-0.207-0.207c0-0.114,0.093-0.207,0.207-0.207c0.114,0,0.207,0.093,0.207,0.207
				C2.808,10.884,2.715,10.977,2.601,10.977z M2.601,10.699c-0.039,0-0.071,0.032-0.071,0.071s0.032,0.071,0.071,0.071
				c0.039,0,0.071-0.032,0.071-0.071S2.64,10.699,2.601,10.699z"/>
		</g>
		<g>
			<path d="M3.025,9.499c-0.114,0-0.207-0.093-0.207-0.207c0-0.114,0.093-0.207,0.207-0.207s0.207,0.093,0.207,0.207
				C3.232,9.406,3.139,9.499,3.025,9.499z M3.025,9.222c-0.039,0-0.071,0.032-0.071,0.071c0,0.039,0.032,0.071,0.071,0.071
				s0.071-0.032,0.071-0.071C3.096,9.253,3.064,9.222,3.025,9.222z"/>
		</g>
		<g>
			<path d="M0.518,8.509c-0.114,0-0.207-0.093-0.207-0.207c0-0.114,0.093-0.207,0.207-0.207s0.207,0.093,0.207,0.207
				C0.725,8.416,0.632,8.509,0.518,8.509z M0.518,8.232c-0.039,0-0.071,0.032-0.071,0.071c0,0.039,0.032,0.071,0.071,0.071
				c0.039,0,0.071-0.032,0.071-0.071C0.588,8.263,0.557,8.232,0.518,8.232z"/>
		</g>
		<g>
			<path d="M3.966,15.714c-0.18,0-0.327-0.147-0.327-0.327c0-0.18,0.147-0.327,0.327-0.327s0.327,0.147,0.327,0.327
				C4.293,15.567,4.146,15.714,3.966,15.714z M3.966,15.224c-0.09,0-0.163,0.073-0.163,0.163c0,0.09,0.073,0.163,0.163,0.163
				c0.09,0,0.163-0.073,0.163-0.163C4.129,15.297,4.056,15.224,3.966,15.224z"/>
		</g>
		<g>
			<path d="M1.947,14.618c-0.18,0-0.327-0.147-0.327-0.327c0-0.18,0.147-0.327,0.327-0.327s0.327,0.147,0.327,0.327
				C2.274,14.472,2.127,14.618,1.947,14.618z M1.947,14.128c-0.09,0-0.163,0.073-0.163,0.163c0,0.09,0.073,0.163,0.163,0.163
				c0.09,0,0.163-0.073,0.163-0.163C2.111,14.202,2.037,14.128,1.947,14.128z"/>
		</g>
		<g>
			<rect x="6.691" y="14.422" transform="matrix(-0.4026 -0.9154 0.9154 -0.4026 -3.6545 26.6768)" width="0.373" height="0.218"/>
		</g>
		<g>
			<rect x="6.987" y="14.969" transform="matrix(-0.3599 -0.933 0.933 -0.3599 -4.4146 27.1264)" width="0.222" height="0.218"/>
		</g>
		<g>
			<rect x="6.588" y="15.269" width="0.45" height="0.218"/>
		</g>
		<g>
			<rect x="5.859" y="14.953" transform="matrix(-0.6479 -0.7617 0.7617 -0.6479 -1.2634 29.5404)" width="0.673" height="0.218"/>
		</g>
		<g>
			<rect x="5.713" y="14.806" width="0.218" height="0.424"/>
		</g>
		<g>
			<rect x="5.202" y="15.08" transform="matrix(-0.048 -0.9988 0.9988 -0.048 -9.7805 21.4066)" width="0.218" height="0.568"/>
		</g>
		<g>
			<rect x="4.211" y="15.273" width="0.603" height="0.218"/>
		</g>
		<g>
			<rect x="3.175" y="15.28" transform="matrix(-0.999 -0.0447 0.0447 -0.999 6.165 30.9161)" width="0.507" height="0.218"/>
		</g>
		<g>
			<rect x="2.755" y="15.097" transform="matrix(-0.669 -0.7433 0.7433 -0.669 -6.4499 27.5387)" width="0.305" height="0.218"/>
		</g>
		<g>
			<rect x="2.046" y="14.576" transform="matrix(-0.7592 -0.6509 0.6509 -0.7592 -5.3359 27.3947)" width="0.709" height="0.218"/>
		</g>
		<g>
			<rect x="1.107" y="13.707" transform="matrix(-0.5631 -0.8264 0.8264 -0.5631 -9.0498 22.8482)" width="0.816" height="0.218"/>
		</g>
		<g>
			<rect x="1.144" y="12.06" width="0.218" height="1.146"/>
		</g>
		<g>
			<rect x="1.464" y="10.936" transform="matrix(-0.8652 -0.5015 0.5015 -0.8652 -2.8113 22.1565)" width="0.218" height="1.04"/>
		</g>
		<g>
			<rect x="2.09" y="10.086" transform="matrix(-0.8097 -0.5869 0.5869 -0.8097 -2.1615 20.2275)" width="0.218" height="0.756"/>
		</g>
		<g>
			<rect x="2.31" y="9.314" transform="matrix(-0.0644 -0.9979 0.9979 -0.0644 -6.6412 12.6198)" width="0.57" height="0.218"/>
		</g>
		<g>
			<rect x="1.828" y="8.668" transform="matrix(-0.9152 -0.403 0.403 -0.9152 0.601 17.6797)" width="0.664" height="0.218"/>
		</g>
		<g>
			<rect x="1.316" y="8.449" transform="matrix(-0.3449 -0.9386 0.9386 -0.3449 -6.2922 13.0979)" width="0.218" height="0.592"/>
		</g>
		<g>
			<rect x="0.428" y="8.504" transform="matrix(-0.6731 -0.7396 0.7396 -0.6731 -5.1964 14.9294)" width="0.546" height="0.218"/>
		</g>
		<g>
			<rect x="0.739" y="7.533" transform="matrix(-0.5995 -0.8004 0.8004 -0.5995 -5.0029 13.388)" width="0.218" height="0.826"/>
		</g>
		<g>
			<rect x="1.325" y="7.571" transform="matrix(-0.9993 -0.0379 0.0379 -0.9993 3.303 15.4233)" width="0.945" height="0.218"/>
		</g>
		<g>
			<rect x="2.432" y="7.839" transform="matrix(-0.8103 -0.586 0.586 -0.8103 0.3185 15.9987)" width="0.633" height="0.218"/>
		</g>
		<g>
			<rect x="2.923" y="8.69" transform="matrix(-0.3693 -0.9293 0.9293 -0.3693 -3.5233 15.2074)" width="0.952" height="0.218"/>
		</g>
		<g>
			<rect x="3.335" y="9.378" transform="matrix(-0.9794 -0.2019 0.2019 -0.9794 4.7932 20.5381)" width="0.218" height="1.293"/>
		</g>
		<g>
			<rect x="2.881" y="10.778" transform="matrix(-0.814 -0.5808 0.5808 -0.814 -1.0707 22.0172)" width="0.218" height="0.804"/>
		</g>
		<g>
			<rect x="2.274" y="11.715" transform="matrix(-0.8823 -0.4707 0.4707 -0.8823 -1.2466 24.0447)" width="0.218" height="0.926"/>
		</g>
		<g>
			<rect x="1.949" y="12.892" transform="matrix(-0.2861 -0.9582 0.9582 -0.2861 -9.6753 18.7927)" width="0.428" height="0.218"/>
		</g>
		<g>
			<rect x="2.479" y="12.558" transform="matrix(-0.912 -0.4101 0.4101 -0.912 -0.3346 25.6864)" width="0.218" height="0.642"/>
		</g>
		<g>
			<rect x="3.025" y="11.549" transform="matrix(-0.7944 -0.6074 0.6074 -0.7944 -1.6695 23.4513)" width="0.218" height="0.919"/>
		</g>
		<g>
			<rect x="5.198" y="13.528" transform="matrix(-0.2495 -0.9684 0.9684 -0.2495 -6.7996 22.4684)" width="0.218" height="0.681"/>
		</g>
		<g>
			<rect x="3.94" y="13.398" transform="matrix(-0.4773 -0.8788 0.8788 -0.4773 -5.4057 23.7985)" width="0.871" height="0.218"/>
		</g>
		<g>
			<rect x="3.093" y="12.143" transform="matrix(-0.4179 -0.9085 0.9085 -0.4179 -5.7948 20.7918)" width="1.342" height="0.218"/>
		</g>
		<g>
			<rect x="5.912" y="13.895" transform="matrix(-0.8045 -0.5939 0.5939 -0.8045 2.9207 28.9681)" width="0.631" height="0.218"/>
		</g>
		<g>
			<rect x="6.171" y="14.154" transform="matrix(-0.4314 -0.9022 0.9022 -0.4314 -4.0867 26.4129)" width="0.218" height="0.68"/>
		</g>
		<g>
			<rect x="6.571" y="14.792" transform="matrix(-0.7069 -0.7073 0.7073 -0.7069 0.7403 30.4525)" width="0.218" height="0.561"/>
		</g>
		<g>
			<rect x="5.997" y="14.691" transform="matrix(-0.9858 -0.1678 0.1678 -0.9858 10.3064 30.4706)" width="0.888" height="0.218"/>
		</g>
		<g>
			<rect x="4.863" y="14.364" transform="matrix(-0.8794 -0.4761 0.4761 -0.8794 3.1506 29.7443)" width="0.96" height="0.218"/>
		</g>
		<g>
			<rect x="5.443" y="13.84" transform="matrix(-0.818 -0.5752 0.5752 -0.818 1.9389 28.9685)" width="0.218" height="0.675"/>
		</g>
		<g>
			<rect x="4.363" y="14.661" transform="matrix(-0.1056 -0.9944 0.9944 -0.1056 -9.3066 21.1697)" width="1.008" height="0.218"/>
		</g>
		<g>
			<rect x="3.88" y="13.746" transform="matrix(-0.2279 -0.9737 0.9737 -0.2279 -9.0477 21.4699)" width="0.218" height="1.152"/>
		</g>
		<g>
			<rect x="4.277" y="14.207" transform="matrix(-0.8393 -0.5437 0.5437 -0.8393 0.0557 29.4892)" width="0.218" height="1.059"/>
		</g>
		<g>
			<rect x="2.913" y="14.438" transform="matrix(-0.6904 -0.7234 0.7234 -0.6904 -5.5532 27.0985)" width="0.218" height="0.599"/>
		</g>
		<g>
			<rect x="3.215" y="14.774" transform="matrix(-0.45 -0.893 0.893 -0.45 -8.0669 24.7984)" width="0.777" height="0.218"/>
		</g>
		<g>
			<rect x="2.544" y="13.332" transform="matrix(-0.4005 -0.9163 0.9163 -0.4005 -9.0228 21.8999)" width="0.218" height="1.139"/>
		</g>
		<g>
			<rect x="2.652" y="12.945" transform="matrix(-0.3997 -0.9166 0.9166 -0.3997 -7.658 21.0928)" width="0.851" height="0.218"/>
		</g>
		<g>
			<rect x="3.588" y="12.929" transform="matrix(-0.6436 -0.7654 0.7654 -0.6436 -4.0883 24.6577)" width="0.218" height="0.703"/>
		</g>
		<g>
			<rect x="3.396" y="13.751" transform="matrix(-0.9425 -0.3342 0.3342 -0.9425 3.0489 28.2447)" width="1.116" height="0.218"/>
		</g>
		<g>
			<rect x="2.01" y="13.498" transform="matrix(-0.9693 -0.2458 0.2458 -0.9693 0.7844 27.6726)" width="0.218" height="0.579"/>
		</g>
		<g>
			<rect x="1.414" y="13.013" transform="matrix(-0.5328 -0.8462 0.8462 -0.5328 -8.8245 21.5029)" width="0.218" height="0.348"/>
		</g>
		<g>
			<rect x="1.823" y="12.7" transform="matrix(-0.6317 -0.7752 0.7752 -0.6317 -6.8359 22.5206)" width="0.218" height="0.368"/>
		</g>
		<g>
			<rect x="1.045" y="12.394" transform="matrix(-0.3618 -0.9323 0.9323 -0.3618 -9.6079 18.429)" width="0.918" height="0.218"/>
		</g>
		<g>
			<rect x="1.585" y="11.197" transform="matrix(-0.1856 -0.9826 0.9826 -0.1856 -8.8682 15.2621)" width="0.611" height="0.218"/>
		</g>
		<g>
			<rect x="1.681" y="12.058" transform="matrix(-0.9942 -0.1079 0.1079 -0.9942 2.223 25.0603)" width="0.218" height="0.824"/>
		</g>
		<g>
			<rect x="2.356" y="11.084" transform="matrix(-0.1441 -0.9896 0.9896 -0.1441 -8.0529 15.42)" width="0.573" height="0.218"/>
		</g>
		<g>
			<rect x="2.166" y="10.844" transform="matrix(-0.8496 -0.5274 0.5274 -0.8496 -1.7385 22.0559)" width="0.218" height="0.864"/>
		</g>
		<g>
			<rect x="2.815" y="10.44" transform="matrix(-0.1725 -0.985 0.985 -0.1725 -7.0953 15.4071)" width="0.218" height="0.488"/>
		</g>
		<g>
			<rect x="2.352" y="10.286" transform="matrix(-0.0513 -0.9987 0.9987 -0.0513 -7.6594 13.5133)" width="0.474" height="0.218"/>
		</g>
		<g>
			<rect x="2.727" y="9.336" transform="matrix(-0.7646 -0.6445 0.6445 -0.7646 -1.1647 18.7203)" width="0.218" height="0.474"/>
		</g>
		<g>
			<rect x="2.956" y="8.439" transform="matrix(-0.9938 -0.1108 0.1108 -0.9938 5.1365 17.8796)" width="0.218" height="0.717"/>
		</g>
		<g>
			<rect x="2.64" y="8.975" transform="matrix(-0.9242 -0.3819 0.3819 -0.9242 1.9596 18.5573)" width="0.363" height="0.218"/>
		</g>
		<g>
			<rect x="1.868" y="8.093" transform="matrix(-0.9917 -0.1285 0.1285 -0.9917 3.7332 16.6452)" width="1.071" height="0.218"/>
		</g>
		<g>
			<rect x="0.986" y="7.772" transform="matrix(-0.1893 -0.9819 0.9819 -0.1893 -6.7675 10.8481)" width="0.218" height="0.892"/>
		</g>
		<g>
			<rect x="1.188" y="8.174" transform="matrix(-0.7099 -0.7043 0.7043 -0.7099 -3.7737 15.4615)" width="0.218" height="0.667"/>
		</g>
		<g>
			<rect x="2.201" y="8.465" transform="matrix(-0.0375 -0.9993 0.9993 -0.0375 -5.9702 11.3968)" width="0.605" height="0.218"/>
		</g>
		<g>
			<rect x="2.584" y="10.224" transform="matrix(-0.5942 -0.8043 0.8043 -0.5942 -3.5796 18.8604)" width="0.767" height="0.218"/>
		</g>
	</g>
	<g>
		<path d="M6.644,12.659c-0.011,0-0.021,0-0.029-0.001l0.023-0.217c0.125,0.013,0.8-0.158,1.055-0.389
			c0.264-0.239,0.346-0.345,0.482-0.521l0.011-0.015c0.04-0.051,0.048-0.075,0.053-0.088c0.033-0.092,0.104-0.094,0.151-0.095
			c0.024-0.001,0.061-0.002,0.122-0.008c0.103-0.01,0.233-0.042,0.265-0.143c0.025-0.079-0.013-0.167-0.034-0.19
			c-0.129-0.052-0.304,0.005-0.471,0.153c-0.562,0.604-1.34,0.457-1.373,0.451l0.042-0.214c0.007,0.001,0.697,0.129,1.175-0.389
			l0.007-0.007c0.235-0.21,0.501-0.282,0.711-0.192c0.109,0.045,0.188,0.23,0.165,0.39c-0.013,0.096-0.086,0.322-0.467,0.358
			c-0.047,0.004-0.083,0.006-0.108,0.007c-0.013,0.025-0.033,0.058-0.065,0.1l-0.011,0.014c-0.138,0.179-0.23,0.297-0.507,0.549
			C7.555,12.471,6.867,12.659,6.644,12.659z"/>
	</g>
</g>
</svg>
