<?xml version="1.0" encoding="utf-8"?>
<!-- Generator: Adobe Illustrator 18.0.0, SVG Export Plug-In . SVG Version: 6.00 Build 0)  -->
<!DOCTYPE svg PUBLIC "-//W3C//DTD SVG 1.1//EN" "http://www.w3.org/Graphics/SVG/1.1/DTD/svg11.dtd">
<svg version="1.1" id="Слой_1" xmlns="http://www.w3.org/2000/svg" xmlns:xlink="http://www.w3.org/1999/xlink" x="0px" y="0px"
	 viewBox="0 7.309 22 8.663" enable-background="new 0 7.309 22 8.663" xml:space="preserve">
<g>
	<g>
		<g>
			<path d="M0.255,9.676c-0.004-0.33-0.007-0.591-0.007-0.784c0.009-0.202,0.002-0.471-0.02-0.808
				C0.215,7.834,0.21,7.677,0.212,7.613c0-0.069,0.108-0.097,0.326-0.086C0.764,7.528,0.96,7.608,1.126,7.765
				c0.117,0.113,0.229,0.316,0.336,0.608c0.151,0.403,0.226,0.983,0.226,1.738c0,0.381-0.019,0.686-0.057,0.914
				c-0.08,0.503-0.223,0.886-0.429,1.15c-0.115,0.151-0.302,0.23-0.562,0.239c-0.219,0.009-0.347-0.008-0.382-0.05
				c-0.027-0.015-0.024-0.69,0.007-2.024C0.263,10.292,0.26,10.071,0.255,9.676z M0.401,8.879c0,0.073,0.008,0.224,0.023,0.452
				c0.004,0.215,0.009,0.424,0.013,0.628c0,0.106-0.012,0.535-0.037,1.286c-0.009,0.587,0.009,0.896,0.053,0.927
				c0.206,0.106,0.399,0.065,0.578-0.123c0.148-0.155,0.269-0.384,0.362-0.688c0.133-0.43,0.181-0.978,0.143-1.645
				C1.505,9.083,1.403,8.59,1.232,8.237C1.057,7.874,0.83,7.692,0.551,7.692C0.465,7.695,0.419,7.719,0.415,7.765L0.401,8.879z"/>
			<path d="M3.227,12.106c0.058-0.027,0.104-0.011,0.14,0.047c0.035,0.055,0.031,0.1-0.013,0.133
				c-0.133,0.095-0.284,0.14-0.452,0.133c-0.155-0.007-0.286-0.054-0.392-0.143c-0.168-0.142-0.25-0.431-0.246-0.867
				c0.004-0.481,0.013-0.847,0.027-1.1c0.018-0.392,0.144-0.624,0.379-0.695C2.883,9.549,3.054,9.561,3.18,9.65
				c0.066,0.049,0.131,0.137,0.193,0.266c0.047,0.104,0.061,0.257,0.043,0.459c-0.02,0.213-0.07,0.361-0.15,0.445
				c-0.069,0.073-0.189,0.124-0.362,0.153c-0.151,0.024-0.29,0.028-0.419,0.01c-0.038-0.007-0.056,0.01-0.056,0.05
				c0.007,0.656,0.075,1.024,0.206,1.103c0.12,0.075,0.241,0.099,0.366,0.07C3.03,12.199,3.105,12.165,3.227,12.106z M2.861,9.73
				c-0.069,0.004-0.14,0.034-0.213,0.09c-0.075,0.058-0.131,0.132-0.166,0.223c-0.029,0.071-0.047,0.312-0.053,0.724
				c0,0.044,0.021,0.068,0.063,0.07c0.348,0.007,0.567-0.048,0.658-0.163c0.08-0.1,0.115-0.243,0.106-0.429
				c-0.007-0.168-0.038-0.29-0.093-0.366C3.091,9.775,2.99,9.725,2.861,9.73z"/>
			<path d="M4.949,12.106c0.058-0.027,0.104-0.011,0.14,0.047c0.035,0.055,0.031,0.1-0.013,0.133
				c-0.133,0.095-0.284,0.14-0.452,0.133c-0.155-0.007-0.286-0.054-0.392-0.143c-0.168-0.142-0.25-0.431-0.246-0.867
				c0.004-0.481,0.013-0.847,0.027-1.1c0.018-0.392,0.144-0.624,0.379-0.695C4.605,9.549,4.776,9.561,4.902,9.65
				c0.066,0.049,0.131,0.137,0.193,0.266c0.047,0.104,0.061,0.257,0.043,0.459c-0.02,0.213-0.07,0.361-0.15,0.445
				c-0.069,0.073-0.189,0.124-0.362,0.153c-0.151,0.024-0.29,0.028-0.419,0.01c-0.038-0.007-0.056,0.01-0.056,0.05
				c0.007,0.656,0.075,1.024,0.206,1.103c0.12,0.075,0.241,0.099,0.366,0.07C4.752,12.199,4.827,12.165,4.949,12.106z M4.583,9.73
				c-0.069,0.004-0.14,0.034-0.213,0.09C4.295,9.877,4.24,9.951,4.205,10.042c-0.029,0.071-0.047,0.312-0.053,0.724
				c0,0.044,0.021,0.068,0.063,0.07c0.348,0.007,0.567-0.048,0.658-0.163c0.08-0.1,0.115-0.243,0.106-0.429
				c-0.007-0.168-0.038-0.29-0.093-0.366C4.813,9.775,4.712,9.725,4.583,9.73z"/>
			<path d="M6.91,10.132c0.077,0.217,0.108,0.549,0.093,0.997c-0.016,0.461-0.073,0.779-0.173,0.954
				c-0.14,0.246-0.319,0.364-0.538,0.356c-0.058-0.002-0.127-0.016-0.209-0.04c-0.062-0.018-0.096-0.022-0.103-0.013
				c-0.018,0.022-0.023,0.014-0.017,0.451c0.007,0.372,0.01,0.608,0.01,0.708c-0.007,0.115-0.049,0.171-0.126,0.166
				c-0.033-0.002-0.052-0.052-0.056-0.15c-0.002-0.02-0.003-0.068-0.003-0.143c0-0.064-0.002-0.115-0.007-0.153
				c-0.009-0.106-0.008-0.256,0.003-0.923C5.795,11.659,5.794,11,5.78,10.364c0-0.018,0.001-0.112,0.003-0.282
				c0.007-0.284,0.01-0.422,0.01-0.415c0.009-0.027,0.033-0.04,0.073-0.04C5.909,9.624,5.93,9.637,5.93,9.666
				c0,0.084,0.006,0.132,0.017,0.143c-0.002-0.004,0.08-0.052,0.246-0.143c0.066-0.038,0.144-0.055,0.233-0.053
				c0.093,0.002,0.17,0.029,0.229,0.08C6.752,9.775,6.837,9.921,6.91,10.132z M6.694,11.983c0.097-0.179,0.141-0.511,0.13-0.994
				c-0.011-0.43-0.045-0.718-0.103-0.864c-0.049-0.12-0.094-0.203-0.136-0.249c-0.055-0.06-0.13-0.09-0.223-0.09
				c-0.082,0-0.18,0.05-0.292,0.15C6.054,9.958,6.037,9.977,6.02,9.992c-0.031,0.046-0.047,0.095-0.047,0.146
				c-0.024,1.247-0.027,1.908-0.007,1.981c0.013,0.051,0.045,0.085,0.096,0.103C6.344,12.315,6.555,12.235,6.694,11.983z"/>
			<path d="M9.283,12.036c0.049,0.007,0.058,0.045,0.027,0.116c-0.031,0.069-0.081,0.131-0.15,0.186
				c-0.093,0.073-0.202,0.095-0.326,0.066c-0.146-0.035-0.242-0.153-0.286-0.352c-0.075-0.335-0.082-1.399-0.02-3.194
				C8.531,8.766,8.53,8.604,8.525,8.374c-0.002-0.206-0.002-0.327,0-0.362C8.53,7.956,8.558,7.938,8.612,7.958
				c0.051,0.018,0.078,0.059,0.08,0.123c0,0.031-0.006,0.304-0.017,0.818c-0.013,0.51-0.018,0.819-0.013,0.927
				c0,0.047-0.002,0.198-0.007,0.455c-0.007,0.312-0.01,0.558-0.01,0.738c-0.002,0.674,0.028,1.058,0.09,1.153
				c0.04,0.06,0.078,0.095,0.113,0.106c0.042,0.011,0.101-0.003,0.176-0.043c0.029-0.015,0.074-0.056,0.136-0.123
				C9.211,12.057,9.252,12.032,9.283,12.036z"/>
			<path d="M10.696,12.106c0.058-0.027,0.104-0.011,0.14,0.047c0.035,0.055,0.031,0.1-0.013,0.133
				c-0.133,0.095-0.284,0.14-0.452,0.133c-0.155-0.007-0.286-0.054-0.392-0.143c-0.168-0.142-0.25-0.431-0.246-0.867
				c0.004-0.481,0.013-0.847,0.027-1.1c0.018-0.392,0.144-0.624,0.379-0.695c0.215-0.064,0.386-0.052,0.512,0.037
				c0.066,0.049,0.131,0.137,0.193,0.266c0.047,0.104,0.061,0.257,0.043,0.459c-0.02,0.213-0.07,0.361-0.15,0.445
				c-0.069,0.073-0.189,0.124-0.362,0.153c-0.151,0.024-0.29,0.028-0.419,0.01c-0.038-0.007-0.056,0.01-0.056,0.05
				c0.007,0.656,0.075,1.024,0.206,1.103c0.12,0.075,0.241,0.099,0.366,0.07C10.499,12.199,10.574,12.165,10.696,12.106z
				 M10.33,9.73c-0.069,0.004-0.14,0.034-0.213,0.09c-0.075,0.058-0.131,0.132-0.166,0.223c-0.029,0.071-0.047,0.312-0.053,0.724
				c0,0.044,0.021,0.068,0.063,0.07c0.348,0.007,0.567-0.048,0.658-0.163c0.08-0.1,0.115-0.243,0.106-0.429
				c-0.007-0.168-0.038-0.29-0.093-0.366C10.56,9.775,10.459,9.725,10.33,9.73z"/>
			<path d="M12.91,12.278c0.027-0.018,0.05-0.01,0.07,0.023c0.018,0.027,0.024,0.048,0.02,0.063
				c-0.009,0.033-0.044,0.051-0.106,0.053c-0.062,0.002-0.109-0.011-0.14-0.04c-0.055-0.053-0.099-0.081-0.13-0.083
				c-0.013-0.002-0.047,0.009-0.1,0.033c-0.064,0.031-0.147,0.052-0.249,0.063c-0.248,0.024-0.424-0.034-0.528-0.176
				c-0.126-0.173-0.196-0.442-0.209-0.808c-0.016-0.472-0.011-0.841,0.013-1.107c0.029-0.319,0.153-0.544,0.372-0.675
				c0.071-0.042,0.168-0.062,0.292-0.06c0.173,0.002,0.312,0.064,0.419,0.186c0.013,0.013,0.019-0.002,0.017-0.047
				c0-0.013,0-0.034,0-0.063c-0.002-0.027-0.003-0.044-0.003-0.053c0-0.027,0.025-0.037,0.076-0.03
				c0.049,0.007,0.077,0.023,0.086,0.05c-0.007-0.02-0.007,0.12,0,0.419c0.015,0.405,0.022,0.649,0.02,0.731
				c0,0.047-0.001,0.196-0.003,0.449c-0.002,0.242-0.004,0.414-0.007,0.518c0,0.02,0,0.062,0,0.126c0,0.064-0.001,0.113-0.003,0.146
				c-0.002,0.047-0.003,0.1-0.003,0.16c0,0.058,0.009,0.095,0.027,0.113C12.86,12.292,12.883,12.294,12.91,12.278z M12.644,12.072
				c0.024-0.04,0.037-0.428,0.037-1.163c0-0.58-0.052-0.924-0.156-1.03c-0.098-0.104-0.216-0.155-0.356-0.153
				c-0.117,0-0.219,0.061-0.306,0.183c-0.084,0.117-0.136,0.261-0.156,0.432c-0.024,0.23-0.027,0.535-0.007,0.914
				c0.024,0.456,0.08,0.737,0.166,0.841c0.089,0.109,0.234,0.15,0.435,0.123C12.486,12.197,12.6,12.148,12.644,12.072z"/>
			<path d="M13.628,10.065c0-0.024-0.002-0.102-0.007-0.233c-0.004-0.111-0.004-0.172,0-0.183c0.009-0.024,0.035-0.038,0.08-0.04
				c0.044-0.004,0.066,0.008,0.066,0.037c-0.002,0.047-0.002,0.094,0,0.143c0,0.04,0.012,0.062,0.037,0.066
				c0.166-0.148,0.308-0.228,0.425-0.239c0.239-0.024,0.423,0.028,0.552,0.156c0.049,0.051,0.049,0.09,0,0.116
				c-0.049,0.027-0.097,0.018-0.146-0.027c-0.084-0.073-0.193-0.105-0.326-0.096c-0.166,0.009-0.299,0.078-0.399,0.206
				c-0.058,0.073-0.101,0.255-0.13,0.545c-0.029,0.31-0.019,0.904,0.03,1.781c0,0.035-0.008,0.068-0.023,0.096
				c-0.018,0.029-0.039,0.043-0.063,0.043c-0.051,0-0.083-0.032-0.096-0.096c-0.013-0.051-0.017-0.227-0.01-0.528
				c0.002-0.14,0.003-0.544,0.003-1.213C13.619,10.5,13.622,10.322,13.628,10.065z"/>
			<path d="M15.297,10.042c0.007-0.281,0.007-0.415,0-0.402c0.009-0.024,0.039-0.041,0.09-0.05c0.051-0.007,0.076,0.004,0.076,0.033
				c0,0.009-0.001,0.027-0.003,0.053c-0.002,0.027-0.003,0.047-0.003,0.06c0,0.047,0.006,0.063,0.017,0.05
				c0.111-0.131,0.268-0.196,0.472-0.196c0.275,0,0.469,0.061,0.582,0.183c0.042,0.047,0.083,0.217,0.123,0.512
				c0.027,0.195,0.037,0.772,0.03,1.731c0,0.027,0.002,0.075,0.007,0.146c0.004,0.071,0.007,0.118,0.007,0.143
				c0,0.035-0.012,0.063-0.037,0.083c-0.018,0.018-0.035,0.026-0.053,0.023c-0.062-0.004-0.096-0.043-0.103-0.116
				c0.002,0.022,0.003-0.086,0.003-0.326c0.004-0.669,0.002-1.062-0.007-1.18c-0.009-0.131-0.017-0.33-0.023-0.598
				c-0.002-0.153-0.037-0.261-0.103-0.326c-0.093-0.091-0.229-0.131-0.409-0.12c-0.177,0.011-0.299,0.058-0.366,0.14
				c-0.055,0.073-0.1,0.277-0.133,0.612c-0.029,0.31-0.019,0.904,0.03,1.781c0,0.035-0.008,0.068-0.023,0.096
				c-0.018,0.029-0.039,0.043-0.063,0.043c-0.051,0-0.083-0.032-0.096-0.096c-0.013-0.051-0.017-0.227-0.01-0.528
				c0.002-0.14,0.003-0.544,0.003-1.213C15.297,10.283,15.295,10.104,15.297,10.042z"/>
			<path d="M17.451,9.082c0.013-0.015,0.045-0.023,0.096-0.023c0.049,0,0.083,0.014,0.103,0.043
				c0.022,0.033,0.033,0.068,0.033,0.103c0,0.091-0.044,0.135-0.133,0.133c-0.049,0-0.088-0.015-0.116-0.047
				c-0.027-0.027-0.039-0.056-0.037-0.09C17.4,9.155,17.418,9.115,17.451,9.082z M17.495,11.311
				c-0.002,0.226-0.001,0.391,0.003,0.495c0.004,0.224,0.013,0.408,0.027,0.552c0.002,0.053,0.025,0.071,0.07,0.053
				c0.049-0.022,0.071-0.064,0.066-0.126c-0.002-0.089-0.002-0.261,0-0.518c0-0.332,0.006-0.618,0.017-0.857
				c0.011-0.213,0.01-0.425-0.003-0.638c-0.013-0.217-0.019-0.346-0.017-0.386c0.002-0.1-0.018-0.175-0.06-0.226
				c-0.042-0.047-0.078-0.052-0.106-0.017c-0.004,0.004-0.003,0.384,0.003,1.14C17.497,10.867,17.497,11.043,17.495,11.311z"/>
			<path d="M18.402,10.042c0.007-0.281,0.007-0.415,0-0.402c0.009-0.024,0.039-0.041,0.09-0.05c0.051-0.007,0.076,0.004,0.076,0.033
				c0,0.009-0.001,0.027-0.003,0.053c-0.002,0.027-0.003,0.047-0.003,0.06c0,0.047,0.006,0.063,0.017,0.05
				c0.111-0.131,0.268-0.196,0.472-0.196c0.275,0,0.469,0.061,0.582,0.183c0.042,0.047,0.083,0.217,0.123,0.512
				c0.027,0.195,0.037,0.772,0.03,1.731c0,0.027,0.002,0.075,0.007,0.146c0.004,0.071,0.007,0.118,0.007,0.143
				c0,0.035-0.012,0.063-0.037,0.083c-0.018,0.018-0.035,0.026-0.053,0.023c-0.062-0.004-0.096-0.043-0.103-0.116
				c0.002,0.022,0.003-0.086,0.003-0.326c0.004-0.669,0.002-1.062-0.007-1.18c-0.009-0.131-0.017-0.33-0.023-0.598
				c-0.002-0.153-0.037-0.261-0.103-0.326c-0.093-0.091-0.229-0.131-0.409-0.12c-0.177,0.011-0.299,0.058-0.366,0.14
				c-0.055,0.073-0.1,0.277-0.133,0.612c-0.029,0.31-0.019,0.904,0.03,1.781c0,0.035-0.008,0.068-0.023,0.096
				c-0.018,0.029-0.039,0.043-0.063,0.043c-0.051,0-0.083-0.032-0.096-0.096c-0.013-0.051-0.017-0.227-0.01-0.528
				c0.002-0.14,0.003-0.544,0.003-1.213C18.402,10.283,18.4,10.104,18.402,10.042z"/>
			<path d="M21.76,10.288c0.044,0.844,0.043,1.564-0.003,2.16c-0.049,0.627-0.129,0.99-0.239,1.09
				c-0.1,0.091-0.232,0.136-0.395,0.136c-0.151,0-0.29-0.047-0.419-0.14c-0.047-0.033-0.055-0.072-0.027-0.116
				c0.027-0.044,0.069-0.053,0.126-0.027l0.093,0.053c0.049,0.029,0.093,0.049,0.133,0.06c0.12,0.04,0.224,0.03,0.312-0.03
				c0.111-0.066,0.184-0.266,0.219-0.598c0.029-0.286,0.032-0.458,0.01-0.515c-0.009-0.011-0.021-0.011-0.037,0
				c-0.007,0.004-0.018,0.011-0.033,0.02c-0.024,0.013-0.043,0.023-0.056,0.03c-0.086,0.042-0.196,0.051-0.329,0.027
				c-0.197-0.04-0.353-0.165-0.469-0.376c-0.089-0.164-0.135-0.483-0.14-0.957c-0.004-0.43,0.021-0.739,0.076-0.927
				c0.075-0.266,0.166-0.429,0.272-0.489c0.124-0.069,0.308-0.066,0.552,0.007c0.131,0.04,0.218,0.096,0.263,0.17
				c0.049,0.078,0.073,0.116,0.073,0.116S21.749,10.084,21.76,10.288z M21.477,12.219c0.035-0.02,0.077-0.058,0.126-0.113
				c0.029-0.031,0.043-0.258,0.043-0.681c0-0.476-0.024-0.911-0.073-1.303c-0.013-0.091-0.062-0.164-0.146-0.219
				c-0.073-0.047-0.156-0.071-0.249-0.073c-0.184-0.007-0.317,0.094-0.399,0.302c-0.058,0.149-0.094,0.431-0.11,0.847
				c-0.018,0.479,0.022,0.806,0.12,0.984c0.108,0.199,0.243,0.307,0.402,0.322C21.289,12.296,21.384,12.274,21.477,12.219z"/>
		</g>
		<path fill="#0681FA" d="M0.758,14.047c0.027,0,0.04,0.041,0.039,0.123c0,0.019,0.002,0.071,0.005,0.156
			c0.003,0.09,0.005,0.147,0.005,0.17c0.001,0.113,0.005,0.265,0.01,0.457c0.003,0.11,0.005,0.275,0.005,0.497
			c0,0.03-0.002,0.047-0.007,0.053c-0.016,0.019-0.029,0.029-0.038,0.029c-0.032,0-0.048-0.023-0.048-0.07
			c0.008-0.418,0.006-0.646-0.007-0.683c-0.006-0.017-0.055-0.024-0.147-0.021c-0.164,0-0.251,0.009-0.259,0.026
			c-0.011,0.026-0.018,0.12-0.021,0.281c-0.001,0.051-0.001,0.126,0.002,0.224c0.003,0.108,0.005,0.173,0.005,0.194
			c0,0.033-0.011,0.05-0.033,0.05c-0.027,0-0.045-0.013-0.053-0.038c0,0.002-0.002-0.072-0.007-0.224
			c-0.002-0.045-0.003-0.082-0.002-0.113c0.001-0.042,0.002-0.085,0.002-0.129c-0.006-0.5-0.005-0.808,0.002-0.925
			c0.001-0.034,0.014-0.052,0.039-0.055c0.025-0.003,0.039,0.01,0.041,0.041c0.002,0.058,0.003,0.132,0.003,0.221
			c-0.017,0.226-0.014,0.348,0.01,0.367c0.021,0.015,0.09,0.023,0.209,0.026c0.122,0.002,0.191-0.007,0.206-0.027
			c0.015-0.019,0.015-0.214,0-0.582C0.722,14.062,0.734,14.047,0.758,14.047z"/>
		<path fill="#0681FA" d="M1.904,15.46c0.014-0.009,0.026-0.005,0.036,0.012c0.009,0.014,0.013,0.025,0.01,0.033
			c-0.005,0.017-0.023,0.026-0.055,0.027c-0.032,0.001-0.056-0.006-0.072-0.021c-0.029-0.027-0.051-0.042-0.067-0.043
			c-0.007-0.001-0.024,0.005-0.051,0.017c-0.033,0.016-0.076,0.027-0.129,0.033c-0.128,0.013-0.219-0.018-0.272-0.091
			C1.24,15.338,1.204,15.2,1.197,15.011c-0.008-0.243-0.006-0.433,0.007-0.57c0.015-0.164,0.079-0.28,0.192-0.348
			c0.037-0.022,0.087-0.032,0.151-0.031c0.089,0.001,0.161,0.033,0.216,0.096c0.007,0.007,0.01-0.001,0.009-0.024
			c0-0.007,0-0.018,0-0.033c-0.001-0.014-0.002-0.023-0.002-0.027c0-0.014,0.013-0.019,0.039-0.015
			c0.025,0.003,0.04,0.012,0.045,0.026c-0.003-0.01-0.003,0.062,0,0.216c0.008,0.209,0.011,0.335,0.01,0.377
			c0,0.024-0.001,0.101-0.002,0.231c-0.001,0.125-0.002,0.214-0.003,0.267c0,0.01,0,0.032,0,0.065c0,0.033-0.001,0.058-0.002,0.075
			c-0.001,0.024-0.002,0.051-0.002,0.082c0,0.03,0.005,0.049,0.014,0.058C1.879,15.467,1.891,15.468,1.904,15.46z M1.767,15.354
			c0.013-0.021,0.019-0.22,0.019-0.599c0-0.299-0.027-0.476-0.08-0.531c-0.05-0.054-0.111-0.08-0.183-0.079
			c-0.061,0-0.113,0.031-0.158,0.094c-0.043,0.061-0.07,0.135-0.08,0.223c-0.013,0.119-0.014,0.276-0.003,0.471
			c0.013,0.235,0.041,0.38,0.086,0.433c0.046,0.056,0.12,0.077,0.224,0.063C1.686,15.418,1.744,15.393,1.767,15.354z"/>
		<path fill="#0681FA" d="M2.869,14.307c0.003-0.145,0.003-0.214,0-0.207c0.005-0.013,0.02-0.021,0.046-0.026
			c0.026-0.003,0.039,0.002,0.039,0.017c0,0.005-0.001,0.014-0.002,0.027c-0.001,0.014-0.002,0.024-0.002,0.031
			c0,0.024,0.003,0.033,0.009,0.026c0.057-0.067,0.138-0.101,0.243-0.101c0.142,0,0.242,0.031,0.3,0.094
			c0.022,0.024,0.043,0.112,0.063,0.264c0.014,0.1,0.019,0.398,0.015,0.892c0,0.014,0.001,0.039,0.003,0.075
			c0.002,0.037,0.003,0.061,0.003,0.074c0,0.018-0.006,0.033-0.019,0.043c-0.009,0.009-0.018,0.013-0.027,0.012
			c-0.032-0.002-0.05-0.022-0.053-0.06c0.001,0.011,0.002-0.045,0.002-0.168c0.002-0.345,0.001-0.548-0.003-0.608
			c-0.005-0.067-0.009-0.17-0.012-0.308c-0.001-0.079-0.019-0.135-0.053-0.168c-0.048-0.047-0.118-0.067-0.211-0.062
			c-0.091,0.006-0.154,0.03-0.188,0.072c-0.029,0.038-0.051,0.143-0.068,0.315c-0.015,0.16-0.01,0.466,0.015,0.918
			c0,0.018-0.004,0.035-0.012,0.05c-0.009,0.015-0.02,0.022-0.033,0.022c-0.026,0-0.043-0.017-0.05-0.05
			c-0.007-0.026-0.009-0.117-0.005-0.272c0.001-0.072,0.002-0.28,0.002-0.625C2.869,14.432,2.868,14.339,2.869,14.307z"/>
		<path fill="#0681FA" d="M4.67,15.46c0.014-0.009,0.026-0.005,0.036,0.012c0.009,0.014,0.013,0.025,0.01,0.033
			c-0.005,0.017-0.023,0.026-0.055,0.027c-0.032,0.001-0.056-0.006-0.072-0.021c-0.029-0.027-0.051-0.042-0.067-0.043
			c-0.007-0.001-0.024,0.005-0.051,0.017c-0.033,0.016-0.076,0.027-0.129,0.033c-0.128,0.013-0.219-0.018-0.272-0.091
			c-0.065-0.089-0.101-0.228-0.108-0.416c-0.008-0.243-0.006-0.433,0.007-0.57c0.015-0.164,0.079-0.28,0.192-0.348
			c0.037-0.022,0.087-0.032,0.151-0.031c0.089,0.001,0.161,0.033,0.216,0.096c0.007,0.007,0.01-0.001,0.009-0.024
			c0-0.007,0-0.018,0-0.033c-0.001-0.014-0.002-0.023-0.002-0.027c0-0.014,0.013-0.019,0.039-0.015
			c0.025,0.003,0.04,0.012,0.045,0.026c-0.003-0.01-0.003,0.062,0,0.216c0.008,0.209,0.011,0.335,0.01,0.377
			c0,0.024-0.001,0.101-0.002,0.231c-0.001,0.125-0.002,0.214-0.003,0.267c0,0.01,0,0.032,0,0.065c0,0.033-0.001,0.058-0.002,0.075
			C4.621,15.34,4.62,15.368,4.62,15.398c0,0.03,0.005,0.049,0.014,0.058C4.644,15.467,4.656,15.468,4.67,15.46z M4.533,15.354
			c0.013-0.021,0.019-0.22,0.019-0.599c0-0.299-0.027-0.476-0.08-0.531c-0.05-0.054-0.111-0.08-0.183-0.079
			c-0.061,0-0.113,0.031-0.158,0.094c-0.043,0.061-0.07,0.135-0.08,0.223c-0.013,0.119-0.014,0.276-0.003,0.471
			c0.013,0.235,0.041,0.38,0.086,0.433c0.046,0.056,0.12,0.077,0.224,0.063C4.451,15.418,4.51,15.393,4.533,15.354z"/>
		<path fill="#0681FA" d="M5.165,14.153c0.037-0.049,0.092-0.078,0.168-0.086c0.163-0.016,0.258-0.007,0.284,0.027
			c0.016,0.021,0.024,0.083,0.024,0.187c0,0.12,0.001,0.219,0.002,0.296c0.011,0.428,0.017,0.704,0.015,0.827v0.086
			c0,0.011-0.005,0.022-0.015,0.031c-0.009,0.007-0.017,0.01-0.022,0.01c-0.022-0.001-0.035-0.014-0.041-0.038
			c-0.005-0.017-0.007-0.052-0.007-0.106c-0.002-0.578-0.005-0.881-0.009-0.91c-0.002-0.023-0.005-0.09-0.009-0.202
			c-0.002-0.072-0.014-0.118-0.034-0.137c-0.014-0.014-0.073-0.017-0.176-0.009c-0.047,0.003-0.088,0.029-0.123,0.077
			c-0.019,0.026-0.031,0.104-0.036,0.235c-0.001,0.023,0,0.158,0.003,0.406c0.002,0.256,0.003,0.405,0.002,0.449
			c-0.001,0.099-0.025,0.162-0.07,0.188c-0.04,0.023-0.068,0.034-0.086,0.034c-0.038,0-0.049-0.01-0.033-0.031
			c0.005-0.006,0.015-0.014,0.033-0.026c0.017-0.011,0.03-0.022,0.039-0.033c0.034-0.034,0.05-0.09,0.048-0.166
			c-0.001-0.046-0.005-0.331-0.012-0.856C5.108,14.292,5.127,14.207,5.165,14.153z"/>
		<path fill="#0681FA" d="M6.475,14.701c0.074,0.064,0.113,0.174,0.116,0.331c0.003,0.164-0.022,0.279-0.077,0.343
			c-0.062,0.072-0.12,0.118-0.175,0.137c-0.032,0.013-0.108,0.019-0.23,0.019c-0.014,0-0.027,0-0.041,0
			c-0.014-0.001-0.023-0.008-0.027-0.021c-0.003-0.006-0.007-0.066-0.01-0.18c-0.001-0.04-0.003-0.385-0.007-1.036v-0.158
			c-0.001-0.035-0.001-0.062,0-0.079c0.002-0.013,0.015-0.019,0.039-0.019c0.019,0,0.03,0.015,0.031,0.046
			c0,0.008-0.001,0.023-0.002,0.046c-0.001,0.022-0.001,0.039,0,0.051c0,0.01,0.001,0.098,0.002,0.262
			c0,0.13,0.003,0.203,0.01,0.219c0.003,0.008,0.017,0.009,0.041,0.003l0.087-0.024c0.095-0.018,0.142-0.027,0.142-0.027
			S6.408,14.644,6.475,14.701z M6.504,14.989c-0.014-0.156-0.076-0.246-0.187-0.267c-0.072-0.014-0.135-0.005-0.19,0.027
			c-0.013,0.008-0.017,0.168-0.014,0.48c0.001,0.129,0.007,0.202,0.017,0.219c0.015,0.024,0.055,0.028,0.122,0.012
			c0.074-0.017,0.132-0.054,0.175-0.11C6.492,15.266,6.517,15.146,6.504,14.989z"/>
		<path fill="#0681FA" d="M7.626,15.299c0,0.005,0.001,0.084,0.002,0.238c0,0.137-0.001,0.208-0.003,0.212
			c-0.005,0.014-0.019,0.022-0.045,0.026C7.553,15.78,7.54,15.775,7.54,15.76c0-0.224-0.002-0.333-0.007-0.329
			c-0.057,0.067-0.138,0.101-0.243,0.101c-0.14,0-0.24-0.031-0.298-0.094c-0.022-0.024-0.043-0.112-0.063-0.264
			c-0.014-0.1-0.019-0.398-0.017-0.892c0.001-0.014,0.001-0.039-0.002-0.075c-0.002-0.038-0.003-0.063-0.003-0.075
			c0-0.017,0.006-0.031,0.017-0.041c0.01-0.009,0.019-0.013,0.027-0.012c0.033,0.002,0.051,0.022,0.055,0.06
			c-0.001-0.011-0.002,0.045-0.002,0.168c-0.002,0.344-0.001,0.546,0.003,0.608c0.005,0.067,0.008,0.17,0.01,0.308
			c0.002,0.079,0.02,0.135,0.053,0.168c0.049,0.047,0.12,0.067,0.212,0.062c0.091-0.006,0.154-0.03,0.187-0.074
			c0.03-0.037,0.052-0.141,0.068-0.313c0.015-0.153,0.01-0.459-0.014-0.918c-0.001-0.018,0.003-0.035,0.012-0.05
			c0.009-0.015,0.019-0.022,0.031-0.022c0.027,0,0.045,0.016,0.051,0.048c0.006,0.027,0.007,0.119,0.005,0.274
			c-0.001,0.072-0.002,0.28-0.003,0.624C7.625,15.174,7.627,15.267,7.626,15.299z"/>
		<path fill="#0681FA" d="M8.709,15.46c0.014-0.009,0.026-0.005,0.036,0.012c0.009,0.014,0.013,0.025,0.01,0.033
			C8.75,15.522,8.732,15.531,8.7,15.532c-0.032,0.001-0.056-0.006-0.072-0.021C8.6,15.484,8.577,15.47,8.562,15.469
			c-0.007-0.001-0.024,0.005-0.051,0.017c-0.033,0.016-0.076,0.027-0.129,0.033c-0.128,0.013-0.219-0.018-0.272-0.091
			c-0.065-0.089-0.101-0.228-0.108-0.416c-0.008-0.243-0.006-0.433,0.007-0.57c0.015-0.164,0.079-0.28,0.192-0.348
			c0.037-0.022,0.087-0.032,0.151-0.031c0.089,0.001,0.161,0.033,0.216,0.096c0.007,0.007,0.01-0.001,0.009-0.024
			c0-0.007,0-0.018,0-0.033c-0.001-0.014-0.002-0.023-0.002-0.027c0-0.014,0.013-0.019,0.039-0.015
			c0.025,0.003,0.04,0.012,0.045,0.026c-0.003-0.01-0.003,0.062,0,0.216c0.008,0.209,0.011,0.335,0.01,0.377
			c0,0.024-0.001,0.101-0.002,0.231c-0.001,0.125-0.002,0.214-0.003,0.267c0,0.01,0,0.032,0,0.065c0,0.033-0.001,0.058-0.002,0.075
			c-0.001,0.024-0.002,0.051-0.002,0.082c0,0.03,0.005,0.049,0.014,0.058C8.683,15.467,8.695,15.468,8.709,15.46z M8.572,15.354
			c0.013-0.021,0.019-0.22,0.019-0.599c0-0.299-0.027-0.476-0.08-0.531c-0.05-0.054-0.111-0.08-0.183-0.079
			c-0.061,0-0.113,0.031-0.158,0.094c-0.043,0.061-0.07,0.135-0.08,0.223c-0.013,0.119-0.014,0.276-0.003,0.471
			c0.013,0.235,0.041,0.38,0.086,0.433c0.046,0.056,0.121,0.077,0.224,0.063C8.49,15.418,8.549,15.393,8.572,15.354z"/>
		<path fill="#0681FA" d="M9.807,15.431c0.016,0.03,0.012,0.055-0.012,0.075c-0.023,0.021-0.043,0.019-0.06-0.005
			c-0.051-0.074-0.111-0.168-0.18-0.281c-0.015-0.024-0.042-0.079-0.08-0.166c-0.033-0.072-0.054-0.111-0.063-0.116
			c-0.01-0.007-0.061,0.086-0.151,0.277c-0.064,0.137-0.117,0.236-0.159,0.298c-0.016,0.023-0.034,0.025-0.053,0.005
			c-0.021-0.021-0.026-0.047-0.015-0.079c0.01-0.034,0.066-0.144,0.168-0.331c0.097-0.178,0.146-0.272,0.146-0.281
			c0-0.03-0.007-0.058-0.022-0.084c-0.194-0.329-0.285-0.53-0.272-0.605c0.005-0.024,0.022-0.031,0.051-0.021
			c0.033,0.011,0.062,0.04,0.086,0.086c0.013,0.024,0.051,0.118,0.116,0.281c0.057,0.143,0.09,0.215,0.098,0.216
			c0.008,0,0.042-0.073,0.103-0.219c0.07-0.17,0.11-0.266,0.122-0.288c0.024-0.046,0.052-0.074,0.084-0.086
			c0.031-0.011,0.048-0.005,0.051,0.019c0.014,0.079-0.076,0.283-0.269,0.612c-0.026,0.043-0.039,0.073-0.038,0.089
			c0,0.009,0.055,0.106,0.164,0.289C9.743,15.323,9.805,15.428,9.807,15.431z"/>
	</g>
</g>
</svg>
