<?xml version="1.0" encoding="utf-8"?>
<!-- Generator: Adobe Illustrator 17.1.0, SVG Export Plug-In . SVG Version: 6.00 Build 0)  -->
<!DOCTYPE svg PUBLIC "-//W3C//DTD SVG 1.1//EN" "http://www.w3.org/Graphics/SVG/1.1/DTD/svg11.dtd">
<svg version="1.1" id="Слой_1" xmlns="http://www.w3.org/2000/svg" xmlns:xlink="http://www.w3.org/1999/xlink" x="0px" y="0px"
	 viewBox="0 0 487 224" enable-background="new 0 0 487 224" xml:space="preserve">
<g>
	<g>
		<g>
			<path d="M202.281,138.939c-0.058-4.29-0.086-7.687-0.086-10.193c0.114-2.62,0.028-6.118-0.259-10.495
				c-0.173-3.253-0.245-5.297-0.216-6.133c0-0.892,1.41-1.266,4.233-1.123c2.937,0.029,5.485,1.066,7.644,3.109
				c1.526,1.469,2.98,4.103,4.362,7.903c1.958,5.241,2.937,12.77,2.937,22.588c0,4.952-0.245,8.912-0.735,11.877
				c-1.036,6.536-2.893,11.517-5.571,14.943c-1.497,1.958-3.93,2.995-7.299,3.109c-2.851,0.115-4.506-0.1-4.967-0.648
				c-0.345-0.201-0.317-8.968,0.087-26.301C202.382,146.944,202.339,144.064,202.281,138.939z M204.182,128.573
				c0,0.95,0.1,2.908,0.302,5.874c0.058,2.793,0.115,5.514,0.173,8.163c0,1.382-0.158,6.953-0.475,16.714
				c-0.116,7.63,0.114,11.646,0.691,12.049c2.678,1.382,5.183,0.85,7.515-1.598c1.929-2.015,3.499-4.995,4.708-8.94
				c1.727-5.585,2.346-12.712,1.857-21.378c-0.431-8.234-1.756-14.641-3.973-19.219c-2.275-4.722-5.225-7.083-8.853-7.083
				c-1.123,0.029-1.714,0.345-1.771,0.95L204.182,128.573z"/>
			<path d="M240.901,170.509c0.748-0.345,1.353-0.143,1.813,0.605c0.46,0.72,0.403,1.296-0.173,1.728
				c-1.727,1.238-3.686,1.814-5.873,1.727c-2.016-0.087-3.714-0.705-5.097-1.857c-2.188-1.842-3.254-5.6-3.195-11.272
				c0.057-6.248,0.173-11.013,0.345-14.295c0.23-5.096,1.871-8.105,4.923-9.027c2.792-0.835,5.01-0.676,6.651,0.475
				c0.863,0.634,1.698,1.786,2.505,3.455c0.605,1.353,0.792,3.34,0.561,5.96c-0.259,2.764-0.907,4.693-1.943,5.787
				c-0.893,0.951-2.462,1.613-4.707,1.987c-1.958,0.318-3.772,0.36-5.442,0.13c-0.49-0.087-0.734,0.129-0.734,0.648
				c0.086,8.522,0.978,13.302,2.677,14.338c1.555,0.979,3.138,1.282,4.751,0.907C238.338,171.719,239.317,171.287,240.901,170.509z
				 M236.15,139.63c-0.892,0.058-1.813,0.446-2.764,1.166c-0.979,0.749-1.699,1.714-2.159,2.893
				c-0.374,0.922-0.605,4.06-0.691,9.415c0,0.576,0.273,0.878,0.821,0.907c4.52,0.087,7.37-0.618,8.551-2.116
				c1.036-1.295,1.496-3.153,1.382-5.571c-0.087-2.188-0.49-3.772-1.209-4.751C239.13,140.22,237.819,139.572,236.15,139.63z"/>
			<path d="M263.282,170.509c0.748-0.345,1.353-0.143,1.813,0.605c0.46,0.72,0.403,1.296-0.173,1.728
				c-1.727,1.238-3.686,1.814-5.873,1.727c-2.016-0.087-3.714-0.705-5.097-1.857c-2.188-1.842-3.254-5.6-3.195-11.272
				c0.057-6.248,0.173-11.013,0.345-14.295c0.23-5.096,1.871-8.105,4.923-9.027c2.792-0.835,5.01-0.676,6.651,0.475
				c0.863,0.634,1.698,1.786,2.505,3.455c0.605,1.353,0.792,3.34,0.561,5.96c-0.259,2.764-0.907,4.693-1.943,5.787
				c-0.893,0.951-2.462,1.613-4.707,1.987c-1.958,0.318-3.772,0.36-5.442,0.13c-0.49-0.087-0.734,0.129-0.734,0.648
				c0.086,8.522,0.978,13.302,2.677,14.338c1.555,0.979,3.138,1.282,4.751,0.907C260.719,171.719,261.698,171.287,263.282,170.509z
				 M258.531,139.63c-0.892,0.058-1.813,0.446-2.764,1.166c-0.979,0.749-1.699,1.714-2.159,2.893
				c-0.374,0.922-0.605,4.06-0.691,9.415c0,0.576,0.273,0.878,0.821,0.907c4.52,0.087,7.37-0.618,8.551-2.116
				c1.036-1.295,1.496-3.153,1.382-5.571c-0.087-2.188-0.49-3.772-1.209-4.751C261.511,140.22,260.2,139.572,258.531,139.63z"/>
			<path d="M288.772,144.855c1.007,2.822,1.41,7.141,1.209,12.957c-0.202,5.989-0.95,10.121-2.246,12.395
				c-1.814,3.196-4.146,4.736-6.997,4.621c-0.749-0.029-1.656-0.202-2.721-0.519c-0.806-0.23-1.253-0.288-1.339-0.173
				c-0.231,0.288-0.303,0.185-0.216,5.858c0.086,4.837,0.129,7.903,0.129,9.199c-0.086,1.497-0.634,2.217-1.641,2.159
				c-0.431-0.029-0.677-0.677-0.734-1.943c-0.029-0.259-0.043-0.878-0.043-1.857c0-0.835-0.029-1.498-0.086-1.987
				c-0.116-1.382-0.101-3.324,0.043-11.99c0.143-8.868,0.129-17.434-0.043-25.697c0-0.23,0.014-1.454,0.043-3.671
				c0.086-3.685,0.129-5.485,0.129-5.399c0.115-0.345,0.432-0.519,0.95-0.519c0.547-0.028,0.821,0.144,0.821,0.519
				c0,1.094,0.072,1.714,0.216,1.857c-0.029-0.057,1.037-0.676,3.196-1.857c0.863-0.489,1.871-0.72,3.023-0.691
				c1.209,0.029,2.203,0.375,2.98,1.037C286.713,140.22,287.822,142.121,288.772,144.855z M285.965,168.911
				c1.266-2.332,1.828-6.636,1.685-12.913c-0.144-5.585-0.591-9.329-1.339-11.229c-0.634-1.555-1.224-2.635-1.771-3.239
				c-0.72-0.777-1.684-1.166-2.893-1.166c-1.066,0-2.333,0.648-3.801,1.943c-0.202,0.288-0.418,0.533-0.648,0.735
				c-0.404,0.604-0.605,1.238-0.605,1.9c-0.317,16.21-0.345,24.79-0.086,25.741c0.173,0.662,0.59,1.108,1.252,1.339
				C281.415,173.231,284.151,172.194,285.965,168.911z"/>
			<path d="M319.605,169.603c0.633,0.087,0.748,0.59,0.346,1.511c-0.404,0.893-1.052,1.7-1.944,2.419
				c-1.209,0.95-2.62,1.238-4.232,0.864c-1.901-0.46-3.139-1.987-3.715-4.578c-0.979-4.348-1.066-18.183-0.259-41.504
				c0.028-1.209,0.014-3.311-0.043-6.306c-0.029-2.677-0.029-4.246,0-4.707c0.057-0.72,0.432-0.95,1.123-0.691
				c0.662,0.231,1.008,0.764,1.037,1.598c0,0.404-0.072,3.945-0.216,10.625c-0.173,6.622-0.231,10.639-0.173,12.049
				c0,0.605-0.029,2.577-0.087,5.917c-0.086,4.059-0.129,7.255-0.129,9.587c-0.029,8.753,0.36,13.749,1.166,14.987
				c0.518,0.777,1.008,1.238,1.469,1.382c0.546,0.144,1.31-0.043,2.289-0.561c0.374-0.201,0.964-0.734,1.771-1.598
				C318.669,169.877,319.202,169.546,319.605,169.603z"/>
			<path d="M337.969,170.509c0.748-0.345,1.353-0.143,1.813,0.605c0.46,0.72,0.403,1.296-0.173,1.728
				c-1.727,1.238-3.686,1.814-5.873,1.727c-2.016-0.087-3.714-0.705-5.097-1.857c-2.188-1.842-3.254-5.6-3.195-11.272
				c0.057-6.248,0.173-11.013,0.345-14.295c0.23-5.096,1.871-8.105,4.923-9.027c2.792-0.835,5.01-0.676,6.651,0.475
				c0.863,0.634,1.698,1.786,2.505,3.455c0.605,1.353,0.792,3.34,0.561,5.96c-0.259,2.764-0.907,4.693-1.943,5.787
				c-0.893,0.951-2.462,1.613-4.707,1.987c-1.958,0.318-3.772,0.36-5.442,0.13c-0.49-0.087-0.734,0.129-0.734,0.648
				c0.086,8.522,0.978,13.302,2.677,14.338c1.555,0.979,3.138,1.282,4.751,0.907C335.406,171.719,336.385,171.287,337.969,170.509z
				 M333.218,139.63c-0.892,0.058-1.813,0.446-2.764,1.166c-0.979,0.749-1.699,1.714-2.159,2.893
				c-0.374,0.922-0.605,4.06-0.691,9.415c0,0.576,0.273,0.878,0.821,0.907c4.52,0.087,7.37-0.618,8.551-2.116
				c1.036-1.295,1.496-3.153,1.382-5.571c-0.087-2.188-0.49-3.772-1.209-4.751C336.198,140.22,334.888,139.572,333.218,139.63z"/>
			<path d="M366.741,172.755c0.346-0.23,0.648-0.129,0.907,0.303c0.23,0.345,0.316,0.619,0.259,0.82
				c-0.116,0.432-0.576,0.663-1.382,0.691c-0.807,0.028-1.411-0.144-1.814-0.518c-0.72-0.691-1.282-1.051-1.685-1.08
				c-0.173-0.028-0.605,0.116-1.295,0.432c-0.836,0.404-1.916,0.677-3.239,0.821c-3.225,0.317-5.514-0.446-6.867-2.289
				c-1.641-2.245-2.548-5.744-2.721-10.495c-0.202-6.133-0.144-10.927,0.173-14.382c0.374-4.146,1.987-7.068,4.837-8.767
				c0.921-0.546,2.188-0.806,3.801-0.777c2.246,0.029,4.059,0.836,5.441,2.419c0.173,0.173,0.244-0.028,0.216-0.605
				c0-0.173,0-0.446,0-0.821c-0.029-0.345-0.043-0.575-0.043-0.691c0-0.345,0.33-0.475,0.993-0.389
				c0.633,0.086,1.007,0.302,1.123,0.647c-0.087-0.259-0.087,1.555,0,5.442c0.201,5.269,0.288,8.436,0.259,9.501
				c0,0.605-0.015,2.549-0.043,5.831c-0.029,3.139-0.058,5.384-0.087,6.737c0,0.259,0,0.806,0,1.641s-0.014,1.469-0.043,1.9
				c-0.029,0.605-0.043,1.296-0.043,2.073c0,0.749,0.114,1.238,0.345,1.469C366.094,172.928,366.396,172.957,366.741,172.755z
				 M363.286,170.078c0.316-0.519,0.475-5.557,0.475-15.116c0-7.544-0.677-12.007-2.029-13.389
				c-1.268-1.353-2.807-2.015-4.621-1.987c-1.526,0-2.851,0.792-3.973,2.375c-1.094,1.526-1.771,3.398-2.03,5.615
				c-0.317,2.994-0.345,6.953-0.087,11.877c0.317,5.932,1.037,9.574,2.16,10.927c1.151,1.411,3.037,1.943,5.657,1.598
				C361.228,171.691,362.71,171.057,363.286,170.078z"/>
			<path d="M376.078,143.992c0-0.316-0.029-1.324-0.086-3.023c-0.058-1.439-0.058-2.231,0-2.375c0.114-0.316,0.46-0.489,1.037-0.519
				c0.575-0.057,0.863,0.102,0.863,0.475c-0.029,0.605-0.029,1.224,0,1.857c0,0.518,0.158,0.806,0.475,0.863
				c2.159-1.928,4.002-2.965,5.528-3.109c3.109-0.316,5.499,0.36,7.169,2.03c0.633,0.662,0.633,1.166,0,1.511
				c-0.634,0.346-1.267,0.231-1.9-0.345c-1.095-0.95-2.505-1.367-4.233-1.253c-2.159,0.116-3.887,1.008-5.183,2.678
				c-0.749,0.95-1.31,3.312-1.685,7.083c-0.374,4.032-0.245,11.747,0.389,23.149c0,0.461-0.101,0.878-0.302,1.253
				c-0.231,0.374-0.504,0.561-0.821,0.561c-0.662,0-1.08-0.417-1.253-1.253c-0.173-0.662-0.216-2.951-0.129-6.867
				c0.028-1.814,0.043-7.068,0.043-15.764C375.963,149.649,375.992,147.332,376.078,143.992z"/>
			<path d="M397.768,143.689c0.087-3.656,0.087-5.399,0-5.225c0.115-0.316,0.504-0.532,1.166-0.648
				c0.662-0.087,0.993,0.058,0.993,0.432c0,0.115-0.014,0.345-0.043,0.691c-0.029,0.345-0.043,0.605-0.043,0.777
				c0,0.605,0.072,0.821,0.216,0.648c1.439-1.698,3.483-2.548,6.133-2.548c3.57,0,6.089,0.792,7.558,2.375
				c0.546,0.605,1.079,2.822,1.598,6.651c0.345,2.534,0.475,10.035,0.389,22.501c0,0.346,0.028,0.979,0.086,1.901
				c0.058,0.922,0.087,1.54,0.087,1.857c0,0.461-0.159,0.821-0.475,1.08c-0.23,0.231-0.461,0.332-0.691,0.302
				c-0.806-0.057-1.253-0.561-1.339-1.511c0.028,0.288,0.043-1.123,0.043-4.233c0.058-8.695,0.028-13.806-0.086-15.332
				c-0.116-1.698-0.216-4.29-0.303-7.774c-0.029-1.987-0.475-3.397-1.339-4.232c-1.209-1.18-2.98-1.698-5.312-1.555
				c-2.304,0.144-3.887,0.749-4.751,1.813c-0.72,0.951-1.296,3.6-1.728,7.947c-0.374,4.031-0.245,11.747,0.389,23.149
				c0,0.461-0.101,0.878-0.302,1.253c-0.231,0.374-0.504,0.561-0.821,0.561c-0.662,0-1.08-0.417-1.253-1.253
				c-0.173-0.662-0.216-2.951-0.129-6.867c0.028-1.814,0.043-7.068,0.043-15.764C397.768,146.828,397.739,144.496,397.768,143.689z"
				/>
			<path d="M425.763,131.208c0.173-0.201,0.59-0.302,1.253-0.302c0.633,0,1.079,0.187,1.339,0.561
				c0.288,0.432,0.432,0.878,0.432,1.339c0,1.181-0.576,1.757-1.728,1.727c-0.634,0-1.138-0.201-1.511-0.605
				c-0.345-0.345-0.504-0.734-0.475-1.166C425.1,132.158,425.331,131.64,425.763,131.208z M426.324,160.187
				c-0.029,2.937-0.015,5.082,0.043,6.435c0.057,2.908,0.173,5.298,0.345,7.169c0.028,0.691,0.331,0.921,0.907,0.691
				c0.633-0.287,0.921-0.835,0.863-1.641c-0.029-1.152-0.029-3.397,0-6.737c0-4.319,0.072-8.033,0.216-11.143
				c0.144-2.765,0.13-5.529-0.043-8.293c-0.173-2.821-0.245-4.491-0.216-5.01c0.029-1.295-0.23-2.274-0.777-2.937
				c-0.547-0.605-1.008-0.676-1.382-0.216c-0.058,0.058-0.043,4.996,0.043,14.814C426.353,154.415,426.353,156.704,426.324,160.187z
				"/>
			<path d="M438.123,143.689c0.087-3.656,0.087-5.399,0-5.225c0.115-0.316,0.504-0.532,1.166-0.648
				c0.662-0.087,0.993,0.058,0.993,0.432c0,0.115-0.014,0.345-0.043,0.691c-0.029,0.345-0.043,0.605-0.043,0.777
				c0,0.605,0.072,0.821,0.216,0.648c1.439-1.698,3.483-2.548,6.133-2.548c3.57,0,6.089,0.792,7.558,2.375
				c0.546,0.605,1.079,2.822,1.598,6.651c0.345,2.534,0.475,10.035,0.389,22.501c0,0.346,0.028,0.979,0.086,1.901
				c0.058,0.922,0.087,1.54,0.087,1.857c0,0.461-0.159,0.821-0.475,1.08c-0.23,0.231-0.461,0.332-0.691,0.302
				c-0.806-0.057-1.253-0.561-1.339-1.511c0.028,0.288,0.043-1.123,0.043-4.233c0.058-8.695,0.028-13.806-0.086-15.332
				c-0.116-1.698-0.216-4.29-0.303-7.774c-0.029-1.987-0.475-3.397-1.339-4.232c-1.209-1.18-2.98-1.698-5.312-1.555
				c-2.304,0.144-3.887,0.749-4.751,1.813c-0.72,0.951-1.296,3.6-1.728,7.947c-0.374,4.031-0.245,11.747,0.389,23.149
				c0,0.461-0.101,0.878-0.302,1.253c-0.231,0.374-0.504,0.561-0.821,0.561c-0.662,0-1.08-0.417-1.253-1.253
				c-0.173-0.662-0.216-2.951-0.129-6.867c0.028-1.814,0.043-7.068,0.043-15.764C438.123,146.828,438.094,144.496,438.123,143.689z"
				/>
			<path d="M481.752,146.885c0.576,10.97,0.562,20.328-0.043,28.073c-0.634,8.148-1.67,12.87-3.11,14.166
				c-1.295,1.18-3.009,1.771-5.139,1.771c-1.958,0-3.772-0.605-5.442-1.814c-0.605-0.432-0.72-0.936-0.345-1.511
				c0.345-0.576,0.892-0.691,1.641-0.346l1.209,0.691c0.633,0.374,1.209,0.633,1.727,0.777c1.555,0.518,2.908,0.389,4.06-0.389
				c1.439-0.864,2.389-3.455,2.85-7.774c0.374-3.714,0.418-5.946,0.13-6.694c-0.116-0.144-0.274-0.144-0.475,0
				c-0.086,0.058-0.23,0.144-0.432,0.259c-0.317,0.173-0.561,0.303-0.734,0.389c-1.123,0.547-2.548,0.662-4.276,0.346
				c-2.562-0.519-4.592-2.145-6.089-4.881c-1.152-2.13-1.756-6.276-1.814-12.438c-0.058-5.586,0.273-9.602,0.993-12.05
				c0.979-3.455,2.159-5.571,3.541-6.349c1.612-0.892,4.002-0.863,7.169,0.087c1.698,0.518,2.836,1.253,3.412,2.203
				c0.633,1.008,0.95,1.511,0.95,1.511S481.608,144.237,481.752,146.885z M478.082,171.978c0.46-0.259,1.007-0.748,1.641-1.469
				c0.374-0.402,0.561-3.354,0.561-8.853c0-6.19-0.317-11.834-0.951-16.93c-0.173-1.18-0.806-2.13-1.9-2.851
				c-0.95-0.605-2.03-0.921-3.239-0.95c-2.39-0.086-4.118,1.224-5.183,3.93c-0.749,1.93-1.224,5.601-1.425,11.013
				c-0.231,6.219,0.287,10.481,1.555,12.784c1.41,2.591,3.153,3.988,5.225,4.189C475.634,172.986,476.872,172.698,478.082,171.978z"
				/>
		</g>
		<path fill="#0681FA" d="M208.818,195.739c0.356,0,0.526,0.534,0.512,1.603c0,0.253,0.022,0.928,0.067,2.026
			c0.045,1.173,0.067,1.907,0.067,2.204c0.014,1.469,0.059,3.45,0.134,5.944c0.045,1.425,0.067,3.577,0.067,6.456
			c0,0.386-0.03,0.616-0.089,0.69c-0.208,0.253-0.371,0.378-0.49,0.378c-0.416,0-0.623-0.304-0.623-0.913
			c0.103-5.432,0.074-8.392-0.089-8.882c-0.075-0.223-0.712-0.312-1.914-0.267c-2.137,0-3.258,0.111-3.361,0.334
			c-0.149,0.342-0.238,1.558-0.267,3.651c-0.015,0.668-0.008,1.64,0.022,2.916c0.045,1.41,0.067,2.248,0.067,2.516
			c0,0.431-0.141,0.646-0.423,0.646c-0.356,0-0.587-0.163-0.69-0.49c0,0.03-0.03-0.942-0.089-2.916
			c-0.03-0.579-0.037-1.069-0.022-1.469c0.014-0.549,0.022-1.105,0.022-1.67c-0.075-6.5-0.067-10.507,0.022-12.021
			c0.014-0.445,0.185-0.682,0.512-0.712c0.326-0.045,0.504,0.134,0.534,0.534c0.029,0.757,0.045,1.714,0.045,2.872
			c-0.223,2.938-0.178,4.527,0.134,4.764c0.267,0.193,1.172,0.304,2.716,0.334c1.588,0.03,2.478-0.089,2.671-0.356
			c0.193-0.252,0.193-2.775,0-7.569C208.35,195.939,208.506,195.739,208.818,195.739z"/>
		<path fill="#0681FA" d="M223.715,214.104c0.178-0.119,0.334-0.067,0.467,0.156c0.119,0.178,0.163,0.319,0.134,0.423
			c-0.06,0.223-0.297,0.342-0.712,0.356c-0.416,0.014-0.727-0.074-0.935-0.267c-0.371-0.356-0.661-0.541-0.868-0.557
			c-0.089-0.014-0.312,0.06-0.668,0.223c-0.431,0.208-0.987,0.349-1.67,0.423c-1.662,0.164-2.842-0.23-3.54-1.18
			c-0.846-1.158-1.313-2.961-1.402-5.409c-0.104-3.161-0.075-5.632,0.089-7.413c0.193-2.137,1.024-3.643,2.493-4.519
			c0.475-0.282,1.128-0.415,1.959-0.401c1.158,0.015,2.093,0.431,2.805,1.247c0.089,0.089,0.126-0.014,0.111-0.312
			c0-0.089,0-0.23,0-0.423c-0.015-0.178-0.022-0.297-0.022-0.356c0-0.178,0.17-0.245,0.512-0.2c0.326,0.045,0.519,0.156,0.579,0.334
			c-0.045-0.134-0.045,0.801,0,2.805c0.103,2.716,0.148,4.349,0.134,4.897c0,0.312-0.008,1.313-0.022,3.005
			c-0.015,1.618-0.03,2.775-0.045,3.473c0,0.134,0,0.416,0,0.846c0,0.431-0.008,0.757-0.022,0.979
			c-0.015,0.312-0.022,0.668-0.022,1.069c0,0.386,0.059,0.638,0.178,0.757C223.381,214.194,223.536,214.209,223.715,214.104z
			 M221.934,212.724c0.163-0.267,0.245-2.864,0.245-7.791c0-3.888-0.349-6.189-1.046-6.901c-0.653-0.697-1.447-1.038-2.382-1.024
			c-0.787,0-1.469,0.409-2.048,1.224c-0.564,0.787-0.913,1.751-1.046,2.894c-0.164,1.544-0.178,3.584-0.045,6.122
			c0.163,3.058,0.534,4.935,1.113,5.632c0.593,0.727,1.566,1.002,2.916,0.824C220.872,213.556,221.636,213.229,221.934,212.724z"/>
		<path fill="#0681FA" d="M236.257,199.123c0.045-1.884,0.045-2.783,0-2.694c0.059-0.163,0.259-0.274,0.601-0.334
			c0.341-0.045,0.512,0.03,0.512,0.223c0,0.06-0.008,0.178-0.022,0.356c-0.015,0.178-0.022,0.312-0.022,0.401
			c0,0.312,0.037,0.423,0.111,0.334c0.742-0.875,1.795-1.313,3.161-1.313c1.84,0,3.139,0.409,3.896,1.224
			c0.282,0.312,0.557,1.455,0.824,3.428c0.178,1.306,0.245,5.172,0.2,11.598c0,0.178,0.014,0.505,0.045,0.979
			c0.029,0.475,0.045,0.794,0.045,0.957c0,0.238-0.082,0.423-0.245,0.557c-0.119,0.119-0.238,0.171-0.356,0.156
			c-0.416-0.029-0.646-0.289-0.69-0.779c0.014,0.149,0.022-0.579,0.022-2.182c0.029-4.482,0.014-7.116-0.045-7.903
			c-0.06-0.875-0.111-2.211-0.156-4.007c-0.015-1.024-0.245-1.751-0.69-2.182c-0.623-0.608-1.536-0.875-2.738-0.801
			c-1.188,0.075-2.004,0.386-2.449,0.935c-0.371,0.49-0.668,1.856-0.89,4.096c-0.193,2.078-0.126,6.055,0.2,11.932
			c0,0.238-0.052,0.453-0.156,0.646c-0.119,0.193-0.26,0.289-0.423,0.289c-0.342,0-0.557-0.215-0.646-0.646
			c-0.089-0.341-0.111-1.521-0.067-3.54c0.014-0.935,0.022-3.643,0.022-8.125C236.257,200.741,236.242,199.538,236.257,199.123z"/>
		<path fill="#0681FA" d="M259.658,214.104c0.178-0.119,0.334-0.067,0.467,0.156c0.119,0.178,0.163,0.319,0.134,0.423
			c-0.06,0.223-0.297,0.342-0.712,0.356c-0.416,0.014-0.727-0.074-0.935-0.267c-0.371-0.356-0.661-0.541-0.868-0.557
			c-0.089-0.014-0.312,0.06-0.668,0.223c-0.431,0.208-0.987,0.349-1.67,0.423c-1.662,0.164-2.842-0.23-3.54-1.18
			c-0.846-1.158-1.313-2.961-1.402-5.409c-0.104-3.161-0.075-5.632,0.089-7.413c0.193-2.137,1.024-3.643,2.493-4.519
			c0.475-0.282,1.128-0.415,1.959-0.401c1.158,0.015,2.093,0.431,2.805,1.247c0.089,0.089,0.126-0.014,0.111-0.312
			c0-0.089,0-0.23,0-0.423c-0.015-0.178-0.022-0.297-0.022-0.356c0-0.178,0.17-0.245,0.512-0.2c0.326,0.045,0.519,0.156,0.579,0.334
			c-0.045-0.134-0.045,0.801,0,2.805c0.103,2.716,0.148,4.349,0.134,4.897c0,0.312-0.008,1.313-0.022,3.005
			c-0.015,1.618-0.03,2.775-0.045,3.473c0,0.134,0,0.416,0,0.846c0,0.431-0.008,0.757-0.022,0.979
			c-0.015,0.312-0.022,0.668-0.022,1.069c0,0.386,0.059,0.638,0.178,0.757C259.324,214.194,259.48,214.209,259.658,214.104z
			 M257.877,212.724c0.163-0.267,0.245-2.864,0.245-7.791c0-3.888-0.349-6.189-1.046-6.901c-0.653-0.697-1.447-1.038-2.382-1.024
			c-0.787,0-1.469,0.409-2.048,1.224c-0.564,0.787-0.913,1.751-1.046,2.894c-0.164,1.544-0.178,3.584-0.045,6.122
			c0.163,3.058,0.534,4.935,1.113,5.632c0.593,0.727,1.566,1.002,2.916,0.824C256.816,213.556,257.58,213.229,257.877,212.724z"/>
		<path fill="#0681FA" d="M266.096,197.119c0.475-0.638,1.202-1.009,2.182-1.113c2.122-0.208,3.354-0.089,3.695,0.356
			c0.208,0.267,0.312,1.076,0.312,2.426c0,1.558,0.007,2.842,0.022,3.851c0.148,5.565,0.215,9.149,0.2,10.752v1.113
			c0,0.149-0.067,0.282-0.2,0.401c-0.119,0.089-0.215,0.134-0.289,0.134c-0.282-0.014-0.46-0.178-0.534-0.49
			c-0.06-0.223-0.089-0.682-0.089-1.38c-0.03-7.509-0.067-11.45-0.111-11.821c-0.03-0.297-0.067-1.172-0.111-2.627
			c-0.03-0.935-0.178-1.528-0.445-1.781c-0.178-0.178-0.943-0.215-2.293-0.111c-0.609,0.045-1.143,0.378-1.603,1.002
			c-0.253,0.342-0.409,1.358-0.467,3.05c-0.015,0.297,0,2.056,0.045,5.276c0.029,3.325,0.037,5.269,0.022,5.832
			c-0.015,1.291-0.319,2.108-0.913,2.449c-0.52,0.297-0.89,0.445-1.113,0.445c-0.49,0-0.631-0.134-0.423-0.401
			c0.059-0.074,0.2-0.185,0.423-0.334c0.223-0.148,0.393-0.289,0.512-0.423c0.445-0.445,0.653-1.165,0.623-2.159
			c-0.015-0.593-0.067-4.304-0.156-11.131C265.353,198.922,265.591,197.817,266.096,197.119z"/>
		<path fill="#0681FA" d="M283.108,204.243c0.964,0.831,1.469,2.263,1.514,4.296c0.045,2.137-0.289,3.621-1.002,4.452
			c-0.801,0.935-1.558,1.529-2.271,1.781c-0.416,0.164-1.41,0.245-2.983,0.245c-0.178,0-0.356,0-0.534,0
			c-0.178-0.014-0.297-0.103-0.356-0.267c-0.045-0.074-0.089-0.853-0.134-2.337c-0.015-0.519-0.045-5.009-0.089-13.468v-2.048
			c-0.015-0.46-0.015-0.801,0-1.024c0.029-0.163,0.2-0.245,0.512-0.245c0.252,0,0.386,0.2,0.401,0.601
			c0,0.104-0.008,0.304-0.022,0.601c-0.015,0.282-0.015,0.505,0,0.668c0,0.134,0.007,1.269,0.022,3.406
			c0,1.692,0.045,2.642,0.134,2.849c0.045,0.104,0.223,0.119,0.534,0.045l1.135-0.312c1.232-0.237,1.848-0.356,1.848-0.356
			S282.247,203.501,283.108,204.243z M283.486,207.983c-0.178-2.033-0.987-3.191-2.426-3.473c-0.935-0.178-1.759-0.059-2.471,0.356
			c-0.164,0.104-0.223,2.182-0.178,6.233c0.014,1.677,0.089,2.627,0.223,2.849c0.193,0.312,0.72,0.364,1.581,0.156
			c0.964-0.223,1.721-0.697,2.271-1.425C283.33,211.582,283.664,210.016,283.486,207.983z"/>
		<path fill="#0681FA" d="M298.072,212.012c0,0.06,0.007,1.091,0.022,3.094c0,1.781-0.015,2.701-0.045,2.76
			c-0.06,0.178-0.253,0.289-0.579,0.334c-0.342,0.059-0.512-0.008-0.512-0.2c0-2.909-0.03-4.333-0.089-4.274
			c-0.742,0.876-1.796,1.313-3.161,1.313c-1.825,0-3.117-0.408-3.873-1.224c-0.282-0.312-0.557-1.454-0.824-3.428
			c-0.178-1.306-0.253-5.172-0.223-11.598c0.014-0.178,0.007-0.504-0.022-0.98c-0.03-0.49-0.045-0.816-0.045-0.979
			c0-0.223,0.074-0.401,0.223-0.534c0.134-0.119,0.252-0.17,0.356-0.156c0.43,0.03,0.668,0.289,0.712,0.779
			c-0.015-0.148-0.022,0.579-0.022,2.182c-0.03,4.467-0.015,7.101,0.045,7.903c0.059,0.876,0.103,2.212,0.134,4.007
			c0.029,1.024,0.259,1.751,0.69,2.182c0.638,0.609,1.558,0.876,2.76,0.801c1.187-0.074,1.996-0.393,2.426-0.957
			c0.386-0.475,0.682-1.833,0.89-4.074c0.193-1.988,0.134-5.966-0.178-11.932c-0.015-0.237,0.037-0.452,0.156-0.646
			c0.119-0.193,0.252-0.289,0.401-0.289c0.356,0,0.579,0.208,0.668,0.623c0.074,0.356,0.096,1.544,0.067,3.562
			c-0.015,0.935-0.03,3.636-0.044,8.103C298.064,210.387,298.086,211.597,298.072,212.012z"/>
		<path fill="#0681FA" d="M312.145,214.104c0.178-0.119,0.334-0.067,0.467,0.156c0.119,0.178,0.163,0.319,0.134,0.423
			c-0.06,0.223-0.297,0.342-0.712,0.356c-0.416,0.014-0.727-0.074-0.935-0.267c-0.371-0.356-0.661-0.541-0.868-0.557
			c-0.089-0.014-0.312,0.06-0.668,0.223c-0.431,0.208-0.987,0.349-1.67,0.423c-1.662,0.164-2.842-0.23-3.54-1.18
			c-0.846-1.158-1.313-2.961-1.402-5.409c-0.104-3.161-0.075-5.632,0.089-7.413c0.193-2.137,1.024-3.643,2.493-4.519
			c0.475-0.282,1.128-0.415,1.959-0.401c1.158,0.015,2.093,0.431,2.805,1.247c0.089,0.089,0.126-0.014,0.111-0.312
			c0-0.089,0-0.23,0-0.423c-0.015-0.178-0.022-0.297-0.022-0.356c0-0.178,0.17-0.245,0.512-0.2c0.326,0.045,0.519,0.156,0.579,0.334
			c-0.045-0.134-0.045,0.801,0,2.805c0.103,2.716,0.148,4.349,0.134,4.897c0,0.312-0.008,1.313-0.022,3.005
			c-0.015,1.618-0.03,2.775-0.045,3.473c0,0.134,0,0.416,0,0.846c0,0.431-0.008,0.757-0.022,0.979
			c-0.015,0.312-0.022,0.668-0.022,1.069c0,0.386,0.059,0.638,0.178,0.757C311.811,214.194,311.967,214.209,312.145,214.104z
			 M310.364,212.724c0.163-0.267,0.245-2.864,0.245-7.791c0-3.888-0.349-6.189-1.046-6.901c-0.653-0.697-1.447-1.038-2.382-1.024
			c-0.787,0-1.469,0.409-2.048,1.224c-0.564,0.787-0.913,1.751-1.046,2.894c-0.164,1.544-0.178,3.584-0.045,6.122
			c0.163,3.058,0.534,4.935,1.113,5.632c0.593,0.727,1.566,1.002,2.916,0.824C309.303,213.556,310.067,213.229,310.364,212.724z"/>
		<path fill="#0681FA" d="M326.42,213.726c0.208,0.386,0.156,0.712-0.156,0.979c-0.297,0.267-0.557,0.245-0.779-0.067
			c-0.668-0.964-1.447-2.182-2.337-3.651c-0.193-0.312-0.542-1.031-1.046-2.159c-0.431-0.935-0.705-1.439-0.824-1.514
			c-0.134-0.089-0.787,1.113-1.959,3.606c-0.831,1.781-1.522,3.072-2.07,3.873c-0.208,0.297-0.438,0.319-0.69,0.067
			c-0.267-0.267-0.334-0.608-0.2-1.024c0.134-0.445,0.86-1.877,2.182-4.296c1.261-2.315,1.892-3.532,1.892-3.651
			c0-0.386-0.097-0.749-0.289-1.091c-2.523-4.274-3.703-6.893-3.54-7.858c0.059-0.312,0.282-0.401,0.668-0.267
			c0.43,0.149,0.801,0.52,1.113,1.113c0.163,0.312,0.668,1.529,1.514,3.651c0.742,1.856,1.165,2.79,1.269,2.805
			c0.103,0,0.549-0.949,1.336-2.849c0.905-2.211,1.432-3.458,1.581-3.74c0.312-0.593,0.675-0.964,1.091-1.113
			c0.401-0.148,0.623-0.067,0.668,0.245c0.178,1.024-0.987,3.673-3.495,7.947c-0.342,0.564-0.505,0.95-0.49,1.158
			c0,0.119,0.712,1.373,2.137,3.762C325.581,212.324,326.389,213.682,326.42,213.726z"/>
	</g>
</g>
<g>
	<g>
		<g>
			<path d="M54.557,94.751 M163.844,10.007c-0.296,1.044-0.413,1.623-0.622,2.166c-1.938,5.025-3.847,10.063-5.868,15.055
				c-0.593,1.465-0.355,2.131,1.12,2.866c1.747,0.871,3.506,1.99,4.815,3.411c3.173,3.445,4.855,7.752,5.896,12.245
				c1.305,5.636,3.121,11.04,5.975,16.095c0.318,0.563,0.254,1.761-0.144,2.227c-1.137,1.329-2.511,2.462-3.839,3.619
				c-4.583,3.997-9.707,6.237-15.511,6.237c-1.272,0-2.578-0.108-3.917-0.328c-1.136-0.187-2.272-0.374-3.457-0.569
				c1.515,5.276,3.025,10.343,4.425,15.44c4.111,14.965,3.687,29.669-2.917,43.903c-5.14,11.079-7.128,22.524-5.322,34.707
				c0.585,3.946,1.316,7.842,2.233,11.68l4.968-0.434c-0.93-3.79-1.703-7.771-2.325-11.969c-1.611-10.868-0.003-21.306,4.917-31.91
				c6.746-14.541,7.823-30.449,3.199-47.282c-0.765-2.785-1.546-5.507-2.36-8.315c0.186,0.004,0.372,0.006,0.557,0.006
				c6.773,0,13.081-2.507,18.75-7.451l0.549-0.476c1.209-1.046,2.579-2.231,3.796-3.654c1.731-2.024,2.034-5.474,0.69-7.854
				c-2.361-4.182-4.098-8.88-5.465-14.784c-1.414-6.107-3.728-10.841-7.072-14.472c-1.099-1.193-2.474-2.298-4.104-3.301
				c1.314-3.303,2.593-6.63,3.837-9.868c0.391-1.017,0.782-2.034,1.174-3.051c0.232-0.601,0.375-1.144,0.527-1.719
				c0.066-0.249,0.141-0.535,0.238-0.874c0.463-1.63,0.056-3.383-1.077-4.642c-0.943-1.048-2.28-1.632-3.664-1.632l0,0
				c-0.278,0-0.559,0.024-0.839,0.072c-0.969,0.167-1.911,0.322-2.833,0.474c-2.036,0.335-3.96,0.652-5.927,1.054
				c-12.198,2.489-21.537,6.19-29.391,11.646c-6.821,4.738-12.027,10.539-15.473,17.242c-3.407,6.626-5.121,14.185-5.095,22.469
				c0.032,10.212-1.415,19.007-4.425,26.887c-3.191,8.357-7.982,16.578-14.241,24.436c-3.258,4.091-6.617,8.21-9.917,12.24
				l3.421,3.602c3.472-4.239,6.937-8.485,10.351-12.771c6.24-7.835,11.407-16.366,14.99-25.748
				c3.516-9.208,4.78-18.782,4.749-28.661c-0.047-14.966,6.029-27.017,18.451-35.647c8.33-5.787,17.744-8.86,27.565-10.864
				C157.992,10.944,160.785,10.535,163.844,10.007"/>
		</g>
	</g>
	<g>
		<path d="M149.692,190.029c-4.077,0-7.393-3.316-7.393-7.393s3.317-7.393,7.393-7.393c4.077,0,7.393,3.316,7.393,7.393
			S153.768,190.029,149.692,190.029z M149.692,178.94c-2.038,0-3.697,1.658-3.697,3.697s1.658,3.697,3.697,3.697
			c2.038,0,3.697-1.658,3.697-3.697S151.73,178.94,149.692,178.94z"/>
	</g>
	<g>
		<path d="M54.813,94.945c-4.077,0-7.393-3.316-7.393-7.393c0-4.077,3.317-7.393,7.393-7.393s7.393,3.316,7.393,7.393
			C62.206,91.629,58.89,94.945,54.813,94.945z M54.813,83.855c-2.038,0-3.697,1.658-3.697,3.697c0,2.038,1.658,3.697,3.697,3.697
			c2.038,0,3.697-1.658,3.697-3.697C58.51,85.513,56.852,83.855,54.813,83.855z"/>
	</g>
	<g>
		<path d="M51.674,172.718c-4.077,0-7.393-3.316-7.393-7.393c0-4.077,3.317-7.393,7.393-7.393s7.393,3.316,7.393,7.393
			C59.067,169.402,55.751,172.718,51.674,172.718z M51.674,161.629c-2.038,0-3.697,1.658-3.697,3.697
			c0,2.038,1.658,3.697,3.697,3.697c2.038,0,3.697-1.658,3.697-3.697C55.371,163.287,53.713,161.629,51.674,161.629z"/>
	</g>
	<g>
		<path d="M105.554,188.384c-4.077,0-7.393-3.316-7.393-7.393s3.317-7.393,7.393-7.393c4.077,0,7.393,3.316,7.393,7.393
			S109.631,188.384,105.554,188.384z M105.554,177.295c-2.038,0-3.697,1.658-3.697,3.697s1.658,3.697,3.697,3.697
			c2.038,0,3.697-1.658,3.697-3.697S107.592,177.295,105.554,177.295z"/>
	</g>
	<g>
		<path d="M41.259,138.333c-4.077,0-7.393-3.316-7.393-7.393c0-4.077,3.317-7.393,7.393-7.393s7.393,3.316,7.393,7.393
			C48.652,135.016,45.336,138.333,41.259,138.333z M41.259,127.243c-2.038,0-3.697,1.658-3.697,3.697s1.658,3.697,3.697,3.697
			c2.038,0,3.697-1.658,3.697-3.697S43.297,127.243,41.259,127.243z"/>
	</g>
	<g>
		<path d="M156.263,202.512c-2.58,0-4.679-2.099-4.679-4.679s2.099-4.679,4.679-4.679s4.679,2.099,4.679,4.679
			S158.844,202.512,156.263,202.512z M156.263,196.234c-0.881,0-1.599,0.717-1.599,1.599s0.717,1.599,1.599,1.599
			c0.882,0,1.599-0.717,1.599-1.599S157.145,196.234,156.263,196.234z"/>
	</g>
	<g>
		<path d="M130.593,200.694c-2.58,0-4.679-2.099-4.679-4.679c0-2.58,2.099-4.679,4.679-4.679s4.679,2.099,4.679,4.679
			C135.272,198.594,133.173,200.694,130.593,200.694z M130.593,194.416c-0.881,0-1.599,0.717-1.599,1.599
			c0,0.881,0.717,1.599,1.599,1.599s1.599-0.717,1.599-1.599C132.191,195.133,131.474,194.416,130.593,194.416z"/>
	</g>
	<g>
		<path d="M160.987,215.541c-2.97,0-5.386-2.416-5.386-5.386c0-2.97,2.416-5.386,5.386-5.386s5.386,2.416,5.386,5.386
			C166.373,213.124,163.957,215.541,160.987,215.541z M160.987,207.849c-1.271,0-2.306,1.034-2.306,2.306
			c0,1.271,1.034,2.306,2.306,2.306s2.306-1.034,2.306-2.306C163.293,208.883,162.258,207.849,160.987,207.849z"/>
	</g>
	<g>
		<path d="M20.744,69.057c-2.97,0-5.386-2.416-5.386-5.386c0-2.97,2.416-5.386,5.386-5.386s5.386,2.416,5.386,5.386
			C26.13,66.641,23.714,69.057,20.744,69.057z M20.744,61.366c-1.271,0-2.306,1.034-2.306,2.306s1.034,2.306,2.306,2.306
			c1.271,0,2.306-1.034,2.306-2.306S22.015,61.366,20.744,61.366z"/>
	</g>
	<g>
		<path d="M57.952,131.659c-2.97,0-5.386-2.416-5.386-5.386s2.416-5.386,5.386-5.386s5.386,2.416,5.386,5.386
			S60.922,131.659,57.952,131.659z M57.952,123.967c-1.271,0-2.306,1.034-2.306,2.306s1.034,2.306,2.306,2.306
			s2.306-1.034,2.306-2.306S59.223,123.967,57.952,123.967z"/>
	</g>
	<g>
		<path d="M61.798,151.42c-2.97,0-5.386-2.416-5.386-5.386s2.416-5.386,5.386-5.386c2.97,0,5.386,2.416,5.386,5.386
			S64.768,151.42,61.798,151.42z M61.798,143.729c-1.271,0-2.306,1.034-2.306,2.306c0,1.271,1.034,2.306,2.306,2.306
			c1.271,0,2.306-1.034,2.306-2.306C64.103,144.763,63.069,143.729,61.798,143.729z"/>
	</g>
	<g>
		<path d="M68.162,55.368c-2.97,0-5.386-2.416-5.386-5.386c0-2.97,2.416-5.386,5.386-5.386s5.386,2.416,5.386,5.386
			C73.548,52.952,71.132,55.368,68.162,55.368z M68.162,47.676c-1.271,0-2.306,1.034-2.306,2.306s1.034,2.306,2.306,2.306
			c1.271,0,2.306-1.034,2.306-2.306S69.433,47.676,68.162,47.676z"/>
	</g>
	<g>
		<path d="M36.433,52.253c-2.97,0-5.386-2.416-5.386-5.386s2.416-5.386,5.386-5.386c2.97,0,5.386,2.416,5.386,5.386
			S39.403,52.253,36.433,52.253z M36.433,44.562c-1.271,0-2.306,1.034-2.306,2.306s1.034,2.306,2.306,2.306
			c1.271,0,2.306-1.034,2.306-2.306S37.704,44.562,36.433,44.562z"/>
	</g>
	<g>
		<path d="M128.334,215.541c-2.97,0-5.386-2.416-5.386-5.386c0-2.97,2.416-5.386,5.386-5.386c2.97,0,5.386,2.416,5.386,5.386
			C133.72,213.124,131.304,215.541,128.334,215.541z M128.334,207.849c-1.271,0-2.306,1.034-2.306,2.306
			c0,1.271,1.034,2.306,2.306,2.306c1.271,0,2.306-1.034,2.306-2.306C130.639,208.883,129.605,207.849,128.334,207.849z"/>
	</g>
	<g>
		<path d="M129.303,180.102c-2.97,0-5.386-2.416-5.386-5.386s2.416-5.386,5.386-5.386s5.386,2.416,5.386,5.386
			S132.272,180.102,129.303,180.102z M129.303,172.41c-1.271,0-2.306,1.034-2.306,2.306s1.034,2.306,2.306,2.306
			s2.306-1.034,2.306-2.306S130.574,172.41,129.303,172.41z"/>
	</g>
	<g>
		<path d="M72.885,176.256c-2.97,0-5.386-2.416-5.386-5.386s2.416-5.386,5.386-5.386s5.386,2.416,5.386,5.386
			S75.855,176.256,72.885,176.256z M72.885,168.565c-1.271,0-2.306,1.034-2.306,2.306s1.034,2.306,2.306,2.306
			c1.271,0,2.306-1.034,2.306-2.306S74.157,168.565,72.885,168.565z"/>
	</g>
	<g>
		<path d="M144.556,214.412c-2.007,0-3.64-1.633-3.64-3.641c0-2.008,1.633-3.641,3.64-3.641c2.007,0,3.641,1.633,3.641,3.641
			C148.197,212.779,146.564,214.412,144.556,214.412z M144.556,209.595c-0.648,0-1.176,0.528-1.176,1.176
			c0,0.649,0.528,1.176,1.176,1.176c0.649,0,1.176-0.528,1.176-1.176C145.732,210.123,145.205,209.595,144.556,209.595z"/>
	</g>
	<g>
		<path d="M109.235,214.412c-2.007,0-3.641-1.633-3.641-3.641c0-2.008,1.633-3.641,3.641-3.641s3.64,1.633,3.64,3.641
			C112.875,212.779,111.242,214.412,109.235,214.412z M109.235,209.595c-0.649,0-1.176,0.528-1.176,1.176
			c0,0.649,0.528,1.176,1.176,1.176c0.648,0,1.176-0.528,1.176-1.176C110.411,210.123,109.883,209.595,109.235,209.595z"/>
	</g>
	<g>
		<path d="M67.341,214.412c-2.007,0-3.641-1.633-3.641-3.641c0-2.008,1.633-3.641,3.641-3.641s3.64,1.633,3.64,3.641
			C70.981,212.779,69.348,214.412,67.341,214.412z M67.341,209.595c-0.649,0-1.176,0.528-1.176,1.176
			c0,0.649,0.528,1.176,1.176,1.176c0.648,0,1.176-0.528,1.176-1.176C68.516,210.123,67.989,209.595,67.341,209.595z"/>
	</g>
	<g>
		<path d="M26.998,137.605c-2.007,0-3.64-1.633-3.64-3.64c0-2.008,1.633-3.641,3.64-3.641s3.641,1.633,3.641,3.641
			C30.639,135.972,29.005,137.605,26.998,137.605z M26.998,132.788c-0.648,0-1.176,0.528-1.176,1.176
			c0,0.648,0.528,1.176,1.176,1.176c0.649,0,1.176-0.528,1.176-1.176C28.174,133.316,27.647,132.788,26.998,132.788z"/>
	</g>
	<g>
		<path d="M36.428,161.359c-2.007,0-3.641-1.633-3.641-3.641c0-2.008,1.633-3.641,3.641-3.641s3.64,1.633,3.64,3.641
			C40.068,159.726,38.435,161.359,36.428,161.359z M36.428,156.542c-0.649,0-1.176,0.528-1.176,1.176
			c0,0.649,0.528,1.176,1.176,1.176c0.648,0,1.176-0.528,1.176-1.176C37.604,157.069,37.076,156.542,36.428,156.542z"/>
	</g>
	<g>
		<path d="M76.114,128.121c-2.007,0-3.64-1.633-3.64-3.64c0-2.008,1.633-3.641,3.64-3.641s3.641,1.633,3.641,3.641
			C79.755,126.488,78.122,128.121,76.114,128.121z M76.114,123.305c-0.648,0-1.176,0.528-1.176,1.176
			c0,0.648,0.528,1.176,1.176,1.176c0.649,0,1.176-0.528,1.176-1.176C77.291,123.833,76.763,123.305,76.114,123.305z"/>
	</g>
	<g>
		<path d="M78.788,77.433c-2.007,0-3.641-1.633-3.641-3.641c0-2.007,1.633-3.641,3.641-3.641s3.64,1.633,3.64,3.641
			C82.428,75.8,80.795,77.433,78.788,77.433z M78.788,72.616c-0.649,0-1.176,0.528-1.176,1.176s0.528,1.176,1.176,1.176
			c0.648,0,1.176-0.528,1.176-1.176S79.436,72.616,78.788,72.616z"/>
	</g>
	<g>
		<path d="M38.12,62.03c-2.007,0-3.64-1.633-3.64-3.64s1.633-3.641,3.64-3.641s3.64,1.633,3.64,3.641S40.128,62.03,38.12,62.03z
			 M38.12,57.214c-0.648,0-1.176,0.528-1.176,1.176c0,0.648,0.528,1.176,1.176,1.176c0.648,0,1.176-0.528,1.176-1.176
			C39.296,57.741,38.769,57.214,38.12,57.214z"/>
	</g>
	<g>
		<path d="M26.267,40.66c-2.007,0-3.64-1.633-3.64-3.64s1.633-3.641,3.64-3.641s3.641,1.633,3.641,3.641S28.275,40.66,26.267,40.66z
			 M26.267,35.844c-0.648,0-1.176,0.528-1.176,1.176c0,0.648,0.528,1.176,1.176,1.176c0.649,0,1.176-0.528,1.176-1.176
			C27.444,36.372,26.916,35.844,26.267,35.844z"/>
	</g>
	<g>
		<path d="M59.947,206.972c-2.58,0-4.679-2.099-4.679-4.68c0-2.58,2.099-4.679,4.679-4.679c2.58,0,4.679,2.099,4.679,4.679
			C64.626,204.873,62.528,206.972,59.947,206.972z M59.947,200.694c-0.882,0-1.599,0.717-1.599,1.599
			c0,0.882,0.717,1.599,1.599,1.599c0.881,0,1.599-0.717,1.599-1.599C61.546,201.411,60.829,200.694,59.947,200.694z"/>
	</g>
	<g>
		<path d="M26.267,169.448c-2.58,0-4.679-2.099-4.679-4.679c0-2.581,2.099-4.68,4.679-4.68s4.679,2.099,4.679,4.68
			C30.947,167.349,28.848,169.448,26.267,169.448z M26.267,163.17c-0.881,0-1.599,0.717-1.599,1.599
			c0,0.881,0.717,1.599,1.599,1.599c0.882,0,1.599-0.717,1.599-1.599C27.866,163.887,27.149,163.17,26.267,163.17z"/>
	</g>
	<g>
		<path d="M90.786,161.667c-2.58,0-4.679-2.099-4.679-4.679s2.099-4.679,4.679-4.679s4.679,2.099,4.679,4.679
			S93.366,161.667,90.786,161.667z M90.786,155.389c-0.881,0-1.599,0.717-1.599,1.599s0.717,1.599,1.599,1.599
			c0.881,0,1.599-0.717,1.599-1.599S91.667,155.389,90.786,155.389z"/>
	</g>
	<g>
		<path d="M73.799,194.539c-2.58,0-4.679-2.099-4.679-4.68c0-2.58,2.099-4.679,4.679-4.679s4.679,2.099,4.679,4.679
			C78.479,192.439,76.379,194.539,73.799,194.539z M73.799,188.26c-0.881,0-1.599,0.717-1.599,1.599
			c0,0.882,0.717,1.599,1.599,1.599c0.882,0,1.599-0.717,1.599-1.599C75.398,188.978,74.681,188.26,73.799,188.26z"/>
	</g>
	<g>
		<path d="M46.129,154.559c-2.58,0-4.679-2.099-4.679-4.679c0-2.58,2.099-4.679,4.679-4.679s4.679,2.099,4.679,4.679
			C50.809,152.46,48.71,154.559,46.129,154.559z M46.129,148.282c-0.881,0-1.599,0.717-1.599,1.599c0,0.881,0.717,1.599,1.599,1.599
			c0.881,0,1.599-0.717,1.599-1.599C47.728,148.999,47.011,148.282,46.129,148.282z"/>
	</g>
	<g>
		<path d="M54.813,71.489c-2.58,0-4.679-2.099-4.679-4.679s2.099-4.679,4.679-4.679s4.679,2.099,4.679,4.679
			S57.393,71.489,54.813,71.489z M54.813,65.211c-0.881,0-1.599,0.717-1.599,1.599s0.717,1.599,1.599,1.599s1.599-0.717,1.599-1.599
			S55.695,65.211,54.813,65.211z"/>
	</g>
	<g>
		<path d="M51.674,42.43c-2.58,0-4.679-2.099-4.679-4.679s2.099-4.679,4.679-4.679s4.679,2.099,4.679,4.679
			S54.255,42.43,51.674,42.43z M51.674,36.152c-0.881,0-1.599,0.717-1.599,1.599c0,0.881,0.717,1.599,1.599,1.599
			c0.881,0,1.599-0.717,1.599-1.599C53.273,36.869,52.556,36.152,51.674,36.152z"/>
	</g>
	<g>
		<path d="M72.008,110.871c-2.58,0-4.679-2.099-4.679-4.679c0-2.58,2.099-4.679,4.679-4.679s4.679,2.099,4.679,4.679
			C76.687,108.772,74.588,110.871,72.008,110.871z M72.008,104.594c-0.881,0-1.599,0.717-1.599,1.599
			c0,0.881,0.717,1.599,1.599,1.599c0.882,0,1.599-0.717,1.599-1.599C73.606,105.311,72.889,104.594,72.008,104.594z"/>
	</g>
	<g>
		<path d="M41.259,114.01c-2.58,0-4.679-2.099-4.679-4.679c0-2.58,2.099-4.679,4.679-4.679c2.58,0,4.679,2.099,4.679,4.679
			C45.938,111.911,43.839,114.01,41.259,114.01z M41.259,107.732c-0.881,0-1.599,0.717-1.599,1.599s0.717,1.599,1.599,1.599
			c0.881,0,1.599-0.717,1.599-1.599S42.14,107.732,41.259,107.732z"/>
	</g>
	<g>
		<path d="M56.764,111.201c-2.58,0-4.679-2.099-4.679-4.679s2.099-4.679,4.679-4.679s4.679,2.099,4.679,4.679
			S59.344,111.201,56.764,111.201z M56.764,104.923c-0.881,0-1.599,0.717-1.599,1.599s0.717,1.599,1.599,1.599
			c0.882,0,1.599-0.717,1.599-1.599S57.646,104.923,56.764,104.923z"/>
	</g>
	<g>
		<path d="M66.365,77.767c-2.58,0-4.679-2.099-4.679-4.679c0-2.58,2.099-4.679,4.679-4.679s4.679,2.099,4.679,4.679
			C71.044,75.668,68.945,77.767,66.365,77.767z M66.365,71.489c-0.881,0-1.599,0.717-1.599,1.599c0,0.881,0.717,1.599,1.599,1.599
			s1.599-0.717,1.599-1.599C67.964,72.206,67.246,71.489,66.365,71.489z"/>
	</g>
	<g>
		<path d="M9.633,55.368c-2.58,0-4.679-2.099-4.679-4.679c0-2.58,2.099-4.679,4.679-4.679s4.679,2.099,4.679,4.679
			C14.312,53.269,12.213,55.368,9.633,55.368z M9.633,49.09c-0.881,0-1.599,0.717-1.599,1.599c0,0.881,0.717,1.599,1.599,1.599
			c0.882,0,1.599-0.717,1.599-1.599C11.232,49.807,10.514,49.09,9.633,49.09z"/>
	</g>
	<g>
		<path d="M87.647,218.37c-4.077,0-7.393-3.316-7.393-7.393s3.317-7.393,7.393-7.393s7.393,3.316,7.393,7.393
			S91.724,218.37,87.647,218.37z M87.647,207.28c-2.038,0-3.697,1.658-3.697,3.697s1.658,3.697,3.697,3.697
			c2.038,0,3.697-1.658,3.697-3.697S89.685,207.28,87.647,207.28z"/>
	</g>
	<g>
		<path d="M41.973,193.591c-4.077,0-7.393-3.316-7.393-7.393s3.317-7.393,7.393-7.393s7.393,3.316,7.393,7.393
			S46.049,193.591,41.973,193.591z M41.973,182.501c-2.038,0-3.697,1.658-3.697,3.697s1.658,3.697,3.697,3.697
			c2.038,0,3.697-1.658,3.697-3.697S44.011,182.501,41.973,182.501z"/>
	</g>
	<g>
		<rect x="149.32" y="189.146" transform="matrix(0.4026 0.9154 -0.9154 0.4026 267.1131 -26.0806)" width="8.436" height="4.929"/>
	</g>
	<g>
		<rect x="155.994" y="201.506" transform="matrix(0.3599 0.933 -0.933 0.3599 291.7569 -17.3191)" width="5.013" height="4.929"/>
	</g>
	<g>
		<rect x="146.965" y="208.307" width="10.177" height="4.929"/>
	</g>
	<g>
		
			<rect x="130.466" y="201.17" transform="matrix(0.6479 0.7617 -0.7617 0.6479 203.7402 -33.4794)" width="15.233" height="4.929"/>
	</g>
	<g>
		<rect x="127.182" y="197.833" width="4.929" height="9.601"/>
	</g>
	<g>
		<rect x="115.601" y="204.033" transform="matrix(0.048 0.9988 -0.9988 0.048 322.6218 82.4359)" width="4.928" height="12.86"/>
	</g>
	<g>
		<rect x="97.545" y="204.056" transform="matrix(0.015 0.9999 -0.9999 0.015 309.3579 107.7101)" width="4.929" height="13.636"/>
	</g>
	<g>
		<rect x="69.743" y="208.563" transform="matrix(0.999 0.0448 -0.0448 0.999 9.5216 -3.1669)" width="11.466" height="4.929"/>
	</g>
	<g>
		<rect x="60.241" y="204.405" transform="matrix(0.6689 0.7433 -0.7433 0.6689 174.857 21.1411)" width="6.908" height="4.929"/>
	</g>
	<g>
		<rect x="44.198" y="192.613" transform="matrix(0.7592 0.6509 -0.6509 0.7592 139.5482 12.9921)" width="16.037" height="4.929"/>
	</g>
	<g>
		<rect x="22.966" y="172.982" transform="matrix(0.5631 0.8264 -0.8264 0.5631 159.0486 50.0419)" width="18.46" height="4.929"/>
	</g>
	<g>
		<rect x="23.803" y="135.71" width="4.929" height="25.92"/>
	</g>
	<g>
		<rect x="31.04" y="110.273" transform="matrix(0.8652 0.5015 -0.5015 0.8652 65.7196 -0.3465)" width="4.928" height="23.533"/>
	</g>
	<g>
		<rect x="45.207" y="91.046" transform="matrix(0.8097 0.5869 -0.5869 0.8097 67.5268 -9.0208)" width="4.929" height="17.102"/>
	</g>
	<g>
		<rect x="50.184" y="73.582" transform="matrix(0.0644 0.9979 -0.9979 0.0644 128.8723 14.6401)" width="12.888" height="4.929"/>
	</g>
	<g>
		<rect x="39.287" y="58.955" transform="matrix(0.9152 0.403 -0.403 0.9152 28.7177 -13.6529)" width="15.034" height="4.928"/>
	</g>
	<g>
		<rect x="27.682" y="54.002" transform="matrix(0.345 0.9386 -0.9386 0.345 76.7205 11.4648)" width="4.929" height="13.396"/>
	</g>
	<g>
		<rect x="7.613" y="55.258" transform="matrix(0.6731 0.7396 -0.7396 0.6731 47.1975 8.6703)" width="12.357" height="4.929"/>
	</g>
	<g>
		<rect x="14.647" y="33.278" transform="matrix(0.5995 0.8004 -0.8004 0.5995 40.9654 3.3738)" width="4.928" height="18.688"/>
	</g>
	<g>
		<rect x="27.903" y="34.151" transform="matrix(0.9993 0.0379 -0.0379 0.9993 1.4145 -1.4353)" width="21.373" height="4.929"/>
	</g>
	<g>
		<rect x="52.94" y="40.204" transform="matrix(0.8103 0.586 -0.586 0.8103 36.4041 -27.128)" width="14.331" height="4.929"/>
	</g>
	<g>
		<rect x="64.037" y="59.468" transform="matrix(0.3693 0.9293 -0.9293 0.3693 104.74 -30.4597)" width="21.546" height="4.929"/>
	</g>
	<g>
		<rect x="73.372" y="75.032" transform="matrix(0.9794 0.2019 -0.2019 0.9794 19.6647 -13.4657)" width="4.929" height="29.25"/>
	</g>
	<g>
		<rect x="63.084" y="106.705" transform="matrix(0.814 0.5808 -0.5808 0.814 79.4532 -16.5358)" width="4.928" height="18.192"/>
	</g>
	<g>
		<rect x="49.371" y="127.906" transform="matrix(0.8823 0.4707 -0.4707 0.8823 71.2349 -8.1109)" width="4.929" height="20.947"/>
	</g>
	<g>
		<rect x="42.01" y="154.523" transform="matrix(0.2861 0.9582 -0.9582 0.2861 183.8752 67.1764)" width="9.69" height="4.929"/>
	</g>
	<g>
		<rect x="53.992" y="146.982" transform="matrix(0.912 0.4101 -0.4101 0.912 68.2251 -9.5852)" width="4.929" height="14.523"/>
	</g>
	<g>
		<rect x="66.366" y="124.135" transform="matrix(0.7944 0.6074 -0.6074 0.7944 95.867 -14.1471)" width="4.929" height="20.798"/>
	</g>
	<g>
		
			<rect x="115.531" y="168.933" transform="matrix(0.2495 0.9684 -0.9684 0.2495 259.6014 18.2986)" width="4.928" height="15.412"/>
	</g>
	<g>
		<rect x="87.064" y="165.971" transform="matrix(0.4773 0.8788 -0.8788 0.4773 198.6767 2.8847)" width="19.699" height="4.929"/>
	</g>
	<g>
		<rect x="67.897" y="137.597" transform="matrix(0.4179 0.9085 -0.9085 0.4179 175.5965 6.0536)" width="30.354" height="4.929"/>
	</g>
	<g>
		
			<rect x="131.683" y="177.219" transform="matrix(0.8046 0.5939 -0.5939 0.8046 133.8402 -47.322)" width="14.267" height="4.928"/>
	</g>
	<g>
		
			<rect x="137.557" y="183.084" transform="matrix(0.4314 0.9022 -0.9022 0.4314 251.7258 -17.846)" width="4.928" height="15.394"/>
	</g>
	<g>
		
			<rect x="146.583" y="197.526" transform="matrix(0.7069 0.7073 -0.7073 0.7069 187.8808 -45.6687)" width="4.929" height="12.699"/>
	</g>
	<g>
		
			<rect x="133.589" y="195.236" transform="matrix(0.9858 0.1678 -0.1678 0.9858 35.2204 -21.3035)" width="20.092" height="4.929"/>
	</g>
	<g>
		
			<rect x="107.925" y="187.836" transform="matrix(0.8794 0.4761 -0.4761 0.8794 104.9389 -33.602)" width="21.719" height="4.929"/>
	</g>
	<g>
		<rect x="121.069" y="175.986" transform="matrix(0.818 0.5752 -0.5752 0.818 128.0997 -37.6404)" width="4.929" height="15.262"/>
	</g>
	<g>
		<rect x="96.627" y="194.559" transform="matrix(0.1056 0.9944 -0.9944 0.1056 292.5442 68.7907)" width="22.807" height="4.929"/>
	</g>
	<g>
		<rect x="85.699" y="173.858" transform="matrix(0.2279 0.9737 -0.9737 0.2279 250.0401 58.4508)" width="4.929" height="26.062"/>
	</g>
	<g>
		
			<rect x="94.685" y="184.272" transform="matrix(0.8393 0.5437 -0.5437 0.8393 122.3225 -21.2776)" width="4.929" height="23.962"/>
	</g>
	<g>
		<rect x="63.825" y="189.511" transform="matrix(0.6904 0.7234 -0.7234 0.6904 162.5164 12.8114)" width="4.929" height="13.56"/>
	</g>
	<g>
		<rect x="70.644" y="197.124" transform="matrix(0.45 0.893 -0.893 0.45 221.923 38.8404)" width="17.571" height="4.929"/>
	</g>
	<g>
		<rect x="55.475" y="164.487" transform="matrix(0.4005 0.9163 -0.9163 0.4005 197.2598 53.2436)" width="4.929" height="25.777"/>
	</g>
	<g>
		<rect x="57.917" y="155.736" transform="matrix(0.3997 0.9166 -0.9166 0.3997 185.5537 33.0486)" width="19.252" height="4.929"/>
	</g>
	<g>
		<rect x="79.097" y="155.367" transform="matrix(0.6436 0.7654 -0.7654 0.6436 154.074 -4.2138)" width="4.929" height="15.903"/>
	</g>
	<g>
		<rect x="74.749" y="173.969" transform="matrix(0.9425 0.3342 -0.3342 0.9425 63.9919 -19.0567)" width="25.251" height="4.928"/>
	</g>
	<g>
		<rect x="43.393" y="168.235" transform="matrix(0.9693 0.2458 -0.2458 0.9693 44.3772 -5.9093)" width="4.929" height="13.111"/>
	</g>
	<g>
		<rect x="29.917" y="157.282" transform="matrix(0.5328 0.8462 -0.8462 0.5328 151.5531 47.9122)" width="4.929" height="7.876"/>
	</g>
	<g>
		<rect x="39.162" y="150.195" transform="matrix(0.6317 0.7752 -0.7752 0.6317 134.9844 24.5759)" width="4.929" height="8.325"/>
	</g>
	<g>
		<rect x="21.569" y="143.269" transform="matrix(0.3618 0.9322 -0.9322 0.3618 156.2539 63.2137)" width="20.774" height="4.929"/>
	</g>
	<g>
		<rect x="33.776" y="116.189" transform="matrix(0.1856 0.9826 -0.9826 0.1856 149.7261 56.6438)" width="13.826" height="4.929"/>
	</g>
	<g>
		<rect x="35.935" y="135.656" transform="matrix(0.9942 0.1079 -0.1079 0.9942 15.869 -3.2972)" width="4.929" height="18.643"/>
	</g>
	<g>
		<rect x="51.215" y="113.611" transform="matrix(0.1441 0.9896 -0.9896 0.1441 164.2501 42.2567)" width="12.965" height="4.929"/>
	</g>
	<g>
		<rect x="46.937" y="108.191" transform="matrix(0.8496 0.5274 -0.5274 0.8496 69.6393 -8.315)" width="4.929" height="19.552"/>
	</g>
	<g>
		<rect x="61.603" y="99.05" transform="matrix(0.1725 0.985 -0.985 0.1725 156.0203 23.4265)" width="4.929" height="11.037"/>
	</g>
	<g>
		<rect x="51.127" y="95.564" transform="matrix(0.0513 0.9987 -0.9987 0.0513 151.4897 36.5841)" width="10.724" height="4.929"/>
	</g>
	<g>
		<rect x="59.625" y="74.07" transform="matrix(0.7646 0.6445 -0.6445 0.7646 65.8113 -21.3182)" width="4.929" height="10.731"/>
	</g>
	<g>
		<rect x="64.799" y="53.778" transform="matrix(0.9939 0.1107 -0.1107 0.9939 7.2653 -7.0665)" width="4.929" height="16.221"/>
	</g>
	<g>
		<rect x="57.64" y="65.915" transform="matrix(0.9242 0.3819 -0.3819 0.9242 30.795 -18.3996)" width="8.219" height="4.929"/>
	</g>
	<g>
		<rect x="40.178" y="45.96" transform="matrix(0.9917 0.1285 -0.1285 0.9917 6.6558 -6.3185)" width="24.238" height="4.929"/>
	</g>
	<g>
		<rect x="20.215" y="38.688" transform="matrix(0.1893 0.9819 -0.9819 0.1893 66.2816 17.2738)" width="4.929" height="20.18"/>
	</g>
	<g>
		<rect x="24.807" y="47.792" transform="matrix(0.71 0.7042 -0.7042 0.71 46.8824 -3.1544)" width="4.929" height="15.098"/>
	</g>
	<g>
		<rect x="47.707" y="54.362" transform="matrix(0.0375 0.9993 -0.9993 0.0375 109.2979 0.1782)" width="13.699" height="4.929"/>
	</g>
	<g>
		<rect x="56.381" y="94.173" transform="matrix(0.5942 0.8043 -0.8043 0.5942 104.1325 -13.1114)" width="17.356" height="4.929"/>
	</g>
</g>
<g>
	<path fill="none" stroke="#000000" stroke-width="8" stroke-miterlimit="10" d="M155.237,148.924"/>
</g>
<g>
	<path d="M151.11,134.013v-4.929c7.047,0,25.075-13.72,30.452-21.031c6.044-8.217,11.839-6.605,15.673-5.537
		c0.262,0.073,0.519,0.144,0.773,0.212c0.464,0.123,0.927,0.258,1.387,0.392c3.586,1.049,4.681,1.236,6.029-1.324
		c0.401-0.761,0.242-1.093,0.156-1.271c-0.683-1.425-3.965-2.836-6.744-3.376c-0.865-0.168-1.811-0.493-2.813-0.836
		c-3.116-1.067-6.996-2.395-10.637-0.01c-5.955,3.9-26.194,15.395-27.052,15.882l-2.433-4.286
		c0.209-0.119,20.96-11.904,26.785-15.718c5.659-3.708,11.465-1.72,14.934-0.531c0.837,0.287,1.627,0.558,2.158,0.661
		c1.35,0.262,8.189,1.791,10.247,6.083c0.6,1.252,1.046,3.256-0.239,5.698c-3.283,6.239-8.391,4.746-11.772,3.76
		c-0.422-0.123-0.845-0.247-1.271-0.36c-0.272-0.073-0.549-0.149-0.829-0.227c-3.55-0.988-6.353-1.767-10.381,3.709
		C179.954,118.56,160.498,134.013,151.11,134.013z"/>
</g>
</svg>
