<?xml version="1.0" encoding="utf-8"?>
<!-- Generator: Adobe Illustrator 17.1.0, SVG Export Plug-In . SVG Version: 6.00 Build 0)  -->
<!DOCTYPE svg PUBLIC "-//W3C//DTD SVG 1.1//EN" "http://www.w3.org/Graphics/SVG/1.1/DTD/svg11.dtd">
<svg version="1.1" id="Слой_1" xmlns="http://www.w3.org/2000/svg" xmlns:xlink="http://www.w3.org/1999/xlink" x="0px" y="0px"
	 viewBox="0 0 143.248 118.999" enable-background="new 0 0 143.248 118.999" xml:space="preserve">
<path fill="#0681FA" d="M51.992,119.149v-0.004H0C0,81.66,32.922,81.672,40.227,71.871l0.836-4.472
	c-10.262-5.203-17.508-17.742-17.508-32.41C23.555,15.664,36.125,0,51.625,0c15.504,0,28.07,15.664,28.07,34.989
	c0,14.543-7.113,27.007-17.242,32.289l0.953,5.082c8.016,9.328,39.84,9.933,39.84,46.789H51.992z M102.391,89.063"/>
<g>
	<path fill="#0681FA" d="M143.248,118.999c0-26.861-23.193-27.302-29.036-34.1l-0.695-3.704c7.382-3.85,12.566-12.933,12.566-23.532
		c0-14.084-9.158-25.5-20.458-25.5c-11.296,0-20.457,11.416-20.457,25.5c0,10.69,5.281,19.829,12.76,23.621l-0.609,3.259
		c-2.848,3.822-11.04,5.6-18.043,10.608c7.707,4.617,15.056,11.427,17.812,23.846h8.805v0.003H143.248z"/>
</g>
</svg>
