<?xml version="1.0" encoding="utf-8"?>
<!-- Generator: Adobe Illustrator 17.1.0, SVG Export Plug-In . SVG Version: 6.00 Build 0)  -->
<!DOCTYPE svg PUBLIC "-//W3C//DTD SVG 1.1//EN" "http://www.w3.org/Graphics/SVG/1.1/DTD/svg11.dtd">
<svg version="1.1" id="Слой_1" xmlns="http://www.w3.org/2000/svg" xmlns:xlink="http://www.w3.org/1999/xlink" x="0px" y="0px"
	 viewBox="0 0 487 224" enable-background="new 0 0 487 224" xml:space="preserve">
<g>
	<g>
		<g>
			<path d="M203.572,134.405c-0.057-4.197-0.084-7.521-0.084-9.973c0.112-2.563,0.028-5.986-0.254-10.268
				c-0.169-3.183-0.24-5.183-0.211-6c0-0.873,1.38-1.239,4.141-1.098c2.873,0.028,5.366,1.043,7.479,3.042
				c1.493,1.437,2.916,4.014,4.268,7.733c1.916,5.128,2.874,12.494,2.874,22.1c0,4.845-0.24,8.719-0.719,11.62
				c-1.014,6.395-2.831,11.268-5.451,14.621c-1.465,1.916-3.845,2.93-7.141,3.042c-2.789,0.112-4.409-0.098-4.859-0.634
				c-0.338-0.197-0.31-8.775,0.085-25.734C203.67,142.237,203.628,139.42,203.572,134.405z M205.431,124.264
				c0,0.93,0.098,2.846,0.296,5.747c0.057,2.733,0.112,5.395,0.169,7.986c0,1.352-0.155,6.803-0.464,16.353
				c-0.113,7.465,0.112,11.395,0.676,11.789c2.62,1.352,5.071,0.831,7.352-1.563c1.887-1.971,3.423-4.887,4.606-8.747
				c1.69-5.465,2.296-12.437,1.817-20.916c-0.422-8.056-1.718-14.325-3.888-18.804c-2.226-4.62-5.113-6.93-8.662-6.93
				c-1.098,0.028-1.677,0.338-1.732,0.93L205.431,124.264z"/>
			<path d="M207.125,170.459c-2.31,0-3.582-0.271-4.277-0.927c-0.733-0.53-0.924-2.237-0.356-26.664
				c-0.029-0.705-0.069-3.398-0.127-8.45c-0.056-4.152-0.084-7.513-0.084-9.986c0.111-2.564,0.026-5.974-0.251-10.189
				c-0.173-3.265-0.243-5.263-0.213-6.121c-0.001-1.506,1.438-2.292,4.276-2.292c0.349,0,0.726,0.011,1.131,0.031
				c3.124,0.029,5.916,1.164,8.247,3.371c1.65,1.588,3.143,4.267,4.572,8.196c1.954,5.23,2.946,12.808,2.946,22.512
				c0,4.889-0.247,8.865-0.735,11.817c-1.04,6.561-2.955,11.666-5.691,15.166c-1.68,2.198-4.391,3.381-8.051,3.505
				C208.02,170.449,207.554,170.459,207.125,170.459z M204.683,167.831c0.307,0.089,0.998,0.217,2.442,0.217
				c0.31,0,0.642-0.006,0.994-0.017c-0.848-0.104-1.708-0.378-2.564-0.82c-0.048-0.025-0.094-0.052-0.138-0.084
				c-0.292-0.204-0.589-0.411-0.816-1.548C204.618,166.762,204.649,167.447,204.683,167.831z M216.634,162.296
				c-0.703,1.206-1.472,2.246-2.303,3.114c-1.023,1.074-2.102,1.827-3.223,2.253c1.554-0.401,2.725-1.134,3.55-2.213
				C215.378,164.527,216.037,163.475,216.634,162.296z M206.983,165.224c2.023,0.906,3.782,0.432,5.604-1.48
				c1.75-1.828,3.205-4.609,4.327-8.268c1.641-5.305,2.235-12.2,1.765-20.495c-0.411-7.862-1.679-14.034-3.769-18.347
				c-2.023-4.199-4.496-6.243-7.561-6.25c-0.263,0.008-0.437,0.034-0.547,0.059l-0.165,13.834c0,0.887,0.098,2.793,0.293,5.651
				c0.059,2.789,0.115,5.45,0.172,8.042c0,1.405-0.152,6.766-0.465,16.418C206.517,162.298,206.817,164.575,206.983,165.224z
				 M204.223,108.443c-0.006,0.774,0.042,2.183,0.141,4.219l0.031-2.568c0.001-0.034,0.002-0.067,0.005-0.099
				c0.041-0.436,0.27-1.306,1.391-1.749C204.876,108.265,204.426,108.372,204.223,108.443z"/>
		</g>
		<g>
			<path d="M241.358,165.294c0.732-0.338,1.323-0.14,1.774,0.592c0.45,0.705,0.394,1.268-0.169,1.691
				c-1.69,1.211-3.606,1.775-5.747,1.69c-1.972-0.085-3.634-0.69-4.987-1.817c-2.141-1.802-3.184-5.479-3.126-11.029
				c0.056-6.113,0.169-10.776,0.338-13.987c0.225-4.986,1.831-7.93,4.817-8.832c2.732-0.816,4.902-0.662,6.508,0.465
				c0.845,0.62,1.662,1.747,2.451,3.381c0.592,1.324,0.775,3.268,0.549,5.831c-0.254,2.704-0.887,4.592-1.901,5.662
				c-0.874,0.93-2.409,1.578-4.606,1.944c-1.916,0.311-3.691,0.353-5.324,0.127c-0.479-0.085-0.718,0.127-0.718,0.634
				c0.084,8.338,0.957,13.015,2.62,14.029c1.521,0.958,3.07,1.254,4.648,0.888C238.85,166.477,239.808,166.055,241.358,165.294z
				 M236.709,135.082c-0.873,0.057-1.774,0.437-2.704,1.141c-0.958,0.733-1.662,1.677-2.113,2.831
				c-0.366,0.902-0.592,3.972-0.676,9.212c0,0.564,0.267,0.859,0.803,0.887c4.422,0.085,7.211-0.605,8.367-2.07
				c1.014-1.267,1.464-3.085,1.352-5.451c-0.085-2.14-0.48-3.69-1.183-4.648C239.625,135.659,238.342,135.025,236.709,135.082z"/>
			<path d="M237.633,170.481c-0.154,0-0.308-0.003-0.464-0.009c-2.238-0.096-4.157-0.801-5.711-2.096
				c-2.459-2.07-3.621-5.983-3.56-11.967c0.056-6.092,0.17-10.816,0.34-14.038c0.249-5.519,2.157-8.861,5.672-9.923
				c3.102-0.927,5.642-0.705,7.548,0.632c1.037,0.761,1.96,2.013,2.844,3.843c0.698,1.561,0.911,3.664,0.665,6.461
				c-0.283,3.016-1.011,5.103-2.228,6.386c-1.065,1.135-2.795,1.89-5.283,2.303c-1.778,0.288-3.456,0.359-5.026,0.209
				c0.161,10.407,1.591,12.093,2.033,12.362c0.927,0.584,1.811,0.864,2.718,0.864l0,0c0.338,0,0.685-0.041,1.03-0.121
				c0.073-0.018,0.541-0.157,2.615-1.176c0.416-0.192,0.805-0.284,1.183-0.284c0.498,0,1.439,0.172,2.15,1.325
				c0.931,1.457,0.368,2.657-0.472,3.287C241.885,169.833,239.855,170.481,237.633,170.481z M233.323,166.776
				c1.087,0.797,2.383,1.22,3.945,1.287c0.12,0.005,0.243,0.007,0.365,0.007c1.699,0,3.189-0.464,4.55-1.418
				c-0.016-0.032-0.038-0.071-0.068-0.117c-0.065-0.106-0.114-0.161-0.141-0.188c-0.024,0.006-0.061,0.018-0.112,0.042
				c-2.13,1.047-2.768,1.27-3.108,1.348c-0.523,0.121-1.053,0.183-1.575,0.183l0,0C235.871,167.92,234.573,167.535,233.323,166.776z
				 M230.361,158.829c0.137,2.392,0.536,4.299,1.194,5.709C231.07,163.358,230.643,161.576,230.361,158.829z M230.408,149.578
				c-0.006,0.279-0.011,0.563-0.017,0.851c0.136-0.175,0.301-0.313,0.481-0.414C230.691,149.896,230.535,149.75,230.408,149.578z
				 M232.427,147.953c0.101,0.001,0.202,0.001,0.303,0.001c4.727,0,6.232-1.014,6.709-1.618c0.825-1.032,1.191-2.593,1.094-4.648
				c-0.093-2.358-0.568-3.471-0.951-3.992c-0.682-0.97-1.528-1.413-2.675-1.413l-0.157,0.003c-0.593,0.039-1.284,0.341-2.019,0.897
				c-0.782,0.598-1.345,1.355-1.717,2.308C232.872,139.845,232.543,141.346,232.427,147.953z"/>
		</g>
		<g>
			<path d="M263.255,165.294c0.732-0.338,1.323-0.14,1.774,0.592c0.45,0.705,0.394,1.268-0.169,1.691
				c-1.69,1.211-3.606,1.775-5.747,1.69c-1.972-0.085-3.634-0.69-4.987-1.817c-2.141-1.802-3.184-5.479-3.126-11.029
				c0.056-6.113,0.169-10.776,0.338-13.987c0.225-4.986,1.831-7.93,4.817-8.832c2.732-0.816,4.902-0.662,6.508,0.465
				c0.845,0.62,1.662,1.747,2.451,3.381c0.592,1.324,0.775,3.268,0.549,5.831c-0.254,2.704-0.887,4.592-1.901,5.662
				c-0.874,0.93-2.409,1.578-4.606,1.944c-1.916,0.311-3.691,0.353-5.324,0.127c-0.479-0.085-0.718,0.127-0.718,0.634
				c0.084,8.338,0.957,13.015,2.62,14.029c1.521,0.958,3.07,1.254,4.648,0.888C260.748,166.477,261.705,166.055,263.255,165.294z
				 M258.607,135.082c-0.873,0.057-1.774,0.437-2.704,1.141c-0.958,0.733-1.662,1.677-2.113,2.831
				c-0.366,0.902-0.592,3.972-0.676,9.212c0,0.564,0.267,0.859,0.803,0.887c4.422,0.085,7.211-0.605,8.367-2.07
				c1.014-1.267,1.464-3.085,1.352-5.451c-0.085-2.14-0.48-3.69-1.183-4.648C261.522,135.659,260.24,135.025,258.607,135.082z"/>
			<path d="M259.531,170.481c-0.154,0-0.308-0.003-0.464-0.009c-2.238-0.096-4.157-0.801-5.711-2.096
				c-2.459-2.07-3.621-5.983-3.56-11.967c0.056-6.092,0.17-10.816,0.34-14.038c0.249-5.519,2.157-8.861,5.672-9.923
				c3.102-0.927,5.642-0.705,7.548,0.632c1.037,0.761,1.96,2.013,2.844,3.843c0.698,1.561,0.911,3.664,0.665,6.461
				c-0.283,3.016-1.011,5.103-2.228,6.386c-1.065,1.135-2.795,1.89-5.283,2.303c-1.778,0.288-3.456,0.359-5.026,0.209
				c0.161,10.407,1.591,12.093,2.033,12.362c0.927,0.584,1.811,0.864,2.718,0.864l0,0c0.339,0,0.685-0.041,1.03-0.121
				c0.073-0.018,0.541-0.157,2.615-1.176c0.416-0.192,0.805-0.284,1.183-0.284c0.498,0,1.439,0.172,2.15,1.325
				c0.931,1.457,0.368,2.657-0.472,3.287C263.783,169.833,261.753,170.481,259.531,170.481z M255.221,166.776
				c1.087,0.797,2.383,1.22,3.945,1.287c0.12,0.005,0.243,0.007,0.365,0.007c1.699,0,3.189-0.464,4.55-1.418
				c-0.016-0.032-0.038-0.071-0.068-0.117c-0.065-0.106-0.114-0.161-0.141-0.188c-0.024,0.006-0.061,0.018-0.112,0.042
				c-2.13,1.047-2.768,1.27-3.108,1.348c-0.523,0.121-1.053,0.183-1.575,0.183l0,0C257.769,167.92,256.471,167.535,255.221,166.776z
				 M252.259,158.829c0.137,2.392,0.536,4.299,1.194,5.709C252.968,163.358,252.541,161.576,252.259,158.829z M252.306,149.578
				c-0.006,0.279-0.011,0.563-0.017,0.851c0.136-0.175,0.301-0.313,0.481-0.414C252.589,149.896,252.433,149.75,252.306,149.578z
				 M254.325,147.953c0.101,0.001,0.202,0.001,0.303,0.001c4.727,0,6.232-1.014,6.709-1.618c0.825-1.032,1.191-2.593,1.094-4.648
				c-0.093-2.358-0.568-3.471-0.951-3.992c-0.682-0.97-1.528-1.413-2.675-1.413l-0.157,0.003c-0.593,0.039-1.284,0.341-2.019,0.897
				c-0.782,0.598-1.345,1.355-1.717,2.308C254.769,139.845,254.441,141.346,254.325,147.953z"/>
		</g>
		<g>
			<path d="M288.195,140.194c0.985,2.761,1.38,6.987,1.183,12.677c-0.198,5.86-0.93,9.903-2.197,12.128
				c-1.775,3.127-4.057,4.633-6.846,4.522c-0.733-0.029-1.62-0.198-2.662-0.507c-0.789-0.225-1.226-0.281-1.31-0.169
				c-0.226,0.282-0.296,3.197-0.211,8.747c0.084,4.733,0.127,7.733,0.127,9.001c-0.084,1.465-0.62,2.169-1.606,2.113
				c-0.422-0.028-0.662-0.662-0.718-1.901c-0.028-0.254-0.042-0.859-0.042-1.817c0-0.817-0.028-1.465-0.084-1.944
				c-0.113-1.352-0.099-6.268,0.042-14.747c0.14-8.676,0.127-17.057-0.042-25.143c0-0.225,0.014-1.422,0.042-3.591
				c0.084-3.606,0.127-5.367,0.127-5.282c0.112-0.338,0.423-0.507,0.93-0.507c0.535-0.028,0.803,0.141,0.803,0.507
				c0,1.071,0.07,1.677,0.211,1.817c-0.028-0.056,1.014-0.661,3.127-1.817c0.845-0.479,1.831-0.704,2.958-0.676
				c1.183,0.029,2.155,0.367,2.916,1.014C286.18,135.659,287.265,137.519,288.195,140.194z M285.448,163.731
				c1.239-2.282,1.788-6.492,1.648-12.635c-0.141-5.465-0.578-9.127-1.31-10.986c-0.62-1.521-1.197-2.578-1.732-3.169
				c-0.705-0.761-1.648-1.141-2.831-1.141c-1.043,0-2.282,0.634-3.719,1.901c-0.197,0.282-0.409,0.522-0.634,0.719
				c-0.395,0.591-0.592,1.211-0.592,1.859c-0.31,15.86-0.338,24.255-0.084,25.185c0.169,0.648,0.577,1.084,1.225,1.31
				C280.997,167.957,283.673,166.943,285.448,163.731z"/>
			<path d="M274.78,189.913c-0.058,0-0.116-0.002-0.175-0.005c-1.694-0.114-1.818-2.255-1.853-3.015
				c-0.022-0.222-0.045-0.662-0.045-1.907c0-0.765-0.025-1.372-0.076-1.804c-0.121-1.445-0.109-6.308,0.034-14.907
				c0.14-8.636,0.125-17.08-0.042-25.097c0-0.251,0.014-1.454,0.042-3.633l0.094-3.976c0.011-0.43,0.019-0.801,0.045-1.116
				c-0.008-0.057-0.012-0.115-0.012-0.174h0.029c0.015-0.135,0.035-0.259,0.061-0.371l-0.029-0.01
				c0.029-0.086,0.073-0.197,0.139-0.318c0.032-0.067,0.069-0.127,0.112-0.18c0.28-0.398,0.809-0.825,1.79-0.834
				c0.048-0.002,0.095-0.003,0.14-0.003c1.213,0,1.807,0.736,1.89,1.523c0.433-0.243,0.955-0.531,1.564-0.865
				c0.962-0.545,2.096-0.826,3.353-0.826l0.213,0.003c1.461,0.035,2.695,0.473,3.668,1.302c1.416,1.191,2.599,3.188,3.611,6.1
				c1.043,2.923,1.453,7.216,1.249,13.114c-0.207,6.115-0.977,10.264-2.355,12.683c-2.003,3.529-4.685,5.256-7.941,5.129
				c-0.828-0.032-1.778-0.209-2.903-0.54c-0.054,1.017-0.091,3.103-0.026,7.388c0.085,4.792,0.127,7.743,0.127,9.019
				c0,0.023-0.001,0.046-0.002,0.069C277.314,189.596,275.536,189.913,274.78,189.913z M274.959,178.316
				c-0.007,2.428,0.016,3.975,0.071,4.625c0.002,0.018,0.004,0.035,0.006,0.053C275.017,181.717,274.991,180.156,274.959,178.316z
				 M275.109,166.036c-0.01,0.758-0.021,1.517-0.033,2.278c-0.005,0.271-0.009,0.539-0.014,0.803c0.092-0.692,0.218-0.85,0.36-1.027
				c0.112-0.151,0.402-0.434,0.93-0.496C275.762,167.23,275.342,166.703,275.109,166.036z M277.801,139.202
				c-0.213,0.353-0.317,0.707-0.317,1.077c-0.396,20.261-0.246,24.288-0.122,24.888c0.066,0.251,0.185,0.375,0.453,0.469
				c0.818,0.27,1.597,0.411,2.298,0.411l0,0c1.802,0,3.202-0.948,4.28-2.899c1.127-2.076,1.633-6.123,1.499-12.023
				c-0.137-5.295-0.55-8.853-1.227-10.572c-0.698-1.711-1.204-2.47-1.505-2.803c-0.467-0.505-1.086-0.744-1.937-0.744
				c-0.494,0-1.382,0.265-2.821,1.512C278.214,138.772,278.013,139.001,277.801,139.202z M287.838,143.932
				c0.149,1.202,0.265,2.588,0.349,4.168C288.134,146.549,288.017,145.159,287.838,143.932z M275.137,136.994
				c-0.017,0.72-0.037,1.585-0.061,2.595c-0.008,0.626-0.015,1.171-0.021,1.635c0.006-0.319,0.013-0.641,0.019-0.968
				c0-0.865,0.267-1.716,0.795-2.505c0.059-0.088,0.129-0.168,0.209-0.238c0.092-0.081,0.184-0.175,0.273-0.283
				C275.94,137.378,275.471,137.293,275.137,136.994z M277.018,135.554c0.097,0.191,0.137,0.398,0.127,0.6
				C277.156,135.964,277.121,135.759,277.018,135.554z"/>
		</g>
		<g>
			<path d="M318.966,164.407c0.619,0.085,0.732,0.577,0.338,1.479c-0.395,0.874-1.029,1.663-1.902,2.366
				c-1.183,0.93-2.564,1.211-4.141,0.845c-1.86-0.45-3.071-1.944-3.634-4.479c-0.958-4.254-1.043-17.79-0.253-40.608
				c0.028-1.183,0.014-3.239-0.042-6.17c-0.028-2.62-0.028-4.155,0-4.606c0.056-0.704,0.423-0.93,1.098-0.676
				c0.648,0.226,0.986,0.747,1.014,1.563c0,0.395-0.071,3.86-0.211,10.395c-0.169,6.479-0.226,10.409-0.169,11.789
				c0,0.592-0.028,2.522-0.085,5.79c-0.084,3.972-0.127,7.099-0.127,9.38c-0.028,8.565,0.352,13.452,1.141,14.663
				c0.507,0.761,0.986,1.211,1.437,1.352c0.535,0.141,1.282-0.042,2.239-0.549c0.366-0.197,0.944-0.718,1.732-1.563
				C318.05,164.675,318.571,164.351,318.966,164.407z"/>
			<path d="M314.55,170.458c-0.503,0-1.029-0.062-1.561-0.186c-2.347-0.568-3.87-2.382-4.539-5.392
				c-0.99-4.393-1.081-17.777-0.281-40.911c0.027-1.147,0.012-3.205-0.043-6.105c-0.038-3.571-0.017-4.395,0.002-4.704
				c0.112-1.413,1.056-1.907,1.83-1.907c0.284,0,0.576,0.058,0.894,0.177c0.629,0.219,1.735,0.868,1.797,2.651
				c0.001,0.296-0.021,1.652-0.211,10.463c-0.168,6.439-0.225,10.378-0.17,11.713c0.001,0.655-0.026,2.555-0.084,5.86
				c-0.084,3.959-0.127,7.106-0.127,9.36c-0.038,11.59,0.714,13.65,0.945,14.005c0.426,0.639,0.692,0.812,0.766,0.85
				c0.008,0,0.022,0.001,0.04,0.001l0,0c0.131,0,0.52-0.044,1.296-0.455c0.056-0.03,0.417-0.251,1.415-1.32
				c0.953-1.036,1.812-1.457,2.614-1.343c0.825,0.113,1.216,0.605,1.375,0.888c0.5,0.892,0.048,1.927-0.101,2.268
				c-0.479,1.058-1.234,2.003-2.25,2.823C317.084,170.035,315.874,170.458,314.55,170.458z"/>
		</g>
		<g>
			<path d="M336.933,165.294c0.732-0.338,1.323-0.14,1.774,0.592c0.45,0.705,0.394,1.268-0.169,1.691
				c-1.69,1.211-3.606,1.775-5.747,1.69c-1.972-0.085-3.634-0.69-4.987-1.817c-2.141-1.802-3.184-5.479-3.126-11.029
				c0.056-6.113,0.169-10.776,0.338-13.987c0.225-4.986,1.831-7.93,4.817-8.832c2.732-0.816,4.902-0.662,6.508,0.465
				c0.845,0.62,1.662,1.747,2.451,3.381c0.592,1.324,0.775,3.268,0.549,5.831c-0.254,2.704-0.887,4.592-1.901,5.662
				c-0.874,0.93-2.409,1.578-4.606,1.944c-1.916,0.311-3.691,0.353-5.324,0.127c-0.479-0.085-0.718,0.127-0.718,0.634
				c0.084,8.338,0.957,13.015,2.62,14.029c1.521,0.958,3.07,1.254,4.648,0.888C334.426,166.477,335.383,166.055,336.933,165.294z
				 M332.285,135.082c-0.873,0.057-1.774,0.437-2.704,1.141c-0.958,0.733-1.662,1.677-2.113,2.831
				c-0.366,0.902-0.592,3.972-0.676,9.212c0,0.564,0.267,0.859,0.803,0.887c4.422,0.085,7.211-0.605,8.367-2.07
				c1.014-1.267,1.464-3.085,1.352-5.451c-0.085-2.14-0.48-3.69-1.183-4.648C335.2,135.659,333.918,135.025,332.285,135.082z"/>
			<path d="M333.209,170.481c-0.154,0-0.308-0.003-0.464-0.009c-2.238-0.096-4.157-0.801-5.711-2.096
				c-2.459-2.07-3.621-5.983-3.56-11.967c0.056-6.092,0.17-10.816,0.34-14.038c0.249-5.519,2.157-8.861,5.672-9.923
				c3.102-0.927,5.642-0.705,7.548,0.632c1.037,0.761,1.96,2.013,2.844,3.843c0.698,1.561,0.911,3.664,0.665,6.461
				c-0.283,3.016-1.011,5.103-2.228,6.386c-1.065,1.135-2.795,1.89-5.283,2.303c-1.778,0.288-3.457,0.359-5.026,0.209
				c0.161,10.407,1.591,12.093,2.033,12.362c0.927,0.584,1.811,0.864,2.718,0.864l0,0c0.338,0,0.685-0.041,1.03-0.121
				c0.073-0.018,0.541-0.157,2.615-1.176c0.416-0.192,0.805-0.284,1.183-0.284c0.498,0,1.439,0.172,2.15,1.325
				c0.931,1.457,0.368,2.657-0.472,3.287C337.46,169.833,335.43,170.481,333.209,170.481z M328.898,166.776
				c1.087,0.797,2.383,1.22,3.945,1.287c0.12,0.005,0.243,0.007,0.365,0.007c1.699,0,3.189-0.464,4.55-1.418
				c-0.016-0.032-0.038-0.071-0.068-0.117c-0.065-0.106-0.114-0.161-0.141-0.188c-0.024,0.006-0.061,0.018-0.112,0.042
				c-2.13,1.047-2.768,1.27-3.108,1.348c-0.523,0.121-1.053,0.183-1.575,0.183l0,0C331.446,167.92,330.149,167.535,328.898,166.776z
				 M325.936,158.829c0.137,2.392,0.536,4.299,1.194,5.709C326.645,163.358,326.218,161.576,325.936,158.829z M325.983,149.578
				c-0.006,0.279-0.011,0.563-0.017,0.851c0.136-0.175,0.301-0.313,0.481-0.414C326.266,149.896,326.11,149.75,325.983,149.578z
				 M328.002,147.953c0.101,0.001,0.203,0.001,0.303,0.001c4.727,0,6.232-1.014,6.709-1.618c0.825-1.032,1.191-2.593,1.094-4.648
				c-0.093-2.358-0.568-3.471-0.951-3.992c-0.682-0.97-1.528-1.413-2.675-1.413l-0.157,0.003c-0.593,0.039-1.284,0.341-2.019,0.897
				c-0.782,0.598-1.345,1.355-1.717,2.308C328.447,139.845,328.118,141.346,328.002,147.953z"/>
		</g>
		<g>
			<path d="M365.084,167.492c0.338-0.225,0.634-0.127,0.888,0.296c0.225,0.338,0.31,0.606,0.254,0.802
				c-0.113,0.423-0.564,0.649-1.352,0.676c-0.789,0.028-1.381-0.141-1.775-0.507c-0.705-0.676-1.254-1.028-1.648-1.057
				c-0.169-0.028-0.592,0.113-1.267,0.423c-0.818,0.395-1.874,0.662-3.169,0.803c-3.155,0.31-5.395-0.437-6.719-2.24
				c-1.605-2.197-2.493-5.62-2.662-10.268c-0.197-6-0.141-10.691,0.169-14.071c0.366-4.056,1.944-6.915,4.733-8.578
				c0.901-0.535,2.14-0.788,3.719-0.761c2.197,0.029,3.972,0.818,5.324,2.366c0.17,0.169,0.239-0.028,0.211-0.592
				c0-0.169,0-0.436,0-0.803c-0.028-0.338-0.042-0.563-0.042-0.676c0-0.338,0.323-0.465,0.972-0.38
				c0.619,0.084,0.985,0.296,1.098,0.633c-0.085-0.253-0.085,1.522,0,5.324c0.197,5.156,0.281,8.254,0.254,9.296
				c0,0.592-0.015,2.494-0.042,5.705c-0.028,3.071-0.057,5.268-0.085,6.592c0,0.254,0,0.789,0,1.606
				c0,0.817-0.014,1.437-0.042,1.859c-0.029,0.592-0.042,1.268-0.042,2.029c0,0.733,0.112,1.211,0.338,1.437
				C364.451,167.661,364.746,167.689,365.084,167.492z M361.704,164.872c0.31-0.507,0.464-5.437,0.464-14.79
				c0-7.381-0.662-11.747-1.986-13.1c-1.24-1.324-2.747-1.971-4.522-1.944c-1.493,0-2.789,0.775-3.888,2.324
				c-1.071,1.493-1.732,3.324-1.986,5.493c-0.31,2.93-0.338,6.803-0.085,11.62c0.31,5.804,1.014,9.367,2.113,10.691
				c1.126,1.38,2.972,1.901,5.535,1.563C359.689,166.45,361.14,165.83,361.704,164.872z"/>
			<path d="M364.709,170.475c-1.019,0-1.837-0.28-2.432-0.832c-0.487-0.468-0.767-0.646-0.891-0.711
				c-0.117,0.039-0.332,0.121-0.701,0.29c-0.928,0.449-2.094,0.748-3.541,0.905c-0.512,0.051-0.999,0.075-1.46,0.075
				c-2.856,0-4.997-0.942-6.361-2.8c-1.769-2.421-2.716-5.998-2.895-10.938c-0.198-6.029-0.14-10.814,0.174-14.225
				c0.401-4.441,2.189-7.639,5.316-9.503c1.044-0.619,2.425-0.932,4.106-0.932l0.251,0.002c1.622,0.021,3.063,0.411,4.303,1.163
				c0.144-0.662,0.718-1.272,1.791-1.272c0.15,0,0.319,0.011,0.506,0.035c1.194,0.162,1.739,0.704,1.987,1.206
				c0.11,0.182,0.173,0.396,0.173,0.623c0,0.141-0.024,0.275-0.068,0.401c-0.013,0.429-0.017,1.618,0.056,4.896
				c0.2,5.214,0.283,8.28,0.254,9.355c0.001,0.561-0.014,2.467-0.042,5.684c-0.028,3.078-0.057,5.28-0.085,6.607v1.581
				c0,0.848-0.015,1.482-0.044,1.938c-0.026,0.537-0.04,1.2-0.04,1.95c0,0.088,0.002,0.167,0.005,0.235
				c0.116-0.025,0.233-0.037,0.351-0.037c0.368,0,1.063,0.13,1.584,0.998c0.13,0.192,0.616,0.923,0.38,1.752
				c-0.144,0.541-0.665,1.488-2.469,1.552C364.845,170.474,364.776,170.475,364.709,170.475z M361.785,166.534
				c0.3,0.058,0.607,0.184,0.937,0.385c-0.057-0.336-0.069-0.667-0.069-0.948c0-0.117,0.001-0.231,0.001-0.344
				C362.434,165.964,362.145,166.267,361.785,166.534z M355.77,136.244l-0.09,0.001c-1.107,0-2.056,0.594-2.923,1.816
				c-0.948,1.323-1.543,2.982-1.772,4.936c-0.3,2.836-0.327,6.682-0.078,11.417c0.386,7.226,1.317,9.357,1.837,9.984
				c0.676,0.829,1.714,1.227,3.178,1.227l0,0c0.394,0,0.822-0.03,1.272-0.089c2.431-0.293,3.188-0.891,3.421-1.201
				c0.118-0.552,0.348-3.065,0.348-14.253c0-9.548-1.148-11.752-1.642-12.257C358.317,136.755,357.161,136.244,355.77,136.244z
				 M361.443,136.62c0.415,0.593,0.852,1.555,1.205,3.283c-0.012-0.316-0.024-0.64-0.037-0.972
				c-0.024-1.064-0.042-1.933-0.055-2.644c-0.228,0.217-0.567,0.355-0.878,0.355C361.608,136.641,361.529,136.636,361.443,136.62z"
				/>
		</g>
		<g>
			<path d="M374.22,139.349c0-0.31-0.028-1.296-0.084-2.958c-0.057-1.408-0.057-2.183,0-2.324c0.112-0.31,0.45-0.479,1.014-0.507
				c0.563-0.056,0.845,0.099,0.845,0.465c-0.028,0.592-0.028,1.198,0,1.817c0,0.507,0.155,0.789,0.465,0.845
				c2.113-1.887,3.915-2.901,5.409-3.042c3.042-0.31,5.38,0.353,7.015,1.986c0.619,0.648,0.619,1.141,0,1.479
				c-0.62,0.338-1.24,0.226-1.859-0.338c-1.071-0.93-2.451-1.337-4.141-1.226c-2.113,0.113-3.803,0.987-5.071,2.62
				c-0.733,0.93-1.282,3.24-1.648,6.93c-0.366,3.945-0.24,11.494,0.38,22.65c0,0.451-0.099,0.859-0.296,1.226
				c-0.226,0.366-0.493,0.549-0.803,0.549c-0.648,0-1.057-0.408-1.226-1.226c-0.169-0.648-0.211-2.887-0.127-6.718
				c0.028-1.775,0.042-6.916,0.042-15.424C374.107,144.885,374.135,142.618,374.22,139.349z"/>
			<path d="M375.445,170.726c-1.216,0-2.111-0.806-2.401-2.159c-0.135-0.549-0.271-1.88-0.157-7.017
				c0.028-1.79,0.042-6.973,0.042-15.397c-0.029-1.268-0.001-3.512,0.085-6.834c-0.001-0.258-0.029-1.239-0.084-2.886
				c-0.091-2.253-0.029-2.527,0.087-2.816c0.148-0.413,0.638-1.187,2.07-1.26c0.059-0.008,0.169-0.013,0.271-0.013
				c1.265,0,1.841,0.872,1.841,1.682c-0.008,0.171-0.014,0.338-0.017,0.504c1.693-1.27,3.199-1.955,4.572-2.085
				c0.514-0.052,1.027-0.079,1.514-0.079c2.689,0,4.865,0.812,6.466,2.414c0.637,0.666,0.898,1.326,0.796,1.98
				c-0.064,0.411-0.301,0.99-1.071,1.41c-1.065,0.582-2.249,0.405-3.248-0.505c-0.805-0.698-1.886-1.008-3.25-0.914
				c-1.778,0.095-3.146,0.8-4.198,2.156c-0.271,0.344-0.937,1.63-1.401,6.31c-0.358,3.86-0.229,11.421,0.384,22.464
				c0.001,0.022,0.002,0.045,0.002,0.067c0,0.649-0.148,1.253-0.439,1.796c-0.011,0.022-0.024,0.043-0.036,0.064
				C376.67,170.581,375.869,170.726,375.445,170.726z M375.287,166.856c0.01,0.257,0.022,0.457,0.034,0.615
				C375.309,167.265,375.298,167.059,375.287,166.856z M375.375,137.438c0.034,1.048,0.049,1.663,0.049,1.911
				c-0.024,0.92-0.043,1.761-0.058,2.522c0.373-2.202,0.804-3.329,1.181-3.983c-0.099,0.008-0.201,0.002-0.303-0.015
				C376.072,137.842,375.7,137.743,375.375,137.438z"/>
		</g>
		<g>
			<path d="M395.441,139.053c0.085-3.577,0.085-5.282,0-5.113c0.112-0.31,0.493-0.521,1.141-0.634
				c0.648-0.085,0.972,0.057,0.972,0.423c0,0.112-0.014,0.338-0.042,0.676c-0.029,0.338-0.042,0.592-0.042,0.761
				c0,0.592,0.07,0.803,0.211,0.634c1.408-1.662,3.408-2.493,6-2.493c3.493,0,5.958,0.775,7.395,2.324
				c0.534,0.592,1.056,2.761,1.563,6.507c0.338,2.479,0.464,9.818,0.38,22.016c0,0.338,0.028,0.958,0.084,1.86
				c0.056,0.902,0.085,1.507,0.085,1.817c0,0.451-0.155,0.803-0.465,1.057c-0.225,0.226-0.451,0.324-0.676,0.296
				c-0.789-0.056-1.226-0.549-1.31-1.479c0.028,0.282,0.042-1.098,0.042-4.141c0.057-8.507,0.028-13.508-0.084-15.001
				c-0.113-1.662-0.211-4.197-0.296-7.606c-0.028-1.944-0.464-3.324-1.31-4.141c-1.183-1.155-2.916-1.662-5.197-1.521
				c-2.254,0.141-3.803,0.733-4.648,1.774c-0.705,0.93-1.268,3.522-1.691,7.776c-0.366,3.944-0.24,11.493,0.38,22.649
				c0,0.451-0.099,0.859-0.296,1.226c-0.226,0.366-0.493,0.549-0.803,0.549c-0.648,0-1.057-0.408-1.226-1.226
				c-0.169-0.648-0.211-2.887-0.127-6.718c0.028-1.775,0.042-6.916,0.042-15.424C395.441,142.124,395.413,139.843,395.441,139.053z"
				/>
			<path d="M396.835,170.472c-1.216,0-2.111-0.806-2.401-2.159c-0.135-0.549-0.271-1.88-0.157-7.017
				c0.028-1.79,0.042-6.973,0.042-15.397c-0.086-3.806-0.114-6.069-0.084-6.889c0.078-3.274,0.068-4.357,0.053-4.715
				c-0.075-0.243-0.074-0.51,0.019-0.766c0.27-0.743,0.965-1.218,2.067-1.41c0.23-0.031,0.392-0.042,0.537-0.042
				c1.068,0,1.647,0.607,1.803,1.274c1.379-0.831,3.04-1.25,4.966-1.25c3.825,0,6.611,0.912,8.278,2.71
				c0.557,0.617,1.161,1.902,1.874,7.165c0.349,2.558,0.477,9.815,0.391,22.186c0,0.21,0.014,0.698,0.082,1.776
				c0.059,0.935,0.087,1.555,0.087,1.892c0,0.794-0.297,1.466-0.859,1.95c-0.526,0.505-1.055,0.613-1.41,0.613
				c-0.064,0-0.127-0.003-0.191-0.01c-1.365-0.109-2.26-1.068-2.396-2.57c-0.011-0.117-0.004-0.231,0.017-0.34
				c0.009-0.31,0.02-1.227,0.02-3.91c0.056-8.433,0.029-13.447-0.081-14.911c-0.115-1.694-0.213-4.199-0.299-7.666
				c-0.024-1.592-0.349-2.73-0.942-3.304c-0.941-0.918-2.356-1.302-4.285-1.185c-1.865,0.117-3.175,0.577-3.786,1.33
				c-0.231,0.307-0.885,1.681-1.428,7.135c-0.358,3.86-0.229,11.42,0.384,22.463c0.001,0.022,0.002,0.045,0.002,0.067
				c0,0.649-0.148,1.253-0.439,1.796c-0.011,0.021-0.024,0.042-0.036,0.063C398.061,170.326,397.26,170.472,396.835,170.472z
				 M411.943,167.641c0.01,0.092,0.025,0.161,0.039,0.211c0.001-0.007,0.001-0.015,0.001-0.022c0-0.099-0.004-0.268-0.016-0.555
				C411.962,167.401,411.954,167.524,411.943,167.641z M396.677,166.602c0.01,0.256,0.022,0.457,0.034,0.615
				C396.7,167.011,396.689,166.806,396.677,166.602z M396.699,136.698c-0.012,0.653-0.03,1.438-0.053,2.385
				c-0.016,0.469-0.013,1.485,0.011,3.038c0.389-2.833,0.816-4.268,1.21-5.088c-0.105,0.023-0.198,0.029-0.27,0.029
				C397.291,137.062,396.956,136.979,396.699,136.698z"/>
		</g>
		<g>
			<path d="M422.832,126.841c0.169-0.197,0.577-0.296,1.226-0.296c0.619,0,1.056,0.183,1.31,0.549
				c0.281,0.423,0.423,0.859,0.423,1.31c0,1.156-0.564,1.719-1.691,1.69c-0.62,0-1.113-0.197-1.479-0.592
				c-0.338-0.338-0.493-0.718-0.465-1.141C422.183,127.771,422.409,127.264,422.832,126.841z M423.381,155.195
				c-0.028,2.874-0.015,4.972,0.042,6.296c0.056,2.846,0.169,5.184,0.338,7.015c0.028,0.676,0.324,0.901,0.888,0.676
				c0.619-0.281,0.901-0.816,0.845-1.605c-0.028-1.127-0.028-3.324,0-6.592c0-4.226,0.07-7.86,0.211-10.902
				c0.141-2.705,0.127-5.409-0.042-8.114c-0.169-2.76-0.24-4.394-0.211-4.902c0.028-1.267-0.225-2.225-0.761-2.873
				c-0.535-0.592-0.986-0.662-1.352-0.211c-0.056,0.057-0.042,4.888,0.042,14.494C423.408,149.547,423.408,151.787,423.381,155.195z
				"/>
			<path d="M424.276,170.472L424.276,170.472c-0.751,0-1.647-0.494-1.718-1.883c-0.17-1.853-0.284-4.233-0.34-7.075
				c-0.057-1.318-0.071-3.399-0.042-6.332c0.028-3.377,0.028-5.624,0.001-6.675c-0.128-14.505-0.131-14.92,0.27-15.337
				c0.381-0.443,0.882-0.686,1.416-0.686c0.603,0,1.183,0.303,1.724,0.9c0.758,0.917,1.107,2.151,1.071,3.709
				c-0.015,0.297-0.007,1.257,0.21,4.801c0.171,2.73,0.186,5.507,0.043,8.25c-0.139,2.995-0.21,6.644-0.21,10.84
				c-0.028,3.249-0.028,5.454-0.001,6.562c0.089,1.229-0.475,2.245-1.552,2.733C424.809,170.416,424.54,170.472,424.276,170.472z
				 M424.548,143.846c0.009,1.179,0.019,2.492,0.032,3.959C424.607,146.484,424.596,145.161,424.548,143.846z M424.18,131.302
				l-0.112-0.002c-0.001,0-0.001,0-0.002,0c-0.922,0-1.739-0.338-2.331-0.978c-0.553-0.552-0.835-1.269-0.783-2.04
				c0.04-0.851,0.387-1.642,1.002-2.268c0.555-0.603,1.463-0.673,2.103-0.673c1.29,0,1.963,0.581,2.301,1.068
				c0.427,0.641,0.638,1.306,0.638,1.996C426.995,130.192,425.917,131.302,424.18,131.302z M423.604,127.781
				c-0.157,0.186-0.233,0.387-0.245,0.64c-0.004,0.058-0.008,0.11,0.113,0.231c0.089,0.095,0.222,0.238,0.626,0.238l0.081,0.001
				c0.249,0,0.333-0.049,0.338-0.052c-0.002-0.001,0.066-0.104,0.066-0.433c0-0.209-0.072-0.419-0.221-0.642
				c0.008,0.023-0.094-0.012-0.306-0.012C423.824,127.752,423.682,127.767,423.604,127.781z"/>
		</g>
		<g>
			<path d="M434.925,139.053c0.085-3.577,0.085-5.282,0-5.113c0.112-0.31,0.493-0.521,1.141-0.634
				c0.648-0.085,0.972,0.057,0.972,0.423c0,0.112-0.014,0.338-0.042,0.676c-0.029,0.338-0.042,0.592-0.042,0.761
				c0,0.592,0.07,0.803,0.211,0.634c1.408-1.662,3.408-2.493,6-2.493c3.493,0,5.958,0.775,7.395,2.324
				c0.535,0.592,1.056,2.761,1.564,6.507c0.338,2.479,0.464,9.818,0.38,22.016c0,0.338,0.028,0.958,0.084,1.86
				c0.057,0.902,0.085,1.507,0.085,1.817c0,0.451-0.155,0.803-0.465,1.057c-0.225,0.226-0.451,0.324-0.676,0.296
				c-0.789-0.056-1.226-0.549-1.31-1.479c0.028,0.282,0.042-1.098,0.042-4.141c0.057-8.507,0.028-13.508-0.084-15.001
				c-0.113-1.662-0.211-4.197-0.296-7.606c-0.028-1.944-0.464-3.324-1.31-4.141c-1.183-1.155-2.916-1.662-5.197-1.521
				c-2.254,0.141-3.803,0.733-4.648,1.774c-0.705,0.93-1.268,3.522-1.691,7.776c-0.366,3.944-0.24,11.493,0.38,22.649
				c0,0.451-0.099,0.859-0.296,1.226c-0.226,0.366-0.493,0.549-0.803,0.549c-0.648,0-1.057-0.408-1.226-1.226
				c-0.169-0.648-0.211-2.887-0.127-6.718c0.028-1.775,0.042-6.916,0.042-15.424C434.925,142.124,434.897,139.843,434.925,139.053z"
				/>
			<path d="M436.319,170.472c-1.216,0-2.111-0.806-2.401-2.159c-0.135-0.549-0.271-1.88-0.157-7.017
				c0.028-1.79,0.042-6.973,0.042-15.397c-0.086-3.806-0.114-6.069-0.084-6.889c0.078-3.274,0.068-4.357,0.053-4.715
				c-0.075-0.243-0.074-0.51,0.019-0.766c0.27-0.743,0.965-1.218,2.067-1.41c0.23-0.031,0.392-0.042,0.537-0.042
				c1.068,0,1.647,0.607,1.803,1.274c1.379-0.831,3.04-1.25,4.966-1.25c3.825,0,6.611,0.912,8.278,2.71
				c0.557,0.617,1.161,1.902,1.874,7.165c0.349,2.558,0.477,9.815,0.391,22.186c0,0.21,0.014,0.698,0.082,1.776
				c0.059,0.935,0.087,1.555,0.087,1.892c0,0.794-0.297,1.466-0.859,1.95c-0.526,0.505-1.055,0.613-1.41,0.613
				c-0.064,0-0.127-0.003-0.191-0.01c-1.365-0.109-2.26-1.068-2.396-2.57c-0.011-0.117-0.004-0.231,0.017-0.34
				c0.009-0.31,0.02-1.227,0.02-3.91c0.056-8.433,0.029-13.447-0.081-14.911c-0.115-1.694-0.213-4.199-0.299-7.666
				c-0.024-1.592-0.349-2.73-0.942-3.304c-0.941-0.918-2.356-1.302-4.285-1.185c-1.865,0.117-3.175,0.577-3.786,1.33
				c-0.231,0.307-0.885,1.681-1.428,7.135c-0.358,3.86-0.229,11.42,0.384,22.463c0.001,0.022,0.002,0.045,0.002,0.067
				c0,0.649-0.148,1.253-0.439,1.796c-0.011,0.021-0.024,0.042-0.036,0.063C437.546,170.326,436.744,170.472,436.319,170.472z
				 M451.428,167.641c0.01,0.092,0.025,0.161,0.039,0.211c0.001-0.007,0.001-0.015,0.001-0.022c0-0.099-0.004-0.268-0.016-0.555
				C451.446,167.401,451.439,167.524,451.428,167.641z M436.162,166.602c0.01,0.256,0.022,0.457,0.034,0.615
				C436.184,167.011,436.173,166.806,436.162,166.602z M436.183,136.698c-0.012,0.653-0.03,1.438-0.053,2.385
				c-0.016,0.469-0.013,1.485,0.011,3.038c0.389-2.833,0.816-4.268,1.21-5.088c-0.105,0.023-0.198,0.029-0.27,0.029
				C436.776,137.062,436.441,136.979,436.183,136.698z"/>
		</g>
		<g>
			<path d="M477.612,142.18c0.563,10.733,0.55,19.889-0.042,27.467c-0.62,7.972-1.634,12.592-3.043,13.86
				c-1.267,1.155-2.944,1.732-5.028,1.732c-1.916,0-3.691-0.592-5.324-1.775c-0.592-0.423-0.704-0.916-0.338-1.479
				c0.338-0.564,0.873-0.676,1.606-0.338l1.183,0.676c0.619,0.366,1.183,0.619,1.69,0.761c1.521,0.507,2.845,0.38,3.972-0.38
				c1.408-0.845,2.338-3.381,2.789-7.606c0.366-3.634,0.409-5.817,0.127-6.549c-0.113-0.141-0.268-0.141-0.465,0
				c-0.084,0.057-0.225,0.141-0.423,0.253c-0.31,0.17-0.549,0.296-0.718,0.38c-1.098,0.535-2.493,0.648-4.184,0.338
				c-2.507-0.507-4.493-2.099-5.958-4.775c-1.127-2.084-1.718-6.141-1.775-12.169c-0.057-5.465,0.267-9.395,0.972-11.79
				c0.958-3.38,2.113-5.451,3.465-6.212c1.578-0.872,3.916-0.845,7.015,0.085c1.662,0.507,2.774,1.226,3.338,2.155
				c0.619,0.986,0.93,1.479,0.93,1.479S477.471,139.589,477.612,142.18z M474.021,166.731c0.45-0.254,0.985-0.732,1.606-1.437
				c0.366-0.394,0.549-3.281,0.549-8.662c0-6.057-0.31-11.578-0.93-16.564c-0.169-1.155-0.789-2.084-1.859-2.789
				c-0.93-0.592-1.986-0.901-3.169-0.93c-2.338-0.084-4.029,1.198-5.071,3.845c-0.733,1.888-1.197,5.48-1.394,10.776
				c-0.226,6.085,0.281,10.255,1.521,12.508c1.38,2.535,3.085,3.902,5.113,4.099C471.626,167.718,472.838,167.436,474.021,166.731z"
				/>
			<path d="M469.499,186.445c-2.166,0-4.196-0.674-6.031-2.004c-1.104-0.788-1.357-2.012-0.642-3.113
				c0.609-1.019,1.815-1.378,3.121-0.776c0.032,0.015,0.064,0.031,0.094,0.048l1.183,0.676c0.54,0.319,1.012,0.533,1.416,0.646
				c1.295,0.428,2.156,0.333,2.975-0.218c0.018-0.012,0.035-0.023,0.054-0.034c0.48-0.288,1.657-1.518,2.21-6.7
				c0.242-2.405,0.307-3.859,0.304-4.733c-0.016,0.008-0.032,0.016-0.047,0.024c-1.343,0.655-2.993,0.803-4.938,0.445
				c-2.883-0.583-5.163-2.392-6.798-5.382c-1.236-2.285-1.864-6.449-1.923-12.737c-0.058-5.636,0.275-9.609,1.021-12.141
				c1.055-3.723,2.374-5.99,4.031-6.922c1.886-1.043,4.526-1.046,7.952-0.019c1.951,0.595,3.303,1.498,4.023,2.685l0.919,1.462
				c0.109,0.174,0.172,0.372,0.184,0.577l0.211,3.888c0.564,10.74,0.549,20.034-0.044,27.626
				c-0.858,11.025-2.288,13.628-3.438,14.663C473.849,185.756,471.884,186.445,469.499,186.445z M475.336,167.276
				c0.313,0.075,0.597,0.254,0.808,0.517c0.078,0.098,0.141,0.207,0.185,0.323c0.041,0.108,0.081,0.233,0.117,0.388
				c0.056-0.809,0.106-1.637,0.15-2.484c-0.028,0.033-0.057,0.064-0.085,0.094C476.096,166.586,475.705,166.973,475.336,167.276z
				 M470.003,137.551c-1.082,0-2.646,0.32-3.734,3.085c-0.679,1.748-1.12,5.241-1.311,10.379c-0.217,5.836,0.245,9.834,1.372,11.882
				c1.19,2.186,2.554,3.323,4.173,3.481c0.181,0.02,0.342,0.029,0.502,0.029c0.811,0,1.595-0.233,2.399-0.711
				c0.24-0.135,0.62-0.421,1.22-1.088c0.107-0.387,0.346-1.933,0.346-7.975c0-5.977-0.31-11.501-0.921-16.416
				c-0.116-0.791-0.539-1.413-1.326-1.931c-0.732-0.466-1.566-0.708-2.535-0.732C470.116,137.552,470.059,137.551,470.003,137.551z
				 M474.23,136.396c0.992,0.703,1.661,1.579,2.003,2.617l-0.018-0.343l-0.763-1.215C475.208,137.056,474.8,136.703,474.23,136.396z
				 M468.946,135.146c-0.909,0-1.665,0.162-2.245,0.483c-0.385,0.217-1.019,0.789-1.729,2.28c1.327-1.987,3.04-2.627,4.486-2.748
				C469.283,135.151,469.112,135.146,468.946,135.146z"/>
		</g>
	</g>
	<g>
		<path fill="#0681FA" d="M209.967,194.201c0.348,0,0.515,0.523,0.501,1.568c0,0.247,0.022,0.908,0.065,1.982
			c0.044,1.147,0.065,1.866,0.065,2.156c0.014,1.438,0.058,3.376,0.131,5.815c0.044,1.394,0.065,3.5,0.065,6.316
			c0,0.378-0.029,0.603-0.087,0.675c-0.204,0.247-0.363,0.37-0.479,0.37c-0.407,0-0.61-0.297-0.61-0.893
			c0.101-5.314,0.072-8.211-0.087-8.69c-0.073-0.218-0.697-0.305-1.873-0.261c-2.091,0-3.188,0.109-3.289,0.327
			c-0.145,0.334-0.233,1.525-0.261,3.572c-0.015,0.653-0.008,1.605,0.022,2.853c0.044,1.38,0.065,2.2,0.065,2.461
			c0,0.421-0.138,0.632-0.414,0.632c-0.348,0-0.574-0.16-0.675-0.479c0,0.029-0.029-0.922-0.087-2.853
			c-0.029-0.566-0.036-1.045-0.022-1.438c0.014-0.537,0.022-1.081,0.022-1.634c-0.073-6.36-0.065-10.28,0.022-11.762
			c0.014-0.436,0.181-0.668,0.501-0.697c0.319-0.044,0.493,0.131,0.523,0.523c0.029,0.741,0.044,1.677,0.044,2.81
			c-0.218,2.875-0.174,4.429,0.131,4.661c0.261,0.189,1.147,0.298,2.657,0.327c1.553,0.029,2.425-0.087,2.614-0.348
			c0.188-0.247,0.188-2.715,0-7.405C209.509,194.397,209.662,194.201,209.967,194.201z"/>
		<path fill="#0681FA" d="M224.542,212.17c0.174-0.116,0.327-0.065,0.457,0.152c0.116,0.174,0.16,0.313,0.131,0.414
			c-0.058,0.218-0.291,0.334-0.697,0.348c-0.407,0.014-0.712-0.072-0.915-0.261c-0.363-0.348-0.646-0.53-0.849-0.545
			c-0.087-0.014-0.305,0.058-0.653,0.218c-0.421,0.204-0.966,0.341-1.634,0.414c-1.626,0.16-2.781-0.225-3.463-1.154
			c-0.828-1.133-1.285-2.897-1.372-5.293c-0.102-3.093-0.073-5.51,0.087-7.253c0.188-2.091,1.002-3.564,2.439-4.421
			c0.464-0.275,1.103-0.406,1.917-0.392c1.133,0.015,2.047,0.421,2.744,1.22c0.087,0.087,0.123-0.014,0.109-0.305
			c0-0.087,0-0.225,0-0.414c-0.015-0.174-0.022-0.29-0.022-0.348c0-0.174,0.167-0.24,0.501-0.196
			c0.319,0.044,0.508,0.152,0.566,0.327c-0.044-0.131-0.044,0.784,0,2.744c0.101,2.657,0.145,4.255,0.131,4.792
			c0,0.305-0.008,1.285-0.022,2.94c-0.015,1.583-0.029,2.716-0.044,3.398c0,0.131,0,0.407,0,0.828c0,0.421-0.008,0.741-0.022,0.958
			c-0.015,0.305-0.022,0.653-0.022,1.045c0,0.378,0.058,0.625,0.174,0.741C224.215,212.257,224.368,212.272,224.542,212.17z
			 M222.8,210.82c0.16-0.261,0.24-2.802,0.24-7.623c0-3.804-0.341-6.055-1.024-6.752c-0.639-0.682-1.416-1.016-2.331-1.002
			c-0.77,0-1.438,0.4-2.004,1.198c-0.552,0.77-0.893,1.714-1.024,2.831c-0.16,1.511-0.174,3.507-0.044,5.99
			c0.16,2.992,0.523,4.828,1.089,5.51c0.58,0.712,1.532,0.98,2.853,0.806C221.761,211.633,222.509,211.314,222.8,210.82z"/>
		<path fill="#0681FA" d="M236.813,197.512c0.044-1.844,0.044-2.723,0-2.635c0.058-0.16,0.254-0.268,0.588-0.327
			c0.334-0.044,0.501,0.029,0.501,0.218c0,0.058-0.008,0.174-0.022,0.348c-0.015,0.174-0.022,0.305-0.022,0.392
			c0,0.305,0.036,0.414,0.109,0.327c0.726-0.857,1.757-1.285,3.093-1.285c1.8,0,3.071,0.4,3.812,1.198
			c0.275,0.305,0.545,1.423,0.806,3.354c0.174,1.278,0.24,5.061,0.196,11.348c0,0.174,0.014,0.494,0.044,0.958
			c0.029,0.465,0.044,0.777,0.044,0.937c0,0.233-0.08,0.414-0.24,0.545c-0.117,0.117-0.233,0.167-0.348,0.152
			c-0.407-0.029-0.632-0.283-0.675-0.762c0.014,0.145,0.022-0.566,0.022-2.135c0.029-4.385,0.014-6.962-0.044-7.732
			c-0.058-0.857-0.109-2.163-0.152-3.921c-0.015-1.002-0.24-1.713-0.675-2.134c-0.61-0.595-1.503-0.857-2.679-0.784
			c-1.162,0.073-1.96,0.378-2.396,0.915c-0.363,0.479-0.653,1.815-0.871,4.008c-0.189,2.033-0.124,5.924,0.196,11.674
			c0,0.233-0.051,0.443-0.152,0.632c-0.117,0.189-0.254,0.283-0.414,0.283c-0.334,0-0.545-0.21-0.632-0.632
			c-0.087-0.334-0.109-1.488-0.065-3.463c0.014-0.915,0.022-3.564,0.022-7.95C236.813,199.095,236.799,197.919,236.813,197.512z"/>
		<path fill="#0681FA" d="M259.71,212.17c0.174-0.116,0.327-0.065,0.457,0.152c0.116,0.174,0.16,0.313,0.131,0.414
			c-0.058,0.218-0.291,0.334-0.697,0.348c-0.407,0.014-0.712-0.072-0.915-0.261c-0.363-0.348-0.646-0.53-0.849-0.545
			c-0.087-0.014-0.305,0.058-0.653,0.218c-0.422,0.204-0.966,0.341-1.634,0.414c-1.626,0.16-2.781-0.225-3.463-1.154
			c-0.828-1.133-1.285-2.897-1.372-5.293c-0.102-3.093-0.073-5.51,0.087-7.253c0.188-2.091,1.002-3.564,2.439-4.421
			c0.464-0.275,1.103-0.406,1.917-0.392c1.133,0.015,2.047,0.421,2.744,1.22c0.087,0.087,0.123-0.014,0.109-0.305
			c0-0.087,0-0.225,0-0.414c-0.015-0.174-0.022-0.29-0.022-0.348c0-0.174,0.167-0.24,0.501-0.196
			c0.319,0.044,0.508,0.152,0.566,0.327c-0.044-0.131-0.044,0.784,0,2.744c0.101,2.657,0.145,4.255,0.131,4.792
			c0,0.305-0.008,1.285-0.022,2.94c-0.015,1.583-0.029,2.716-0.044,3.398c0,0.131,0,0.407,0,0.828c0,0.421-0.008,0.741-0.022,0.958
			c-0.015,0.305-0.022,0.653-0.022,1.045c0,0.378,0.058,0.625,0.174,0.741C259.383,212.257,259.535,212.272,259.71,212.17z
			 M257.967,210.82c0.16-0.261,0.24-2.802,0.24-7.623c0-3.804-0.341-6.055-1.024-6.752c-0.639-0.682-1.416-1.016-2.331-1.002
			c-0.77,0-1.438,0.4-2.004,1.198c-0.552,0.77-0.893,1.714-1.024,2.831c-0.16,1.511-0.174,3.507-0.044,5.99
			c0.16,2.992,0.523,4.828,1.089,5.51c0.58,0.712,1.532,0.98,2.853,0.806C256.929,211.633,257.676,211.314,257.967,210.82z"/>
		<path fill="#0681FA" d="M266.008,195.552c0.464-0.624,1.176-0.987,2.134-1.089c2.076-0.203,3.281-0.087,3.616,0.348
			c0.203,0.261,0.305,1.053,0.305,2.374c0,1.525,0.007,2.781,0.022,3.768c0.145,5.445,0.21,8.952,0.196,10.52v1.089
			c0,0.145-0.065,0.276-0.196,0.392c-0.117,0.087-0.211,0.131-0.283,0.131c-0.276-0.014-0.45-0.174-0.523-0.479
			c-0.058-0.218-0.087-0.668-0.087-1.35c-0.029-7.347-0.065-11.202-0.109-11.566c-0.029-0.29-0.065-1.147-0.109-2.57
			c-0.029-0.915-0.174-1.495-0.436-1.742c-0.174-0.174-0.922-0.21-2.243-0.109c-0.596,0.044-1.118,0.37-1.568,0.98
			c-0.247,0.334-0.4,1.329-0.457,2.984c-0.015,0.291,0,2.011,0.044,5.162c0.029,3.253,0.036,5.155,0.022,5.707
			c-0.015,1.263-0.313,2.062-0.893,2.396c-0.509,0.291-0.871,0.436-1.089,0.436c-0.479,0-0.618-0.131-0.414-0.392
			c0.058-0.072,0.196-0.181,0.414-0.327c0.218-0.145,0.384-0.283,0.501-0.414c0.436-0.436,0.639-1.14,0.61-2.113
			c-0.015-0.58-0.065-4.211-0.152-10.89C265.282,197.316,265.514,196.235,266.008,195.552z"/>
		<path fill="#0681FA" d="M282.653,202.522c0.944,0.814,1.438,2.215,1.481,4.204c0.044,2.091-0.283,3.543-0.98,4.356
			c-0.784,0.915-1.525,1.496-2.222,1.742c-0.407,0.16-1.38,0.24-2.919,0.24c-0.174,0-0.348,0-0.523,0
			c-0.174-0.014-0.291-0.101-0.348-0.261c-0.044-0.072-0.087-0.835-0.131-2.287c-0.015-0.508-0.044-4.901-0.087-13.177v-2.004
			c-0.015-0.45-0.015-0.784,0-1.002c0.029-0.16,0.196-0.24,0.501-0.24c0.247,0,0.377,0.196,0.392,0.588
			c0,0.102-0.008,0.298-0.022,0.588c-0.015,0.276-0.015,0.494,0,0.653c0,0.131,0.007,1.242,0.022,3.332
			c0,1.655,0.044,2.585,0.131,2.788c0.044,0.102,0.218,0.117,0.523,0.044l1.111-0.305c1.205-0.232,1.808-0.348,1.808-0.348
			S281.811,201.796,282.653,202.522z M283.023,206.181c-0.174-1.989-0.966-3.122-2.374-3.398c-0.915-0.174-1.721-0.058-2.418,0.348
			c-0.16,0.102-0.218,2.135-0.174,6.099c0.014,1.641,0.087,2.57,0.218,2.788c0.188,0.305,0.704,0.356,1.546,0.152
			c0.944-0.218,1.684-0.682,2.222-1.394C282.871,209.702,283.197,208.17,283.023,206.181z"/>
		<path fill="#0681FA" d="M297.294,210.123c0,0.058,0.007,1.067,0.022,3.028c0,1.742-0.015,2.643-0.044,2.701
			c-0.058,0.174-0.247,0.283-0.566,0.327c-0.334,0.058-0.501-0.008-0.501-0.196c0-2.846-0.029-4.24-0.087-4.182
			c-0.726,0.857-1.757,1.285-3.093,1.285c-1.786,0-3.049-0.399-3.79-1.198c-0.276-0.305-0.545-1.423-0.806-3.354
			c-0.174-1.277-0.247-5.06-0.218-11.348c0.014-0.174,0.007-0.493-0.022-0.958c-0.029-0.479-0.044-0.798-0.044-0.958
			c0-0.218,0.072-0.392,0.218-0.523c0.131-0.116,0.247-0.167,0.348-0.152c0.421,0.029,0.653,0.283,0.697,0.762
			c-0.015-0.145-0.022,0.566-0.022,2.135c-0.029,4.371-0.015,6.948,0.044,7.732c0.058,0.857,0.101,2.164,0.131,3.921
			c0.029,1.002,0.254,1.714,0.675,2.135c0.624,0.596,1.525,0.857,2.701,0.784c1.161-0.072,1.953-0.384,2.374-0.937
			c0.377-0.464,0.668-1.793,0.871-3.986c0.188-1.946,0.131-5.837-0.174-11.674c-0.015-0.232,0.036-0.443,0.152-0.632
			c0.116-0.188,0.247-0.283,0.392-0.283c0.348,0,0.566,0.204,0.653,0.61c0.072,0.348,0.094,1.511,0.065,3.485
			c-0.015,0.915-0.029,3.558-0.044,7.928C297.287,208.533,297.308,209.717,297.294,210.123z"/>
		<path fill="#0681FA" d="M311.064,212.17c0.174-0.116,0.327-0.065,0.457,0.152c0.116,0.174,0.16,0.313,0.131,0.414
			c-0.058,0.218-0.291,0.334-0.697,0.348c-0.407,0.014-0.712-0.072-0.915-0.261c-0.363-0.348-0.646-0.53-0.849-0.545
			c-0.087-0.014-0.305,0.058-0.653,0.218c-0.422,0.204-0.966,0.341-1.634,0.414c-1.626,0.16-2.781-0.225-3.463-1.154
			c-0.828-1.133-1.285-2.897-1.372-5.293c-0.102-3.093-0.073-5.51,0.087-7.253c0.188-2.091,1.002-3.564,2.439-4.421
			c0.464-0.275,1.103-0.406,1.917-0.392c1.133,0.015,2.047,0.421,2.744,1.22c0.087,0.087,0.123-0.014,0.109-0.305
			c0-0.087,0-0.225,0-0.414c-0.015-0.174-0.022-0.29-0.022-0.348c0-0.174,0.167-0.24,0.501-0.196
			c0.319,0.044,0.508,0.152,0.566,0.327c-0.044-0.131-0.044,0.784,0,2.744c0.101,2.657,0.145,4.255,0.131,4.792
			c0,0.305-0.008,1.285-0.022,2.94c-0.015,1.583-0.029,2.716-0.044,3.398c0,0.131,0,0.407,0,0.828c0,0.421-0.008,0.741-0.022,0.958
			c-0.015,0.305-0.022,0.653-0.022,1.045c0,0.378,0.058,0.625,0.174,0.741C310.737,212.257,310.889,212.272,311.064,212.17z
			 M309.321,210.82c0.16-0.261,0.24-2.802,0.24-7.623c0-3.804-0.341-6.055-1.024-6.752c-0.639-0.682-1.416-1.016-2.331-1.002
			c-0.77,0-1.438,0.4-2.004,1.198c-0.552,0.77-0.893,1.714-1.024,2.831c-0.16,1.511-0.174,3.507-0.044,5.99
			c0.16,2.992,0.523,4.828,1.089,5.51c0.58,0.712,1.532,0.98,2.853,0.806C308.283,211.633,309.03,211.314,309.321,210.82z"/>
		<path fill="#0681FA" d="M325.03,211.8c0.203,0.378,0.152,0.697-0.152,0.958c-0.291,0.261-0.544,0.24-0.762-0.065
			c-0.653-0.944-1.416-2.135-2.287-3.572c-0.189-0.305-0.53-1.009-1.024-2.113c-0.421-0.915-0.69-1.408-0.806-1.481
			c-0.131-0.087-0.77,1.089-1.917,3.528c-0.814,1.742-1.489,3.006-2.026,3.79c-0.204,0.29-0.429,0.312-0.675,0.065
			c-0.261-0.261-0.327-0.595-0.196-1.002c0.131-0.436,0.842-1.837,2.135-4.204c1.234-2.265,1.851-3.455,1.851-3.572
			c0-0.377-0.095-0.733-0.283-1.067c-2.469-4.182-3.623-6.744-3.463-7.689c0.058-0.305,0.275-0.392,0.653-0.261
			c0.421,0.145,0.784,0.509,1.089,1.089c0.16,0.305,0.653,1.496,1.481,3.572c0.726,1.815,1.14,2.73,1.241,2.744
			c0.101,0,0.537-0.929,1.307-2.788c0.885-2.163,1.401-3.383,1.546-3.659c0.305-0.58,0.66-0.944,1.067-1.089
			c0.392-0.145,0.61-0.065,0.653,0.24c0.174,1.002-0.966,3.594-3.42,7.776c-0.334,0.552-0.494,0.93-0.479,1.133
			c0,0.117,0.697,1.343,2.091,3.681C324.209,210.428,325,211.757,325.03,211.8z"/>
	</g>
	<g>
		<path fill="none" stroke="#000000" stroke-width="8" stroke-miterlimit="10" d="M153.924,148.397"/>
	</g>
	<g>
		<g>
			<g>
				<g>
					<path d="M55.418,95.393 M162.345,12.479c-0.29,1.021-0.404,1.588-0.609,2.119c-1.896,4.917-3.764,9.845-5.741,14.73
						c-0.58,1.433-0.347,2.085,1.096,2.804c1.709,0.852,3.43,1.947,4.711,3.338c3.105,3.371,4.75,7.584,5.769,11.98
						c1.277,5.514,3.053,10.801,5.846,15.747c0.311,0.551,0.249,1.723-0.141,2.179c-1.112,1.3-2.457,2.408-3.756,3.541
						c-4.484,3.911-9.497,6.102-15.176,6.102c-1.245,0-2.522-0.105-3.833-0.321c-1.111-0.183-2.223-0.366-3.382-0.557
						c1.483,5.162,2.959,10.12,4.329,15.107c3.154,11.482,3.58,22.807,0.501,33.876c-0.183,0.657-0.378,1.313-0.585,1.967
						l4.913,0.404c0.196-0.662,0.381-1.326,0.555-1.993c2.919-11.205,2.679-23.111-0.732-35.532
						c-0.748-2.725-1.513-5.388-2.309-8.135c0.182,0.004,0.364,0.006,0.545,0.006c6.626,0,12.799-2.453,18.345-7.29l0.537-0.466
						c1.183-1.023,2.523-2.183,3.714-3.575c1.693-1.98,1.99-5.356,0.675-7.684c-2.31-4.092-4.009-8.688-5.347-14.464
						c-1.384-5.975-3.647-10.606-6.92-14.159c-1.075-1.167-2.42-2.249-4.016-3.229c1.286-3.231,2.537-6.487,3.754-9.655
						c0.382-0.995,0.765-1.991,1.148-2.986c0.227-0.588,0.367-1.119,0.516-1.682c0.064-0.244,0.138-0.523,0.232-0.855
						c0.453-1.595,0.054-3.31-1.054-4.542c-0.923-1.026-2.23-1.597-3.585-1.597l0,0c-0.272,0-0.547,0.023-0.821,0.07
						c-0.948,0.164-1.869,0.315-2.772,0.464c-1.992,0.328-3.874,0.638-5.799,1.031c-11.935,2.435-21.072,6.056-28.756,11.394
						c-6.673,4.636-11.767,10.312-15.139,16.869c-3.333,6.482-5.011,13.879-4.985,21.984c0.031,9.992-1.385,18.597-4.329,26.307
						c-3.122,8.176-7.81,16.22-13.933,23.908c-3.188,4.003-6.474,8.032-9.703,11.975l3.347,3.524
						c3.397-4.148,6.788-8.301,10.127-12.495c6.105-7.666,11.161-16.013,14.666-25.192c3.44-9.009,4.677-18.377,4.646-28.042
						c-0.046-14.642,5.899-26.434,18.053-34.877c8.151-5.662,17.361-8.669,26.969-10.63
						C156.619,13.396,159.352,12.996,162.345,12.479 M144.525,143.57c-0.279,1.1-0.526,2.205-0.74,3.315
						c-1.205,6.244-1.37,12.649-0.387,19.277c0.572,3.861,1.288,7.672,2.184,11.428l4.861-0.425
						c-0.91-3.708-1.666-7.603-2.275-11.71c-0.934-6.299-0.762-12.45,0.534-18.575c0.216-1.023,0.464-2.044,0.743-3.066"/>
				</g>
			</g>
			<g>
				<path d="M148.499,188.614c-3.989,0-7.234-3.245-7.234-7.234s3.245-7.234,7.234-7.234s7.234,3.245,7.234,7.234
					S152.487,188.614,148.499,188.614z M148.499,177.764c-1.994,0-3.617,1.622-3.617,3.617s1.623,3.617,3.617,3.617
					s3.617-1.622,3.617-3.617S150.493,177.764,148.499,177.764z"/>
			</g>
			<g>
				<path d="M55.668,95.583c-3.989,0-7.234-3.245-7.234-7.234c0-3.989,3.245-7.234,7.234-7.234s7.234,3.245,7.234,7.234
					C62.902,92.339,59.657,95.583,55.668,95.583z M55.668,84.733c-1.994,0-3.617,1.622-3.617,3.617s1.622,3.617,3.617,3.617
					c1.994,0,3.617-1.622,3.617-3.617S57.662,84.733,55.668,84.733z"/>
			</g>
			<g>
				<path d="M52.597,171.678c-3.989,0-7.234-3.245-7.234-7.234c0-3.989,3.245-7.234,7.234-7.234s7.234,3.245,7.234,7.234
					C59.831,168.433,56.586,171.678,52.597,171.678z M52.597,160.828c-1.994,0-3.617,1.622-3.617,3.617
					c0,1.994,1.622,3.617,3.617,3.617c1.994,0,3.617-1.622,3.617-3.617C56.214,162.45,54.591,160.828,52.597,160.828z"/>
			</g>
			<g>
				<path d="M105.314,187.005c-3.989,0-7.234-3.245-7.234-7.234c0-3.989,3.245-7.234,7.234-7.234c3.989,0,7.234,3.245,7.234,7.234
					C112.547,183.76,109.302,187.005,105.314,187.005z M105.314,176.155c-1.994,0-3.617,1.622-3.617,3.617
					c0,1.994,1.622,3.617,3.617,3.617c1.994,0,3.617-1.622,3.617-3.617C108.93,177.777,107.308,176.155,105.314,176.155z"/>
			</g>
			<g>
				<path d="M42.407,138.034c-3.989,0-7.234-3.245-7.234-7.234s3.245-7.234,7.234-7.234s7.234,3.245,7.234,7.234
					S46.395,138.034,42.407,138.034z M42.407,127.184c-1.994,0-3.617,1.622-3.617,3.617s1.622,3.617,3.617,3.617
					c1.994,0,3.617-1.622,3.617-3.617S44.401,127.184,42.407,127.184z"/>
			</g>
			<g>
				<path d="M154.928,200.828c-2.524,0-4.578-2.054-4.578-4.578s2.054-4.578,4.578-4.578s4.578,2.054,4.578,4.578
					S157.452,200.828,154.928,200.828z M154.928,194.686c-0.862,0-1.564,0.702-1.564,1.564s0.702,1.564,1.564,1.564
					s1.564-0.702,1.564-1.564S155.79,194.686,154.928,194.686z"/>
			</g>
			<g>
				<path d="M129.812,199.049c-2.524,0-4.578-2.054-4.578-4.578c0-2.524,2.054-4.578,4.578-4.578c2.525,0,4.578,2.054,4.578,4.578
					C134.39,196.995,132.336,199.049,129.812,199.049z M129.812,192.907c-0.862,0-1.564,0.702-1.564,1.564s0.702,1.564,1.564,1.564
					s1.564-0.702,1.564-1.564S130.674,192.907,129.812,192.907z"/>
			</g>
			<g>
				<path d="M159.55,213.576c-2.906,0-5.27-2.364-5.27-5.27s2.364-5.27,5.27-5.27s5.27,2.364,5.27,5.27
					S162.455,213.576,159.55,213.576z M159.55,206.05c-1.244,0-2.256,1.012-2.256,2.256s1.012,2.256,2.256,2.256
					s2.256-1.012,2.256-2.256S160.794,206.05,159.55,206.05z"/>
			</g>
			<g>
				<path d="M22.335,70.254c-2.906,0-5.27-2.364-5.27-5.27s2.364-5.27,5.27-5.27s5.27,2.364,5.27,5.27S25.24,70.254,22.335,70.254z
					 M22.335,62.729c-1.244,0-2.256,1.012-2.256,2.256s1.012,2.256,2.256,2.256c1.244,0,2.256-1.012,2.256-2.256
					S23.578,62.729,22.335,62.729z"/>
			</g>
			<g>
				<path d="M58.739,131.504c-2.906,0-5.27-2.364-5.27-5.27s2.364-5.27,5.27-5.27c2.906,0,5.27,2.364,5.27,5.27
					S61.645,131.504,58.739,131.504z M58.739,123.979c-1.244,0-2.256,1.012-2.256,2.256s1.012,2.256,2.256,2.256
					c1.244,0,2.256-1.012,2.256-2.256S59.983,123.979,58.739,123.979z"/>
			</g>
			<g>
				<path d="M62.502,150.84c-2.906,0-5.27-2.364-5.27-5.27s2.364-5.27,5.27-5.27c2.906,0,5.27,2.364,5.27,5.27
					S65.408,150.84,62.502,150.84z M62.502,143.314c-1.244,0-2.256,1.012-2.256,2.256s1.012,2.256,2.256,2.256
					s2.256-1.012,2.256-2.256S63.746,143.314,62.502,143.314z"/>
			</g>
			<g>
				<path d="M68.729,56.861c-2.906,0-5.27-2.364-5.27-5.27s2.364-5.27,5.27-5.27c2.906,0,5.27,2.364,5.27,5.27
					S71.634,56.861,68.729,56.861z M68.729,49.335c-1.244,0-2.256,1.012-2.256,2.256s1.012,2.256,2.256,2.256
					s2.256-1.012,2.256-2.256S69.972,49.335,68.729,49.335z"/>
			</g>
			<g>
				<path d="M37.685,53.813c-2.906,0-5.27-2.364-5.27-5.27c0-2.906,2.364-5.27,5.27-5.27c2.906,0,5.27,2.364,5.27,5.27
					C42.954,51.449,40.59,53.813,37.685,53.813z M37.685,46.288c-1.244,0-2.256,1.012-2.256,2.256c0,1.244,1.012,2.256,2.256,2.256
					c1.244,0,2.256-1.012,2.256-2.256C39.94,47.3,38.928,46.288,37.685,46.288z"/>
			</g>
			<g>
				<path d="M127.602,213.576c-2.906,0-5.27-2.364-5.27-5.27s2.364-5.27,5.27-5.27s5.27,2.364,5.27,5.27
					S130.507,213.576,127.602,213.576z M127.602,206.05c-1.244,0-2.256,1.012-2.256,2.256s1.012,2.256,2.256,2.256
					s2.256-1.012,2.256-2.256S128.845,206.05,127.602,206.05z"/>
			</g>
			<g>
				<path d="M128.549,178.902c-2.906,0-5.27-2.364-5.27-5.27s2.364-5.27,5.27-5.27s5.27,2.364,5.27,5.27
					S131.455,178.902,128.549,178.902z M128.549,171.377c-1.244,0-2.256,1.012-2.256,2.256s1.012,2.256,2.256,2.256
					s2.256-1.012,2.256-2.256S129.793,171.377,128.549,171.377z"/>
			</g>
			<g>
				<path d="M73.35,175.139c-2.906,0-5.27-2.364-5.27-5.27s2.364-5.27,5.27-5.27c2.906,0,5.27,2.364,5.27,5.27
					S76.256,175.139,73.35,175.139z M73.35,167.614c-1.244,0-2.256,1.012-2.256,2.256s1.012,2.256,2.256,2.256
					c1.244,0,2.256-1.012,2.256-2.256S74.594,167.614,73.35,167.614z"/>
			</g>
			<g>
				<path d="M143.474,212.471c-1.964,0-3.562-1.598-3.562-3.561c0-1.964,1.598-3.562,3.562-3.562c1.964,0,3.562,1.598,3.562,3.562
					C147.035,210.873,145.438,212.471,143.474,212.471z M143.474,207.758c-0.634,0-1.151,0.516-1.151,1.151
					c0,0.634,0.516,1.15,1.151,1.15c0.635,0,1.151-0.516,1.151-1.15C144.624,208.275,144.108,207.758,143.474,207.758z"/>
			</g>
			<g>
				<path d="M108.915,212.471c-1.964,0-3.562-1.598-3.562-3.561c0-1.964,1.598-3.562,3.562-3.562s3.562,1.598,3.562,3.562
					C112.477,210.873,110.879,212.471,108.915,212.471z M108.915,207.758c-0.635,0-1.151,0.516-1.151,1.151
					c0,0.634,0.516,1.15,1.151,1.15c0.634,0,1.151-0.516,1.151-1.15C110.066,208.275,109.549,207.758,108.915,207.758z"/>
			</g>
			<g>
				<path d="M67.925,212.471c-1.964,0-3.562-1.598-3.562-3.561c0-1.964,1.598-3.562,3.562-3.562c1.964,0,3.562,1.598,3.562,3.562
					C71.487,210.873,69.889,212.471,67.925,212.471z M67.925,207.758c-0.635,0-1.151,0.516-1.151,1.151
					c0,0.634,0.516,1.15,1.151,1.15c0.634,0,1.151-0.516,1.151-1.15C69.076,208.275,68.559,207.758,67.925,207.758z"/>
			</g>
			<g>
				<path d="M28.453,137.322c-1.964,0-3.562-1.598-3.562-3.562c0-1.964,1.598-3.561,3.562-3.561s3.562,1.598,3.562,3.561
					C32.015,135.725,30.418,137.322,28.453,137.322z M28.453,132.61c-0.634,0-1.151,0.516-1.151,1.15
					c0,0.635,0.516,1.151,1.151,1.151c0.635,0,1.151-0.516,1.151-1.151C29.604,133.126,29.088,132.61,28.453,132.61z"/>
			</g>
			<g>
				<path d="M37.68,160.563c-1.964,0-3.562-1.598-3.562-3.561c0-1.964,1.598-3.562,3.562-3.562c1.964,0,3.562,1.598,3.562,3.562
					C41.241,158.965,39.644,160.563,37.68,160.563z M37.68,155.85c-0.635,0-1.151,0.516-1.151,1.151c0,0.634,0.516,1.15,1.151,1.15
					c0.634,0,1.151-0.516,1.151-1.15C38.83,156.367,38.314,155.85,37.68,155.85z"/>
			</g>
			<g>
				<path d="M76.51,128.044c-1.964,0-3.562-1.598-3.562-3.562c0-1.964,1.598-3.561,3.562-3.561c1.964,0,3.562,1.598,3.562,3.561
					C80.072,126.446,78.474,128.044,76.51,128.044z M76.51,123.331c-0.634,0-1.151,0.516-1.151,1.15
					c0,0.635,0.516,1.151,1.151,1.151c0.635,0,1.151-0.516,1.151-1.151C77.66,123.848,77.144,123.331,76.51,123.331z"/>
			</g>
			<g>
				<path d="M79.125,78.449c-1.964,0-3.562-1.598-3.562-3.561c0-1.964,1.598-3.562,3.562-3.562c1.964,0,3.562,1.598,3.562,3.562
					C82.687,76.851,81.089,78.449,79.125,78.449z M79.125,73.737c-0.635,0-1.151,0.516-1.151,1.151c0,0.634,0.516,1.15,1.151,1.15
					c0.634,0,1.151-0.516,1.151-1.15C80.276,74.253,79.76,73.737,79.125,73.737z"/>
			</g>
			<g>
				<path d="M39.336,63.379c-1.964,0-3.562-1.598-3.562-3.561c0-1.964,1.598-3.562,3.562-3.562s3.562,1.598,3.562,3.562
					C42.897,61.782,41.3,63.379,39.336,63.379z M39.336,58.667c-0.634,0-1.151,0.516-1.151,1.151c0,0.634,0.516,1.15,1.151,1.15
					c0.634,0,1.151-0.516,1.151-1.15C40.486,59.183,39.97,58.667,39.336,58.667z"/>
			</g>
			<g>
				<path d="M27.739,42.471c-1.964,0-3.562-1.598-3.562-3.562c0-1.964,1.598-3.562,3.562-3.562s3.562,1.598,3.562,3.562
					C31.301,40.873,29.703,42.471,27.739,42.471z M27.739,37.758c-0.634,0-1.151,0.516-1.151,1.151c0,0.635,0.516,1.151,1.151,1.151
					c0.635,0,1.151-0.516,1.151-1.151C28.889,38.274,28.373,37.758,27.739,37.758z"/>
			</g>
			<g>
				<path d="M60.691,205.191c-2.524,0-4.578-2.054-4.578-4.578s2.054-4.578,4.578-4.578c2.524,0,4.578,2.054,4.578,4.578
					S63.216,205.191,60.691,205.191z M60.691,199.049c-0.863,0-1.564,0.702-1.564,1.564s0.702,1.564,1.564,1.564
					c0.862,0,1.564-0.702,1.564-1.564S61.554,199.049,60.691,199.049z"/>
			</g>
			<g>
				<path d="M27.739,168.478c-2.524,0-4.578-2.054-4.578-4.578s2.054-4.578,4.578-4.578s4.578,2.054,4.578,4.578
					S30.263,168.478,27.739,168.478z M27.739,162.336c-0.862,0-1.564,0.702-1.564,1.564s0.702,1.564,1.564,1.564
					c0.863,0,1.564-0.702,1.564-1.564S28.601,162.336,27.739,162.336z"/>
			</g>
			<g>
				<path d="M90.864,160.864c-2.524,0-4.578-2.054-4.578-4.578s2.054-4.578,4.578-4.578c2.524,0,4.578,2.054,4.578,4.578
					S93.389,160.864,90.864,160.864z M90.864,154.722c-0.862,0-1.564,0.702-1.564,1.564s0.702,1.564,1.564,1.564
					s1.564-0.702,1.564-1.564S91.727,154.722,90.864,154.722z"/>
			</g>
			<g>
				<path d="M74.244,193.027c-2.524,0-4.578-2.054-4.578-4.578c0-2.524,2.054-4.578,4.578-4.578s4.578,2.054,4.578,4.578
					C78.823,190.973,76.769,193.027,74.244,193.027z M74.244,186.884c-0.862,0-1.564,0.702-1.564,1.564s0.702,1.564,1.564,1.564
					c0.863,0,1.564-0.702,1.564-1.564S75.107,186.884,74.244,186.884z"/>
			</g>
			<g>
				<path d="M47.172,153.911c-2.524,0-4.578-2.054-4.578-4.578c0-2.525,2.054-4.579,4.578-4.579c2.524,0,4.578,2.054,4.578,4.579
					C51.75,151.857,49.696,153.911,47.172,153.911z M47.172,147.768c-0.862,0-1.564,0.702-1.564,1.565
					c0,0.862,0.702,1.564,1.564,1.564s1.564-0.702,1.564-1.564C48.736,148.47,48.034,147.768,47.172,147.768z"/>
			</g>
			<g>
				<path d="M55.668,72.634c-2.524,0-4.578-2.054-4.578-4.578s2.054-4.578,4.578-4.578c2.524,0,4.578,2.054,4.578,4.578
					S58.193,72.634,55.668,72.634z M55.668,66.492c-0.862,0-1.564,0.702-1.564,1.564s0.702,1.564,1.564,1.564
					s1.564-0.702,1.564-1.564S56.53,66.492,55.668,66.492z"/>
			</g>
			<g>
				<path d="M52.597,44.202c-2.524,0-4.578-2.054-4.578-4.578c0-2.525,2.054-4.579,4.578-4.579c2.524,0,4.578,2.054,4.578,4.579
					C57.175,42.148,55.122,44.202,52.597,44.202z M52.597,38.06c-0.862,0-1.564,0.702-1.564,1.565c0,0.862,0.702,1.564,1.564,1.564
					s1.564-0.702,1.564-1.564C54.161,38.761,53.459,38.06,52.597,38.06z"/>
			</g>
			<g>
				<path d="M72.491,111.166c-2.524,0-4.578-2.054-4.578-4.578s2.054-4.578,4.578-4.578c2.524,0,4.578,2.054,4.578,4.578
					S75.016,111.166,72.491,111.166z M72.491,105.024c-0.862,0-1.564,0.702-1.564,1.564s0.702,1.564,1.564,1.564
					c0.863,0,1.564-0.702,1.564-1.564S73.354,105.024,72.491,105.024z"/>
			</g>
			<g>
				<path d="M42.407,114.237c-2.524,0-4.578-2.054-4.578-4.578c0-2.524,2.054-4.578,4.578-4.578c2.524,0,4.578,2.054,4.578,4.578
					C46.985,112.183,44.931,114.237,42.407,114.237z M42.407,108.095c-0.862,0-1.564,0.702-1.564,1.564
					c0,0.862,0.702,1.564,1.564,1.564s1.564-0.702,1.564-1.564C43.971,108.797,43.269,108.095,42.407,108.095z"/>
			</g>
			<g>
				<path d="M57.577,111.489c-2.524,0-4.578-2.054-4.578-4.578s2.054-4.578,4.578-4.578s4.578,2.054,4.578,4.578
					S60.101,111.489,57.577,111.489z M57.577,105.346c-0.862,0-1.564,0.702-1.564,1.564s0.702,1.564,1.564,1.564
					c0.863,0,1.564-0.702,1.564-1.564S58.44,105.346,57.577,105.346z"/>
			</g>
			<g>
				<path d="M66.97,78.776c-2.524,0-4.578-2.054-4.578-4.579c0-2.524,2.054-4.578,4.578-4.578c2.524,0,4.578,2.054,4.578,4.578
					C71.549,76.723,69.495,78.776,66.97,78.776z M66.97,72.634c-0.862,0-1.564,0.702-1.564,1.564c0,0.863,0.702,1.565,1.564,1.565
					s1.564-0.702,1.564-1.565C68.535,73.335,67.833,72.634,66.97,72.634z"/>
			</g>
			<g>
				<path d="M11.463,56.861c-2.524,0-4.578-2.054-4.578-4.578c0-2.525,2.054-4.579,4.578-4.579s4.578,2.054,4.578,4.579
					C16.041,54.807,13.988,56.861,11.463,56.861z M11.463,50.718c-0.862,0-1.564,0.702-1.564,1.565c0,0.862,0.702,1.564,1.564,1.564
					c0.863,0,1.564-0.702,1.564-1.564C13.027,51.42,12.326,50.718,11.463,50.718z"/>
			</g>
			<g>
				<path d="M87.793,216.343c-3.989,0-7.234-3.245-7.234-7.234c0-3.989,3.245-7.234,7.234-7.234s7.234,3.245,7.234,7.234
					C95.027,213.098,91.782,216.343,87.793,216.343z M87.793,205.493c-1.994,0-3.617,1.622-3.617,3.617s1.622,3.617,3.617,3.617
					s3.617-1.622,3.617-3.617S89.787,205.493,87.793,205.493z"/>
			</g>
			<g>
				<path d="M43.105,192.1c-3.989,0-7.234-3.245-7.234-7.234s3.245-7.234,7.234-7.234s7.234,3.245,7.234,7.234
					S47.093,192.1,43.105,192.1z M43.105,181.25c-1.994,0-3.617,1.622-3.617,3.617s1.622,3.617,3.617,3.617
					c1.994,0,3.617-1.622,3.617-3.617S45.099,181.25,43.105,181.25z"/>
			</g>
			<g>
				
					<rect x="148.135" y="187.751" transform="matrix(0.4026 0.9154 -0.9154 0.4026 265.0238 -25.7781)" width="8.255" height="4.822"/>
			</g>
			<g>
				
					<rect x="154.665" y="199.844" transform="matrix(0.3599 0.933 -0.933 0.3599 289.2833 -17.1186)" width="4.904" height="4.823"/>
			</g>
			<g>
				<rect x="145.83" y="206.498" width="9.957" height="4.822"/>
			</g>
			<g>
				
					<rect x="129.688" y="199.515" transform="matrix(0.6479 0.7617 -0.7617 0.6479 202.101 -33.3644)" width="14.903" height="4.822"/>
			</g>
			<g>
				<rect x="126.475" y="196.25" width="4.822" height="9.393"/>
			</g>
			<g>
				
					<rect x="115.144" y="202.317" transform="matrix(0.048 0.9988 -0.9988 0.048 320.2825 81.1796)" width="4.822" height="12.582"/>
			</g>
			<g>
				
					<rect x="97.477" y="202.338" transform="matrix(0.015 0.9999 -0.9999 0.015 307.3746 105.9944)" width="4.823" height="13.342"/>
			</g>
			<g>
				<rect x="70.276" y="206.749" transform="matrix(0.999 0.0447 -0.0447 0.999 9.4272 -3.1836)" width="11.218" height="4.822"/>
			</g>
			<g>
				<rect x="60.979" y="202.68" transform="matrix(0.669 0.7433 -0.7433 0.669 173.7441 20.0531)" width="6.758" height="4.822"/>
			</g>
			<g>
				
					<rect x="45.283" y="191.143" transform="matrix(0.7592 0.6509 -0.6509 0.7592 138.7762 12.0324)" width="15.691" height="4.823"/>
			</g>
			<g>
				
					<rect x="24.508" y="171.935" transform="matrix(0.5631 0.8264 -0.8264 0.5631 158.729 48.4538)" width="18.061" height="4.823"/>
			</g>
			<g>
				<rect x="25.327" y="135.468" width="4.822" height="25.36"/>
			</g>
			<g>
				
					<rect x="32.408" y="110.581" transform="matrix(0.8652 0.5015 -0.5015 0.8652 65.9238 -0.9987)" width="4.822" height="23.025"/>
			</g>
			<g>
				<rect x="46.269" y="91.769" transform="matrix(0.8097 0.5869 -0.5869 0.8097 68.0345 -9.5107)" width="4.823" height="16.734"/>
			</g>
			<g>
				<rect x="51.139" y="74.682" transform="matrix(0.0644 0.9979 -0.9979 0.0644 130.6796 14.805)" width="12.61" height="4.822"/>
			</g>
			<g>
				<rect x="40.477" y="60.37" transform="matrix(0.9152 0.403 -0.403 0.9152 29.3538 -13.9515)" width="14.709" height="4.823"/>
			</g>
			<g>
				<rect x="29.122" y="55.525" transform="matrix(0.3449 0.9386 -0.9386 0.3449 78.9248 11.0671)" width="4.823" height="13.107"/>
			</g>
			<g>
				<rect x="9.487" y="56.754" transform="matrix(0.6731 0.7396 -0.7396 0.6731 48.8331 7.8545)" width="12.09" height="4.822"/>
			</g>
			<g>
				<rect x="16.369" y="35.248" transform="matrix(0.5995 0.8004 -0.8004 0.5995 43.0487 2.7462)" width="4.822" height="18.285"/>
			</g>
			<g>
				<rect x="29.339" y="36.102" transform="matrix(0.9993 0.0379 -0.0379 0.9993 1.4867 -1.4791)" width="20.912" height="4.822"/>
			</g>
			<g>
				<rect x="53.836" y="42.024" transform="matrix(0.8103 0.586 -0.586 0.8103 37.58 -27.2268)" width="14.022" height="4.822"/>
			</g>
			<g>
				
					<rect x="64.693" y="60.873" transform="matrix(0.3693 0.9293 -0.9293 0.3693 106.2627 -30.0007)" width="21.081" height="4.823"/>
			</g>
			<g>
				<rect x="73.827" y="76.1" transform="matrix(0.9794 0.2019 -0.2019 0.9794 19.8249 -13.5312)" width="4.822" height="28.619"/>
			</g>
			<g>
				<rect x="63.76" y="107.089" transform="matrix(0.814 0.5808 -0.5808 0.814 79.6784 -16.8628)" width="4.822" height="17.8"/>
			</g>
			<g>
				
					<rect x="50.343" y="127.833" transform="matrix(0.8823 0.4707 -0.4707 0.8823 71.2023 -8.5788)" width="4.822" height="20.495"/>
			</g>
			<g>
				
					<rect x="43.141" y="153.875" transform="matrix(0.2861 0.9582 -0.9582 0.2861 183.9366 65.6922)" width="9.481" height="4.823"/>
			</g>
			<g>
				<rect x="54.864" y="146.497" transform="matrix(0.912 0.4101 -0.4101 0.912 68.034 -9.9777)" width="4.823" height="14.21"/>
			</g>
			<g>
				
					<rect x="66.972" y="124.143" transform="matrix(0.7944 0.6074 -0.6074 0.7944 95.8491 -14.527)" width="4.823" height="20.349"/>
			</g>
			<g>
				
					<rect x="115.075" y="167.974" transform="matrix(0.2495 0.9684 -0.9684 0.2495 258.1298 17.9473)" width="4.822" height="15.079"/>
			</g>
			<g>
				
					<rect x="87.223" y="165.076" transform="matrix(0.4773 0.8788 -0.8788 0.4773 197.8127 2.4349)" width="19.273" height="4.823"/>
			</g>
			<g>
				<rect x="68.47" y="137.314" transform="matrix(0.4179 0.9085 -0.9085 0.4179 175.4338 5.6356)" width="29.698" height="4.822"/>
			</g>
			<g>
				
					<rect x="130.878" y="176.081" transform="matrix(0.8045 0.5939 -0.5939 0.8045 132.9531 -46.9857)" width="13.96" height="4.822"/>
			</g>
			<g>
				
					<rect x="136.625" y="181.819" transform="matrix(0.4314 0.9022 -0.9022 0.4314 249.8753 -17.7712)" width="4.822" height="15.061"/>
			</g>
			<g>
				
					<rect x="145.457" y="195.949" transform="matrix(0.7069 0.7073 -0.7073 0.7069 186.3233 -45.3368)" width="4.822" height="12.425"/>
			</g>
			<g>
				
					<rect x="132.743" y="193.709" transform="matrix(0.9858 0.1678 -0.1678 0.9858 34.9331 -21.1442)" width="19.658" height="4.822"/>
			</g>
			<g>
				
					<rect x="107.633" y="186.469" transform="matrix(0.8794 0.4761 -0.4761 0.8794 104.1992 -33.5228)" width="21.25" height="4.823"/>
			</g>
			<g>
				
					<rect x="120.494" y="174.875" transform="matrix(0.818 0.5752 -0.5752 0.818 127.2514 -37.5109)" width="4.822" height="14.932"/>
			</g>
			<g>
				
					<rect x="96.58" y="193.047" transform="matrix(0.1056 0.9944 -0.9944 0.1056 290.7248 67.6831)" width="22.315" height="4.822"/>
			</g>
			<g>
				
					<rect x="85.888" y="172.793" transform="matrix(0.2279 0.9737 -0.9737 0.2279 248.8333 57.2799)" width="4.822" height="25.499"/>
			</g>
			<g>
				
					<rect x="94.679" y="182.982" transform="matrix(0.8393 0.5437 -0.5437 0.8393 121.471 -21.4943)" width="4.822" height="23.445"/>
			</g>
			<g>
				
					<rect x="64.485" y="188.108" transform="matrix(0.6904 0.7234 -0.7234 0.6904 161.5835 11.8926)" width="4.822" height="13.267"/>
			</g>
			<g>
				<rect x="71.157" y="195.556" transform="matrix(0.45 0.893 -0.893 0.45 220.651 37.6578)" width="17.191" height="4.822"/>
			</g>
			<g>
				
					<rect x="56.315" y="163.624" transform="matrix(0.4005 0.9163 -0.9163 0.4005 196.6861 51.8379)" width="4.822" height="25.22"/>
			</g>
			<g>
				
					<rect x="58.705" y="155.062" transform="matrix(0.3997 0.9166 -0.9166 0.3997 185.2368 32.0817)" width="18.837" height="4.822"/>
			</g>
			<g>
				
					<rect x="79.428" y="154.701" transform="matrix(0.6436 0.7654 -0.7654 0.6436 153.5316 -4.7248)" width="4.822" height="15.56"/>
			</g>
			<g>
				
					<rect x="75.174" y="172.902" transform="matrix(0.9425 0.3342 -0.3342 0.9425 63.6261 -19.1719)" width="24.706" height="4.822"/>
			</g>
			<g>
				
					<rect x="44.494" y="167.291" transform="matrix(0.9693 0.2458 -0.2458 0.9693 44.1425 -6.2003)" width="4.823" height="12.828"/>
			</g>
			<g>
				<rect x="31.31" y="156.575" transform="matrix(0.5328 0.8462 -0.8462 0.5328 151.5083 46.4089)" width="4.822" height="7.706"/>
			</g>
			<g>
				
					<rect x="40.355" y="149.641" transform="matrix(0.6317 0.7752 -0.7752 0.6317 134.9046 23.4552)" width="4.822" height="8.145"/>
			</g>
			<g>
				
					<rect x="23.141" y="142.864" transform="matrix(0.3618 0.9323 -0.9323 0.3618 156.6881 61.6656)" width="20.326" height="4.822"/>
			</g>
			<g>
				
					<rect x="35.086" y="116.369" transform="matrix(0.1856 0.9826 -0.9826 0.1856 150.7951 55.6073)" width="13.527" height="4.822"/>
			</g>
			<g>
				<rect x="37.198" y="135.415" transform="matrix(0.9942 0.1079 -0.1079 0.9942 15.8284 -3.4303)" width="4.822" height="18.24"/>
			</g>
			<g>
				
					<rect x="52.148" y="113.847" transform="matrix(0.1441 0.9896 -0.9896 0.1441 165.1091 41.6285)" width="12.685" height="4.823"/>
			</g>
			<g>
				<rect x="47.962" y="108.543" transform="matrix(0.8496 0.5274 -0.5274 0.8496 69.8599 -8.8062)" width="4.822" height="19.13"/>
			</g>
			<g>
				<rect x="62.312" y="99.6" transform="matrix(0.1725 0.985 -0.985 0.1725 156.9868 23.1377)" width="4.823" height="10.799"/>
			</g>
			<g>
				
					<rect x="52.061" y="96.189" transform="matrix(0.0513 0.9987 -0.9987 0.0513 152.8376 36.3091)" width="10.493" height="4.822"/>
			</g>
			<g>
				<rect x="60.376" y="75.159" transform="matrix(0.7646 0.6445 -0.6445 0.7646 66.6029 -21.5388)" width="4.823" height="10.5"/>
			</g>
			<g>
				<rect x="65.438" y="55.305" transform="matrix(0.9938 0.1108 -0.1108 0.9938 7.4272 -7.1304)" width="4.823" height="15.87"/>
			</g>
			<g>
				<rect x="58.434" y="67.18" transform="matrix(0.9242 0.3819 -0.3819 0.9242 31.3113 -18.577)" width="8.041" height="4.823"/>
			</g>
			<g>
				<rect x="41.349" y="47.656" transform="matrix(0.9917 0.1285 -0.1285 0.9917 6.8751 -6.4222)" width="23.715" height="4.822"/>
			</g>
			<g>
				<rect x="21.817" y="40.541" transform="matrix(0.1893 0.9819 -0.9819 0.1893 69.1426 17.0787)" width="4.822" height="19.745"/>
			</g>
			<g>
				<rect x="26.309" y="49.449" transform="matrix(0.7099 0.7043 -0.7043 0.7099 48.3599 -3.7403)" width="4.823" height="14.772"/>
			</g>
			<g>
				<rect x="48.715" y="55.877" transform="matrix(0.0375 0.9993 -0.9993 0.0375 111.5864 0.7249)" width="13.403" height="4.822"/>
			</g>
			<g>
				
					<rect x="57.202" y="94.828" transform="matrix(0.5942 0.8043 -0.8043 0.5942 104.874 -13.3768)" width="16.981" height="4.822"/>
			</g>
		</g>
		<g>
			<path d="M147.067,148.725c-0.244,0-0.462-0.011-0.653-0.031l0.516-4.795c2.765,0.287,17.701-3.488,23.353-8.619
				c5.834-5.295,7.65-7.646,10.659-11.54l0.248-0.321c0.879-1.137,1.07-1.669,1.173-1.956c0.727-2.03,2.296-2.077,3.334-2.109
				c0.54-0.016,1.356-0.041,2.694-0.168c2.28-0.216,5.149-0.94,5.87-3.163c0.563-1.738-0.29-3.703-0.748-4.204
				c-2.852-1.154-6.731,0.104-10.432,3.382c-12.433,13.38-29.672,10.122-30.4,9.976l0.938-4.731
				c0.154,0.031,15.433,2.85,26.001-8.605l0.164-0.162c5.207-4.658,11.087-6.243,15.737-4.248c2.417,0.994,4.158,5.086,3.659,8.633
				c-0.297,2.116-1.9,7.124-10.333,7.923c-1.051,0.099-1.831,0.143-2.398,0.166c-0.282,0.554-0.723,1.284-1.443,2.215l-0.247,0.319
				c-3.062,3.963-5.085,6.582-11.234,12.163C167.242,144.554,152.011,148.725,147.067,148.725z"/>
		</g>
	</g>
</g>
</svg>
