<?xml version="1.0" encoding="utf-8"?>
<!-- Generator: Adobe Illustrator 17.1.0, SVG Export Plug-In . SVG Version: 6.00 Build 0)  -->
<!DOCTYPE svg PUBLIC "-//W3C//DTD SVG 1.1//EN" "http://www.w3.org/Graphics/SVG/1.1/DTD/svg11.dtd">
<svg version="1.1" id="Слой_1" xmlns="http://www.w3.org/2000/svg" xmlns:xlink="http://www.w3.org/1999/xlink" x="0px" y="0px"
	 viewBox="0 0 143.248 118.999" enable-background="new 0 0 143.248 118.999" xml:space="preserve">
<path fill="#00B0E7" d="M136.86,2.905c-0.49,0-0.994,0.088-1.498,0.28L5.695,52.455c-3.663,1.392-3.566,6.608,0.146,7.862
	l30.064,10.158l18.128,36.283c0.004,0.011,0.011,0.019,0.015,0.03l0.048,0.097l0.012-0.006c0.329,0.669,1.012,1.102,1.743,1.102
	c0.429,0,0.867-0.144,1.247-0.466l16.983-14.401L55.119,78.723l1.484,18.901L42.971,69.399l72.454-43.521L55.119,78.723
	l46.947,35.627c1.572,1.193,3.372,1.744,5.14,1.744c3.724,0,7.305-2.444,8.313-6.477L140.898,8.103
	C141.586,5.352,139.436,2.905,136.86,2.905z"/>
</svg>
