<?xml version="1.0" encoding="utf-8"?>
<!-- Generator: Adobe Illustrator 17.1.0, SVG Export Plug-In . SVG Version: 6.00 Build 0)  -->
<!DOCTYPE svg PUBLIC "-//W3C//DTD SVG 1.1//EN" "http://www.w3.org/Graphics/SVG/1.1/DTD/svg11.dtd">
<svg version="1.1" id="Слой_1" xmlns="http://www.w3.org/2000/svg" xmlns:xlink="http://www.w3.org/1999/xlink" x="0px" y="0px"
	 viewBox="0 0 143.248 118.999" enable-background="new 0 0 143.248 118.999" xml:space="preserve">
<g>
	<g>
		<g>
			<defs>
				<path id="SVGID_1_" d="M128.609,94.741c4.387-8.539,6.864-18.223,6.864-28.482c0-34.48-27.955-62.435-62.435-62.435
					S10.604,31.778,10.604,66.259c0,19.818,9.236,37.481,23.637,48.916c1.257-11.089,2.091-20.893,1.732-22.577
					c-2.203-10.328-8.374-11.419-4.193-29.574c8.652-37.61,36.699-42.452,51.889-38.903c11.822,2.759,20.918,11.991,26.146,27.596
					c5.192,15.5,3.976,23.56,2.054,28.777c-0.572,1.559-0.459,1.45,7.536,7.307C122.708,90.222,125.774,92.437,128.609,94.741"/>
			</defs>
			<clipPath id="SVGID_2_">
				<use xlink:href="#SVGID_1_"  overflow="visible"/>
			</clipPath>
			<polygon clip-path="url(#SVGID_2_)" fill="#DE5A50" points="56.29,3.824 10.604,30.201 10.604,3.824 			"/>
			<polygon clip-path="url(#SVGID_2_)" fill="#DE5A50" points="60.12,3.824 10.604,32.412 10.604,30.201 56.29,3.824 			"/>
			<polygon clip-path="url(#SVGID_2_)" fill="#DE5950" points="63.949,3.824 10.604,34.623 10.604,32.412 60.12,3.824 			"/>
			<polygon clip-path="url(#SVGID_2_)" fill="#DE5850" points="67.779,3.824 10.604,36.834 10.604,34.623 63.949,3.824 			"/>
			<polygon clip-path="url(#SVGID_2_)" fill="#DE5751" points="71.609,3.824 10.604,39.046 10.604,36.834 67.779,3.824 			"/>
			<polygon clip-path="url(#SVGID_2_)" fill="#DE5651" points="75.439,3.824 10.604,41.257 10.604,39.046 71.609,3.824 			"/>
			<polygon clip-path="url(#SVGID_2_)" fill="#DE5551" points="79.269,3.824 10.604,43.468 10.604,41.257 75.439,3.824 			"/>
			<polygon clip-path="url(#SVGID_2_)" fill="#DD5451" points="83.099,3.824 10.604,45.679 10.604,43.468 79.269,3.824 			"/>
			<polygon clip-path="url(#SVGID_2_)" fill="#DD5351" points="86.929,3.824 10.604,47.89 10.604,45.679 83.099,3.824 			"/>
			<polygon clip-path="url(#SVGID_2_)" fill="#DD5251" points="90.759,3.824 10.604,50.101 10.604,47.89 86.929,3.824 			"/>
			<polygon clip-path="url(#SVGID_2_)" fill="#DD5152" points="94.588,3.824 10.604,52.313 10.604,50.101 90.759,3.824 			"/>
			<polygon clip-path="url(#SVGID_2_)" fill="#DD5052" points="98.418,3.824 10.604,54.524 10.604,52.313 94.588,3.824 			"/>
			<polygon clip-path="url(#SVGID_2_)" fill="#DD4F52" points="102.248,3.824 10.604,56.735 10.604,54.524 98.418,3.824 			"/>
			<polygon clip-path="url(#SVGID_2_)" fill="#DD4E52" points="106.078,3.824 10.604,58.946 10.604,56.735 102.248,3.824 			"/>
			<polygon clip-path="url(#SVGID_2_)" fill="#DD4D52" points="109.908,3.824 10.604,61.157 10.604,58.946 106.078,3.824 			"/>
			<polygon clip-path="url(#SVGID_2_)" fill="#DD4C52" points="113.738,3.824 10.604,63.369 10.604,61.157 109.908,3.824 			"/>
			<polygon clip-path="url(#SVGID_2_)" fill="#DD4B53" points="117.568,3.824 10.604,65.58 10.604,63.369 113.738,3.824 			"/>
			<polygon clip-path="url(#SVGID_2_)" fill="#DD4A53" points="120.264,3.824 120.547,4.315 10.604,67.791 10.604,65.58 
				117.568,3.824 			"/>
			<polygon clip-path="url(#SVGID_2_)" fill="#DD4953" points="120.547,4.315 121.505,5.973 10.604,70.002 10.604,67.791 			"/>
			<polygon clip-path="url(#SVGID_2_)" fill="#DC4853" points="121.505,5.973 122.462,7.632 10.604,72.213 10.604,70.002 			"/>
			<polygon clip-path="url(#SVGID_2_)" fill="#DC4753" points="122.462,7.632 123.42,9.29 10.604,74.424 10.604,72.213 			"/>
			<polygon clip-path="url(#SVGID_2_)" fill="#DC4653" points="123.42,9.29 124.377,10.949 10.604,76.636 10.604,74.424 			"/>
			<polygon clip-path="url(#SVGID_2_)" fill="#DC4554" points="124.377,10.949 125.335,12.607 10.604,78.847 10.604,76.636 			"/>
			<polygon clip-path="url(#SVGID_2_)" fill="#DC4454" points="125.335,12.607 126.292,14.265 10.604,81.058 10.604,78.847 			"/>
			<polygon clip-path="url(#SVGID_2_)" fill="#DC4354" points="126.292,14.265 127.25,15.924 10.604,83.269 10.604,81.058 			"/>
			<polygon clip-path="url(#SVGID_2_)" fill="#DC4254" points="127.25,15.924 128.207,17.582 10.604,85.48 10.604,83.269 			"/>
			<polygon clip-path="url(#SVGID_2_)" fill="#DC4154" points="128.207,17.582 129.165,19.24 10.604,87.691 10.604,85.48 			"/>
			<polygon clip-path="url(#SVGID_2_)" fill="#DC4054" points="129.165,19.24 130.122,20.899 10.842,89.765 10.604,89.353 
				10.604,87.691 			"/>
			
				<rect x="70.003" y="-12.705" transform="matrix(-0.5 -0.866 0.866 -0.5 57.8041 145.6957)" clip-path="url(#SVGID_2_)" fill="#DC3F55" width="1.915" height="137.733"/>
			
				<rect x="70.961" y="-11.047" transform="matrix(-0.5 -0.866 0.866 -0.5 57.8041 149.0125)" clip-path="url(#SVGID_2_)" fill="#DC3E55" width="1.915" height="137.733"/>
			
				<rect x="71.918" y="-9.388" transform="matrix(-0.5 -0.866 0.866 -0.5 57.8041 152.3292)" clip-path="url(#SVGID_2_)" fill="#DC3D55" width="1.915" height="137.733"/>
			
				<rect x="72.876" y="-7.73" transform="matrix(-0.5 -0.866 0.866 -0.5 57.8041 155.646)" clip-path="url(#SVGID_2_)" fill="#DB3B55" width="1.915" height="137.733"/>
			
				<rect x="73.833" y="-6.072" transform="matrix(-0.5 -0.866 0.866 -0.5 57.8041 158.9628)" clip-path="url(#SVGID_2_)" fill="#DB3A55" width="1.915" height="137.733"/>
			<polygon clip-path="url(#SVGID_2_)" fill="#DB3955" points="134.909,29.191 135.473,30.167 135.473,31.076 16.587,99.716 
				15.629,98.057 			"/>
			<polygon clip-path="url(#SVGID_2_)" fill="#DB3856" points="135.473,33.288 17.544,101.374 16.587,99.716 135.473,31.076 			"/>
			<polygon clip-path="url(#SVGID_2_)" fill="#DB3756" points="135.473,35.499 18.502,103.032 17.544,101.374 135.473,33.288 			"/>
			<polygon clip-path="url(#SVGID_2_)" fill="#DB3656" points="135.473,37.71 19.459,104.691 18.502,103.032 135.473,35.499 			"/>
			<polygon clip-path="url(#SVGID_2_)" fill="#DB3556" points="135.473,39.921 20.417,106.349 19.459,104.691 135.473,37.71 			"/>
			<polygon clip-path="url(#SVGID_2_)" fill="#DB3456" points="135.473,42.132 21.374,108.008 20.417,106.349 135.473,39.921 			"/>
			<polygon clip-path="url(#SVGID_2_)" fill="#DB3356" points="135.473,44.344 22.332,109.666 21.374,108.008 135.473,42.132 			"/>
			<polygon clip-path="url(#SVGID_2_)" fill="#DB3257" points="135.473,46.555 23.289,111.324 22.332,109.666 135.473,44.344 			"/>
			<polygon clip-path="url(#SVGID_2_)" fill="#DB3157" points="135.473,48.766 24.246,112.983 23.289,111.324 135.473,46.555 			"/>
			<polygon clip-path="url(#SVGID_2_)" fill="#DB3057" points="135.473,50.977 25.204,114.641 24.246,112.983 135.473,48.766 			"/>
			<polygon clip-path="url(#SVGID_2_)" fill="#DA2F57" points="135.473,53.188 28.109,115.175 25.512,115.175 25.204,114.641 
				135.473,50.977 			"/>
			<polygon clip-path="url(#SVGID_2_)" fill="#DA2E57" points="135.473,55.399 31.939,115.175 28.109,115.175 135.473,53.188 			"/>
			<polygon clip-path="url(#SVGID_2_)" fill="#DA2D57" points="135.473,57.611 35.769,115.175 31.939,115.175 135.473,55.399 			"/>
			<polygon clip-path="url(#SVGID_2_)" fill="#DA2C58" points="135.473,59.822 39.599,115.175 35.769,115.175 135.473,57.611 			"/>
			<polygon clip-path="url(#SVGID_2_)" fill="#DA2B58" points="135.473,62.033 43.429,115.175 39.599,115.175 135.473,59.822 			"/>
			<polygon clip-path="url(#SVGID_2_)" fill="#DA2A58" points="135.473,64.244 47.259,115.175 43.429,115.175 135.473,62.033 			"/>
			<polygon clip-path="url(#SVGID_2_)" fill="#DA2958" points="135.473,66.455 51.088,115.175 47.259,115.175 135.473,64.244 			"/>
			<polygon clip-path="url(#SVGID_2_)" fill="#DA2858" points="135.473,68.666 54.918,115.175 51.088,115.175 135.473,66.455 			"/>
			<polygon clip-path="url(#SVGID_2_)" fill="#DA2758" points="135.473,70.878 58.748,115.175 54.918,115.175 135.473,68.666 			"/>
			<polygon clip-path="url(#SVGID_2_)" fill="#DA2659" points="135.473,73.089 62.578,115.175 58.748,115.175 135.473,70.878 			"/>
			<polygon clip-path="url(#SVGID_2_)" fill="#DA2559" points="135.473,75.3 66.408,115.175 62.578,115.175 135.473,73.089 			"/>
			<polygon clip-path="url(#SVGID_2_)" fill="#DA2459" points="135.473,77.511 70.238,115.175 66.408,115.175 135.473,75.3 			"/>
			<polygon clip-path="url(#SVGID_2_)" fill="#D92359" points="135.473,79.722 74.068,115.175 70.238,115.175 135.473,77.511 			"/>
			<polygon clip-path="url(#SVGID_2_)" fill="#D92259" points="135.473,81.934 77.898,115.175 74.068,115.175 135.473,79.722 			"/>
			<polygon clip-path="url(#SVGID_2_)" fill="#D92159" points="135.473,84.145 81.727,115.175 77.898,115.175 135.473,81.934 			"/>
			<polygon clip-path="url(#SVGID_2_)" fill="#D9205A" points="135.473,86.356 85.557,115.175 81.727,115.175 135.473,84.145 			"/>
			<polygon clip-path="url(#SVGID_2_)" fill="#D91F5A" points="135.473,88.567 89.387,115.175 85.557,115.175 135.473,86.356 			"/>
			<polygon clip-path="url(#SVGID_2_)" fill="#D91E5A" points="135.473,90.778 93.217,115.175 89.387,115.175 135.473,88.567 			"/>
			<polygon clip-path="url(#SVGID_2_)" fill="#D91E5A" points="93.217,115.175 135.473,90.778 135.473,115.175 			"/>
		</g>
	</g>
	<g>
		<path fill="#20221D" d="M34.241,116.786c-0.358,0-0.712-0.119-1.002-0.349C17.83,104.201,8.993,85.912,8.993,66.259
			c0-35.315,28.731-64.046,64.046-64.046c35.315,0,64.046,28.731,64.046,64.046c0,10.292-2.369,20.122-7.042,29.219
			c-0.222,0.432-0.627,0.741-1.102,0.841c-0.477,0.1-0.97-0.02-1.347-0.326c-2.495-2.027-5.201-4.008-8.067-6.105l-3.01-2.202
			c-3.215-2.348-4.683-3.419-5.488-4.264c-1.299-1.363-1.045-2.468-0.673-3.482c1.622-4.403,3.171-12.064-2.069-27.71
			c-4.924-14.696-13.564-23.873-24.984-26.538c-2.614-0.611-5.413-0.92-8.318-0.92c-7.683,0-33.392,2.785-41.635,38.615
			c-2.757,11.971-0.872,16.057,1.309,20.79c1.016,2.202,2.167,4.699,2.89,8.087c0.536,2.518-1.015,16.989-1.707,23.094
			c-0.066,0.582-0.443,1.082-0.983,1.307C34.659,116.746,34.449,116.786,34.241,116.786z M73.038,5.436
			c-33.538,0-60.823,27.285-60.823,60.823c0,17.675,7.528,34.19,20.755,45.76c1.217-11.204,1.647-18.029,1.427-19.085
			c-0.648-3.037-1.673-5.26-2.664-7.409c-2.328-5.049-4.527-9.818-1.523-22.861c3.338-14.51,9.762-25.467,19.092-32.564
			c9.291-7.068,19.095-8.551,25.683-8.551c3.152,0,6.197,0.338,9.051,1.005c12.566,2.933,22.009,12.841,27.307,28.653
			c5.563,16.609,3.828,24.988,2.038,29.845c-0.012,0.034-0.029,0.079-0.046,0.126c0.532,0.583,2.394,1.942,5.082,3.906l3.013,2.204
			c2.313,1.692,4.522,3.31,6.62,4.949c3.858-8.137,5.812-16.866,5.812-25.977C133.862,32.721,106.577,5.436,73.038,5.436z"/>
	</g>
	<g>
		<path fill="#20221D" d="M78.861,80.288h-0.002c-1.584,0-3.072-1.504-4.684-4.732c-1.339-2.681-2.642-6.308-3.77-10.487
			c-1.152-4.266-1.634-8.42-1.519-13.074c0.126-5.095,1.391-6.821,1.776-7.228c0.161-0.164,3.453-3.436,9.353-3.436
			c0.987,0,2.003,0.093,3.021,0.277c7.647,1.381,7.889,5.541,8.034,8.026c0.013,0.218,0.025,0.43,0.042,0.635
			c0.476,5.594-4.296,23.173-8.99,28.285C81.066,79.703,79.969,80.287,78.861,80.288z M73.043,46.946
			c-0.149,0.247-0.848,1.587-0.935,5.128c-0.107,4.335,0.34,8.197,1.408,12.155c2.245,8.317,4.591,12.136,5.464,12.804
			c0.847-0.34,3.137-3.241,5.719-10.937c2.058-6.135,3.435-12.822,3.202-15.555c-0.02-0.232-0.034-0.474-0.049-0.721
			c-0.129-2.206-0.24-4.112-5.39-5.042c-0.829-0.149-1.653-0.225-2.448-0.225C75.911,44.553,73.456,46.576,73.043,46.946z"/>
	</g>
	<g>
		<path fill="#20221D" d="M62.314,102.201c-0.023,0-0.047,0-0.07-0.002c-13.052-0.559-22.531-4.798-28.175-12.599
			c-6.021-8.322-6.058-18.71-4.261-25.075c0.242-0.856,1.132-1.355,1.989-1.113c0.856,0.242,1.354,1.132,1.113,1.988
			c-1.29,4.568-1.948,14.408,3.77,22.311c5.037,6.962,13.685,10.753,25.702,11.268c0.889,0.038,1.579,0.789,1.541,1.678
			C63.886,101.525,63.172,102.201,62.314,102.201z"/>
	</g>
	<g>
		<path fill="#20221D" d="M24.657,37.791h101.954c0,0-9.007,15.621-23.722,16.735c-8.234,0.623-14.402-6.647-17.853-9.661
			c-2.584-2.258-5.01-2.75-10.609,0c-3.793,1.86-3.68,5.563-12.562,8.677c-0.982,0.343-16.041,4.253-25.87-2.715
			c-1.445-1.026-5.982-3.847-9.097-7.945C23.881,38.913,24.74,37.9,24.657,37.791"/>
	</g>
</g>
</svg>
