<svg viewBox="0 0 74 26" id="logo-csc" xmlns="http://www.w3.org/2000/svg"><g fill="#FFF" fill-rule="evenodd"><path d="M26 10.308V.318l-3.411 3.385A13.153 13.153 0 0 0 13.438 0C6.017 0 0 5.638 0 13s6.017 13 13.438 13a13.11 13.11 0 0 0 11.097-6.069l-3.877-2.388a8.573 8.573 0 0 1-7.22 3.947c-4.714 0-8.524-3.78-8.524-8.49 0-4.676 3.81-8.457 8.524-8.457a8.53 8.53 0 0 1 5.923 2.362l-3.406 3.38L26 10.307zM30.71 19.035c1.625 1.558 3.995 2.487 6.67 2.487 4.708 0 6.842-4.94 1.626-6.333l-4.335-1.095c-3.691-.962-6.23-3.415-6.23-6.897-.103-3.979 4.165-7.295 8.94-7.195 3.284 0 6.366 1.028 8.67 2.785l-2.676 3.714c-1.626-1.293-3.624-1.956-5.995-1.956-3.962 0-5.96 3.946-1.49 5.205l4.064 1.029c3.895.961 7.044 3.415 7.044 7.46.101 4.31-4.369 7.858-9.618 7.759-3.623 0-6.942-1.194-9.38-3.217l2.71-3.746zM70.207 8.49a8.269 8.269 0 0 0-7.063-3.947c-4.61 0-8.338 3.781-8.338 8.457 0 4.709 3.728 8.49 8.338 8.49 2.976 0 5.592-1.592 7.063-3.947L74 19.931C71.711 23.611 67.69 26 63.144 26 55.886 26 50 20.362 50 13S55.886 0 63.144 0C67.69 0 71.711 2.42 74 6.069l-3.793 2.42z"></path><path d="M63 9a4 4 0 1 0 0 8 4 4 0 0 0 0-8"></path></g></svg>