<?xml version="1.0" encoding="utf-8"?>
<!-- Generator: Adobe Illustrator 17.1.0, SVG Export Plug-In . SVG Version: 6.00 Build 0)  -->
<!DOCTYPE svg PUBLIC "-//W3C//DTD SVG 1.1//EN" "http://www.w3.org/Graphics/SVG/1.1/DTD/svg11.dtd">
<svg version="1.1" id="Слой_2" xmlns="http://www.w3.org/2000/svg" xmlns:xlink="http://www.w3.org/1999/xlink" x="0px" y="0px"
	 viewBox="0 0 13.693 15.766" enable-background="new 0 0 13.693 15.766" xml:space="preserve">
<path fill="#0681FA" d="M12.609,7.947c0.324-0.365,0.841-1.124,0.841-2.296c0-1.329-0.918-2.081-1.713-2.365
	c-0.027-0.42-0.169-1.498-0.911-2.245c-0.484-0.487-1.126-0.733-1.91-0.734c-0.001,0-0.001,0-0.003,0
	c-1.501,0-2.024,0.619-2.195,0.941C6.292,0.906,5.362,0.276,4.315,0.309C3.66,0.339,3.084,0.638,2.601,1.198
	c-0.625,0.726-0.75,1.568-0.618,2.328C1.492,3.78,0.143,4.632,0.229,6.28C0.259,6.876,0.455,7.542,1.066,7.94
	c-0.324,0.365-0.841,1.124-0.841,2.295c0,1.329,0.918,2.081,1.714,2.365c0.027,0.42,0.169,1.498,0.911,2.245
	c0.484,0.486,1.126,0.733,1.91,0.734c0.001,0,0.002,0,0.003,0c1.502,0,2.024-0.619,2.195-0.942c0.415,0.334,1.306,0.942,2.296,0.942
	c0.036,0,0.071-0.001,0.107-0.002c0.655-0.03,1.231-0.329,1.713-0.888c0.625-0.726,0.75-1.568,0.618-2.328
	c0.49-0.255,1.839-1.107,1.754-2.754C13.416,9.011,13.22,8.345,12.609,7.947z M6.637,3.049H5.335
	c-0.119-0.362-0.449-0.629-0.85-0.629c-0.5,0-0.906,0.407-0.906,0.906s0.407,0.906,0.906,0.906c0.401,0,0.731-0.267,0.85-0.629
	h1.302v6.148H5.778C5.659,9.39,5.329,9.123,4.928,9.123c-0.5,0-0.906,0.407-0.906,0.906s0.407,0.906,0.906,0.906
	c0.401,0,0.731-0.267,0.85-0.629h0.859v3.907C6.6,14.246,6.562,14.28,6.548,14.33c-0.009,0.031-0.226,0.749-1.786,0.749
	c-0.001,0-0.002,0-0.003,0c-0.644,0-1.167-0.197-1.553-0.584C2.66,13.947,2.5,13.146,2.452,12.718
	c0.055,0.006,0.115,0.018,0.165,0.018c1.14,0,2.232-0.698,2.278-0.728c0.116-0.075,0.149-0.229,0.074-0.346
	c-0.075-0.116-0.23-0.149-0.346-0.074c-0.01,0.006-1.016,0.647-2.006,0.647c-0.639,0-1.893-0.604-1.893-2
	c0-1.174,0.595-1.859,0.82-2.078c0.21,0.067,0.453,0.109,0.731,0.124c0.105,0.384,0.442,0.672,0.859,0.672
	c0.5,0,0.906-0.407,0.906-0.906S3.634,7.142,3.134,7.142c-0.41,0-0.743,0.279-0.855,0.652c-0.507-0.021-1.481-0.179-1.552-1.54
	C0.663,4.998,1.64,4.291,2.11,4.024c0.077,0.231,0.17,0.451,0.282,0.648c0.537,0.946,1.412,1.55,2.203,1.55
	c0.086,0,0.171-0.007,0.254-0.022c0.136-0.023,0.227-0.153,0.203-0.289C5.029,5.775,4.895,5.679,4.763,5.708
	C4.128,5.821,3.312,5.28,2.827,4.425C2.608,4.04,1.973,2.693,2.98,1.524c0.388-0.451,0.844-0.691,1.355-0.715
	C5.5,0.772,6.606,1.811,6.617,1.822C6.622,1.827,6.631,1.825,6.637,1.83V3.049z M4.892,3.327c0,0.224-0.182,0.406-0.406,0.406
	S4.079,3.551,4.079,3.327s0.182-0.406,0.406-0.406S4.892,3.103,4.892,3.327z M5.334,10.03c0,0.224-0.182,0.406-0.406,0.406
	s-0.406-0.182-0.406-0.406s0.182-0.406,0.406-0.406S5.334,9.805,5.334,10.03z M2.728,8.048c0-0.224,0.182-0.406,0.406-0.406
	s0.406,0.182,0.406,0.406S3.358,8.454,3.134,8.454S2.728,8.272,2.728,8.048z M11.564,11.863c-0.077-0.231-0.17-0.451-0.282-0.648
	c-0.596-1.049-1.614-1.678-2.457-1.528C8.689,9.71,8.599,9.84,8.623,9.975c0.023,0.137,0.152,0.23,0.289,0.203
	c0.635-0.111,1.451,0.428,1.937,1.283c0.218,0.385,0.854,1.732-0.153,2.901c-0.388,0.451-0.844,0.691-1.355,0.714
	c-0.986,0.049-1.947-0.721-2.208-0.947v-0.975h1.302c0.119,0.362,0.449,0.629,0.85,0.629c0.5,0,0.906-0.407,0.906-0.906
	s-0.407-0.906-0.906-0.906c-0.401,0-0.731,0.267-0.85,0.629H7.132V6.36h0.859C8.11,6.722,8.44,6.989,8.841,6.989
	c0.5,0,0.906-0.407,0.906-0.906S9.34,5.176,8.841,5.176c-0.401,0-0.731,0.267-0.85,0.629H7.132V1.642
	c0-0.024-0.019-0.039-0.025-0.06c0.004-0.01,0.017-0.014,0.02-0.025c0.009-0.031,0.226-0.749,1.786-0.749c0.001,0,0.002,0,0.003,0
	c0.645,0,1.167,0.197,1.554,0.584c0.546,0.548,0.706,1.349,0.754,1.777c-0.055-0.006-0.115-0.018-0.165-0.018
	c-1.141,0-2.232,0.698-2.278,0.728C8.664,3.954,8.631,4.108,8.706,4.224C8.78,4.34,8.934,4.373,9.051,4.299
	c0.01-0.006,1.016-0.647,2.007-0.647c0.639,0,1.892,0.604,1.892,2c0,1.174-0.595,1.86-0.819,2.078
	c-0.261-0.084-0.56-0.14-0.929-0.14c-0.001,0-0.003,0-0.005,0l0.002,0.051c-0.151-0.292-0.447-0.498-0.797-0.498
	c-0.5,0-0.906,0.407-0.906,0.906s0.407,0.906,0.906,0.906c0.485,0,0.875-0.385,0.898-0.864c0.466,0.005,1.572,0.082,1.648,1.543
	C13.012,10.889,12.035,11.596,11.564,11.863z M8.877,12.877c0-0.224,0.182-0.406,0.406-0.406s0.406,0.182,0.406,0.406
	s-0.182,0.406-0.406,0.406S8.877,13.101,8.877,12.877z M8.435,6.082c0-0.224,0.182-0.406,0.406-0.406s0.406,0.182,0.406,0.406
	S9.065,6.489,8.841,6.489S8.435,6.306,8.435,6.082z M10.808,8.048c0,0.224-0.182,0.406-0.406,0.406S9.996,8.272,9.996,8.048
	s0.182-0.406,0.406-0.406S10.808,7.824,10.808,8.048z"/>
</svg>
