<?xml version="1.0" encoding="utf-8"?>
<!-- Generator: Adobe Illustrator 17.1.0, SVG Export Plug-In . SVG Version: 6.00 Build 0)  -->
<!DOCTYPE svg PUBLIC "-//W3C//DTD SVG 1.1//EN" "http://www.w3.org/Graphics/SVG/1.1/DTD/svg11.dtd">
<svg version="1.1" id="Слой_1" xmlns="http://www.w3.org/2000/svg" xmlns:xlink="http://www.w3.org/1999/xlink" x="0px" y="0px"
	 viewBox="0 0 174.49 205.102" enable-background="new 0 0 174.49 205.102" xml:space="preserve">
<path fill="#94989D" d="M163.554,49.33c-0.92,1.493-3.95,6.135-8.844,10.973c-5.006,4.949-10.425,8.532-16.002,10.641
	c5.638,18.6,4.039,28.651,1.591,35.295c-0.776,2.116-0.623,1.968,10.228,9.917c4.483,3.285,8.643,6.292,12.492,9.419
	c5.953-11.59,9.315-24.732,9.315-38.656C172.335,73.418,169.171,60.658,163.554,49.33z"/>
<path fill="#94989D" d="M71.473,129.688c-16.486-0.707-28.364-5.929-35.303-15.52c-4.299-5.942-6.184-13.144-6.417-19.77
	c0.192-3.273,0.762-7.144,1.85-11.869c1.183-5.144,2.638-9.829,4.311-14.102c-0.422-0.266-0.838-0.544-1.249-0.835
	c-0.241-0.171-0.545-0.378-0.9-0.62c-2.662-1.817-8.201-5.598-12.19-10.844c-3.545-4.663-3.71-6.909-3.469-8.194
	c0.01-0.223,0.066-0.445,0.169-0.652c0.277-0.558,0.846-0.911,1.469-0.911h29.544c16.417-17.9,38.65-19.93,52.737-16.639
	c9.788,2.284,18.195,7.846,24.877,16.639h35.115C147.642,20.044,119.706,2.184,87.599,2.184c-46.796,0-84.735,37.94-84.735,84.735
	c0,26.897,12.535,50.869,32.079,66.389c1.706-15.05,2.837-28.356,2.351-30.641c-0.222-1.041-0.475-2.012-0.748-2.93
	c7.737,8.123,19.411,12.57,34.787,13.229c0.024,0.001,0.048,0.002,0.072,0.002c0.873,0,1.599-0.689,1.637-1.57
	C73.08,130.492,72.378,129.727,71.473,129.688z"/>
<path fill="#94989D" d="M159.408,49.65H21.505c0.336,0.988,1.15,2.479,2.681,4.492c3.666,4.823,8.908,8.401,11.427,10.121
	c0.374,0.255,0.694,0.474,0.948,0.654c13.517,9.583,34.518,3.66,34.716,3.59c6.757-2.368,9.341-4.173,11.222-5.849
	c-0.043,6.138,0.607,11.71,2.047,17.41c1.519,6.017,3.271,11.231,5.068,15.077c2.727,5.841,4.664,6.519,5.885,6.519
	c0.001,0,0.002,0,0.003,0c1.273-0.001,2.545-0.681,3.781-2.021c5.462-5.918,11.193-26.139,12.19-36.703
	c4.94,3.682,10.83,7.372,17.638,6.857c10.111-0.766,18.214-6.821,23.232-11.766C155.557,54.862,157.957,51.728,159.408,49.65z
	 M96.873,97.418c-0.588,0.637-1.045,0.907-1.294,0.956c-1.138-0.592-4.551-6.037-7.852-19.11
	c-1.469-5.818-2.084-11.494-1.937-17.865c0.014-0.623,0.043-1.191,0.079-1.727c0.486-0.366,1.023-0.736,1.647-1.111
	c5.609-3.365,11.747-3.78,16.418-1.111c1.332,0.761,2.775,1.844,4.41,3.101C108.157,69.215,102.14,91.711,96.873,97.418z"/>
<path fill="#94989D" d="M158.53,48.996c-0.084-0.111-0.152-0.231-0.203-0.356C158.375,48.756,158.44,48.876,158.53,48.996z"/>
<g>
	<path fill="#94989D" d="M29.671,170.258c-4.3,0-7.736,1.445-10.211,4.295c-2.461,2.832-3.708,6.823-3.708,11.86
		c0,3.194,0.558,6.054,1.658,8.501c1.11,2.469,2.734,4.393,4.826,5.718c2.09,1.323,4.535,1.993,7.268,1.993
		c4.338,0,7.793-1.455,10.268-4.323c2.46-2.851,3.707-6.851,3.707-11.888c0-4.961-1.232-8.931-3.663-11.8
		C37.367,171.723,33.954,170.258,29.671,170.258z M29.615,199.267c-3.203,0-5.709-1.126-7.451-3.346
		c-1.767-2.251-2.663-5.45-2.663-9.507c0-4.094,0.886-7.291,2.634-9.507c1.725-2.183,4.222-3.291,7.424-3.291
		c3.203,0,5.72,1.113,7.482,3.307c1.784,2.223,2.688,5.416,2.688,9.49c0,4.057-0.896,7.256-2.663,9.507
		C35.324,198.141,32.817,199.267,29.615,199.267z"/>
	<path fill="#94989D" d="M72.175,169.087c0,1.873,0.039,3.798,0.116,5.736c-1.143-1.509-2.421-2.624-3.81-3.319
		c-1.655-0.827-3.637-1.246-5.89-1.246c-4.308,0-7.644,1.455-9.916,4.324c-2.249,2.839-3.389,6.979-3.389,12.306
		c0,5.073,1.153,9.001,3.426,11.676c2.29,2.694,5.632,4.061,9.935,4.061c4.192,0,7.51-1.607,9.873-4.779l0.636,4.22h2.601v-44.328
		h-3.582V169.087z M69.9,176.539c1.51,1.975,2.275,5.297,2.275,9.875v0.475c0,4.463-0.777,7.694-2.311,9.601
		c-1.51,1.88-3.938,2.833-7.217,2.833c-6.467,0-9.611-4.085-9.611-12.49c0-4.323,0.815-7.654,2.422-9.899
		c1.598-2.232,3.931-3.317,7.133-3.317C65.957,173.616,68.416,174.599,69.9,176.539z"/>
	<path fill="#94989D" d="M100.853,187.134c-1.272-0.806-3.311-1.718-6.063-2.71c-3.216-1.15-5.396-2.198-6.48-3.111
		c-1.037-0.875-1.541-2.012-1.541-3.478c0-1.301,0.643-2.296,1.965-3.042c1.384-0.781,3.299-1.176,5.69-1.176
		c2.484,0,5.222,0.61,8.14,1.813l0.39,0.161l1.353-3.293l-0.387-0.161c-2.983-1.246-6.177-1.878-9.496-1.878
		c-3.499,0-6.273,0.693-8.247,2.06c-2.021,1.4-3.046,3.331-3.046,5.74c0,1.509,0.336,2.811,1,3.871
		c0.655,1.046,1.634,1.992,2.91,2.813c1.251,0.806,3.433,1.775,6.487,2.879c2.77,0.985,4.78,1.994,5.975,3
		c1.15,0.968,1.709,2.125,1.709,3.534c0,1.518-0.7,2.704-2.139,3.627c-1.479,0.948-3.701,1.428-6.605,1.428
		c-3.31,0-6.5-0.756-9.481-2.247l-0.61-0.305v3.929l0.226,0.119c2.434,1.274,5.753,1.92,9.865,1.92c3.872,0,6.916-0.764,9.047-2.271
		c2.177-1.538,3.28-3.765,3.28-6.618c0-1.434-0.336-2.703-1-3.772C103.139,188.909,102.15,187.957,100.853,187.134z"/>
	<path fill="#94989D" d="M113.874,196.305c-1.212,0-2.657,0.548-2.657,3.161c0,2.611,1.445,3.16,2.657,3.16
		c1.238,0,2.713-0.548,2.713-3.16C116.587,196.853,115.111,196.305,113.874,196.305z"/>
	<path fill="#94989D" d="M136.343,170.314c-3.309,0-6.698,0.804-10.072,2.388l-0.369,0.173l1.374,3.194l0.403-0.208
		c2.944-1.527,5.822-2.301,8.553-2.301c2.461,0,4.259,0.689,5.344,2.049c1.107,1.388,1.668,3.501,1.668,6.278v1.603l-5.371,0.156
		c-4.736,0.095-8.418,0.992-10.943,2.669c-2.583,1.715-3.892,4.156-3.892,7.254c0,2.812,0.883,5.051,2.624,6.653
		c1.729,1.595,4.167,2.404,7.244,2.404c2.255,0,4.241-0.424,5.905-1.261c1.51-0.759,2.998-2.018,4.431-3.744l0.646,4.447h2.826
		v-20.627c0-3.765-0.871-6.59-2.589-8.396C142.401,171.232,139.783,170.314,136.343,170.314z M143.132,186.63v2.55
		c0,3.166-0.903,5.665-2.684,7.427c-1.782,1.765-4.263,2.659-7.375,2.659c-2.007,0-3.571-0.494-4.65-1.47
		c-1.081-0.978-1.607-2.324-1.607-4.117c0-2.249,0.826-3.855,2.525-4.91c1.747-1.084,4.748-1.735,8.921-1.935L143.132,186.63z"/>
	<rect x="155.708" y="170.845" fill="#94989D" width="3.61" height="31.221"/>
	<path fill="#94989D" d="M157.499,165.959c0.714,0,1.304-0.316,1.705-0.913c0.372-0.553,0.561-1.3,0.561-2.219
		c0-0.939-0.19-1.687-0.566-2.227c-0.403-0.574-0.991-0.878-1.701-0.878c-0.996,0-2.182,0.539-2.182,3.105
		C155.317,165.416,156.503,165.959,157.499,165.959z"/>
</g>
</svg>
